<?xml version="1.0" encoding="utf-8"?>
<!-- Generator: Adobe Illustrator 23.0.2, SVG Export Plug-In . SVG Version: 6.00 Build 0)  -->
<svg version="1.1" id="Capa_1" xmlns="http://www.w3.org/2000/svg" xmlns:xlink="http://www.w3.org/1999/xlink" x="0px" y="0px"
	 viewBox="0 0 31.36 31.36" style="enable-background:new 0 0 31.36 31.36;" xml:space="preserve">
<style type="text/css">
	.st0{fill:#FFFFFF;}
	.st1{fill-rule:evenodd;clip-rule:evenodd;fill:#FFFFFF;}
</style>
<g>
	<path class="st0" d="M12.29,16.55c0-1.78,0-3.55,0-5.33c0-1.51,1.08-2.72,2.57-2.89c0.1-0.01,0.21-0.01,0.31-0.01
		c1.41,0,2.83,0,4.24,0c0.31,0,0.58,0.1,0.84,0.25c0.39,0.24,0.73,0.54,1.05,0.86c0.99,0.98,1.97,1.95,2.95,2.94
		c0.29,0.3,0.56,0.62,0.75,0.99c0.12,0.23,0.19,0.48,0.19,0.75c0,2.6,0,5.19,0,7.79c0,1.4-0.94,2.56-2.31,2.85
		c-0.18,0.04-0.38,0.06-0.57,0.06c-2.39,0-4.77,0-7.16,0c-1.59,0-2.87-1.28-2.87-2.88C12.29,20.13,12.29,18.34,12.29,16.55z
		 M18.74,23.36c1.18,0,2.35,0,3.53,0c0.21,0,0.42-0.02,0.61-0.11c0.58-0.27,0.87-0.73,0.87-1.37c0-2.59,0-5.18,0-7.77
		c0-0.03,0-0.06,0-0.09c-0.01-0.31-0.14-0.5-0.44-0.58c-0.21-0.06-0.43-0.09-0.64-0.09c-0.58-0.01-1.16-0.01-1.74-0.01
		c-0.05,0-0.1,0-0.15-0.01c-0.36-0.06-0.61-0.35-0.61-0.73c-0.01-0.67,0-1.34-0.02-2.02c-0.01-0.18-0.06-0.38-0.13-0.55
		c-0.08-0.18-0.23-0.29-0.44-0.29c-1.47,0-2.94,0-4.42,0c-0.8,0-1.43,0.64-1.43,1.44c0,3.58,0,7.16,0,10.73
		c0,0.11,0.01,0.23,0.04,0.33c0.15,0.67,0.72,1.11,1.41,1.11C16.36,23.37,17.55,23.36,18.74,23.36z"/>
	<path class="st0" d="M15.9,7.6c-0.2,0-0.38,0-0.57,0c-0.36-0.01-0.7,0.04-1.05,0.13c-0.05,0.01-0.11-0.01-0.16-0.03
		c-0.11-0.03-0.21-0.1-0.31-0.1c-1.44-0.01-2.88,0-4.32,0c-0.89,0-1.5,0.61-1.5,1.5c0,3.3,0,6.6,0,9.91c0,0.88,0.61,1.49,1.49,1.49
		c0.66,0,1.31,0,1.97,0c0.1,0,0.13,0.02,0.13,0.13c-0.01,0.4,0,0.79,0,1.19c0,0.03,0,0.07-0.01,0.12c-0.05,0-0.09,0-0.14,0
		c-0.66,0-1.31,0-1.97,0c-1.63,0-2.9-1.26-2.9-2.9c0-1.36,0-2.73,0-4.09c0-1.96-0.01-3.92,0-5.89c0-1.11,0.51-1.96,1.46-2.52
		c0.43-0.26,0.9-0.37,1.4-0.37c1.43,0,2.85,0,4.28,0c0.27,0,0.51,0.08,0.74,0.2C14.81,6.56,15.62,7.25,15.9,7.6z"/>
	<path class="st0" d="M19.6,16.39c-0.38-0.19-0.56-0.22-1.07-0.17c0.04-0.04,0.07-0.08,0.1-0.11c0.24-0.25,0.48-0.5,0.72-0.74
		c0.51-0.51,1.28-0.67,1.91-0.41c0.88,0.36,1.26,1.36,0.84,2.23c-0.1,0.2-0.23,0.39-0.38,0.55c-0.54,0.56-1.1,1.12-1.66,1.67
		c-0.59,0.59-1.47,0.7-2.14,0.29c-0.11-0.07-0.21-0.15-0.3-0.24c-0.17-0.17-0.17-0.43-0.01-0.6c0.16-0.18,0.44-0.21,0.61-0.04
		c0.33,0.34,0.87,0.27,1.21-0.05c0.57-0.55,1.13-1.11,1.69-1.67c0.22-0.22,0.32-0.5,0.25-0.81c-0.1-0.43-0.55-0.67-0.98-0.54
		c-0.22,0.07-0.39,0.22-0.54,0.39C19.76,16.22,19.68,16.31,19.6,16.39z"/>
	<path class="st0" d="M17.77,20.42c0.34,0.19,0.69,0.25,1.07,0.17c-0.02,0.02-0.02,0.04-0.04,0.06c-0.23,0.23-0.45,0.47-0.68,0.7
		c-0.63,0.62-1.62,0.7-2.28,0.18c-0.74-0.58-0.85-1.59-0.26-2.37c0.05-0.07,0.11-0.14,0.18-0.2c0.53-0.52,1.05-1.05,1.59-1.56
		c0.6-0.58,1.46-0.69,2.12-0.27c0.1,0.06,0.19,0.14,0.27,0.22c0.18,0.17,0.18,0.43,0.03,0.61c-0.16,0.18-0.46,0.22-0.63,0.05
		c-0.35-0.35-0.88-0.26-1.2,0.06c-0.51,0.51-1.02,1.01-1.53,1.51c-0.22,0.22-0.34,0.48-0.29,0.79c0.06,0.43,0.5,0.72,0.93,0.61
		c0.19-0.05,0.36-0.15,0.49-0.29C17.61,20.59,17.69,20.51,17.77,20.42z"/>
</g>
</svg>
