<?xml version="1.0" encoding="utf-8"?>
<!-- Generator: Adobe Illustrator 23.0.2, SVG Export Plug-In . SVG Version: 6.00 Build 0)  -->
<svg version="1.1" id="Capa_1" xmlns="http://www.w3.org/2000/svg" xmlns:xlink="http://www.w3.org/1999/xlink" x="0px" y="0px"
	 viewBox="0 0 31.36 31.36" style="enable-background:new 0 0 31.36 31.36;" xml:space="preserve">
<style type="text/css">
	.st0{fill:#FFFFFF;}
	.st1{fill-rule:evenodd;clip-rule:evenodd;fill:#FFFFFF;}
</style>
<g>
	<path class="st0" d="M16.76,17.34c-1.81,1.27-4.28,0.76-5.49-0.96c-1.13-1.6-0.92-3.79,0.51-5.15c1.41-1.34,3.61-1.44,5.16-0.24
		c1.6,1.25,2.03,3.59,0.79,5.39c0.03,0.02,0.07,0.04,0.09,0.06c1.01,1.01,2.02,2.01,3.03,3.02c0.3,0.31,0.29,0.76-0.03,1.03
		c-0.27,0.23-0.67,0.21-0.94-0.06c-0.49-0.48-0.97-0.97-1.46-1.46c-0.52-0.52-1.04-1.04-1.57-1.57
		C16.81,17.4,16.78,17.37,16.76,17.34z M17.06,14.1c0-1.43-1.15-2.58-2.57-2.58s-2.57,1.15-2.57,2.56c0,1.43,1.15,2.58,2.57,2.58
		C15.9,16.68,17.06,15.53,17.06,14.1z"/>
	<path class="st0" d="M7.18,24.24c0-1.96,0-3.91,0-5.88c0.04,0,0.08-0.01,0.12-0.01c1.67,0,3.33,0,5,0c0.06,0,0.13,0.02,0.19,0.04
		c0.16,0.06,0.31,0.13,0.47,0.18c0.08,0.03,0.11,0.07,0.11,0.15c0,1.54,0,3.09,0,4.63c0,0.29,0,0.57,0,0.87
		C11.1,24.24,9.15,24.24,7.18,24.24z M11.75,19.67c-1.09,0-2.18,0-3.27,0c0,1.09,0,2.17,0,3.26c1.09,0,2.18,0,3.27,0
		C11.75,21.84,11.75,20.76,11.75,19.67z"/>
	<path class="st0" d="M24.31,7.12c0,1.97,0,3.92,0,5.88c-1.74,0-3.47,0-5.21,0c-0.03-0.11-0.06-0.23-0.1-0.35
		c-0.13-0.39-0.3-0.76-0.52-1.11c-0.03-0.05-0.05-0.12-0.05-0.18c0-1.37,0-2.74,0-4.12c0-0.04,0-0.08,0-0.12
		C20.39,7.12,22.34,7.12,24.31,7.12z M19.73,11.69c1.1,0,2.18,0,3.26,0c0-1.09,0-2.18,0-3.26c-1.09,0-2.17,0-3.26,0
		C19.73,9.52,19.73,10.6,19.73,11.69z"/>
	<path class="st0" d="M21.76,19.17c0.01,0,0.03-0.01,0.04-0.01c0.43,0,0.86,0,1.3,0c0,1.34,0,2.67,0,4c-2.67,0-5.34,0-8.02,0
		c0-1.46,0-2.91,0-4.33c0.35-0.09,0.69-0.17,1.03-0.28c0.21-0.07,0.41-0.18,0.61-0.27c0.03-0.01,0.09-0.01,0.11,0
		c0.28,0.27,0.56,0.55,0.83,0.83c0.01,0.01,0.01,0.02,0.02,0.04c-0.42,0-0.84,0-1.26,0c0,0.89,0,1.77,0,2.66c0.89,0,1.77,0,2.67,0
		c0-0.42,0-0.83,0-1.26c0.04,0.03,0.06,0.04,0.08,0.06c0.12,0.12,0.23,0.24,0.35,0.35c0.66,0.64,1.72,0.45,2.11-0.39
		c0.02-0.05,0.07-0.08,0.11-0.11c0.01,0.01,0.02,0.01,0.03,0.02c0-0.1,0-0.21,0-0.31C21.76,19.84,21.76,19.51,21.76,19.17
		L21.76,19.17z"/>
	<path class="st0" d="M8.49,11.7c0.63,0,1.26,0,1.87,0c-0.17,0.43-0.34,0.86-0.52,1.3c-0.86,0-1.75,0-2.66,0c0-1.96,0-3.91,0-5.87
		c1.96,0,3.91,0,5.88,0c0,0.04,0,0.07,0,0.11c0,0.75,0,1.49,0,2.24c0,0.09-0.03,0.12-0.11,0.15c-0.39,0.13-0.75,0.31-1.09,0.53
		c-0.03,0.02-0.06,0.04-0.1,0.06c0-0.6,0-1.19,0-1.79c-1.1,0-2.18,0-3.28,0C8.49,9.51,8.49,10.6,8.49,11.7z"/>
	<path class="st0" d="M19.24,13.81c0.39,0,0.78,0,1.19,0c0,0.44,0,0.88,0,1.33c0.45,0,0.89,0,1.34,0c0-0.44,0-0.87,0-1.32
		c0.45,0,0.89,0,1.34,0c0,0.89,0,1.77,0,2.67c-0.04,0-0.08,0-0.12,0c-1.39,0-2.78,0-4.17,0c-0.03,0-0.05,0-0.08,0
		c-0.08-0.01-0.11-0.08-0.07-0.15c0.4-0.76,0.59-1.57,0.55-2.43c0-0.03,0-0.05,0-0.08C19.22,13.82,19.23,13.81,19.24,13.81z"/>
	<path class="st0" d="M9.72,13.81c0,0.44,0,0.88,0,1.34c0.16-0.05,0.16,0.06,0.19,0.16c0.26,0.97,0.78,1.78,1.54,2.43
		c0.02,0.02,0.05,0.04,0.07,0.06c0,0,0,0.01,0,0.02c-0.6,0-1.19,0-1.8,0c0-0.44,0-0.88,0-1.33c-0.9,0-1.78,0-2.67,0
		c0-0.45,0-0.89,0-1.34c0.44,0,0.88,0,1.33,0c0-0.45,0-0.89,0-1.34C8.83,13.81,9.27,13.81,9.72,13.81z"/>
	<path class="st0" d="M15.07,8.45c0-0.45,0-0.89,0-1.33c0.45,0,0.89,0,1.34,0c0,0.44,0,0.88,0,1.33c0.45,0,0.89,0,1.33,0
		c0,0.74,0,1.46,0,2.2c-1.15-1.03-2.48-1.44-4-1.24c0-0.32,0-0.63,0-0.96C14.18,8.45,14.62,8.45,15.07,8.45z"/>
	<path class="st0" d="M9.12,11.06c0-0.67,0-1.33,0-2c0.66,0,1.33,0,2,0c0,0.04,0.01,0.09,0.01,0.13c0,0.48,0,0.96,0,1.44
		c0,0.09-0.04,0.16-0.09,0.23c-0.12,0.17-0.28,0.22-0.49,0.21c-0.44-0.02-0.87,0-1.31,0C9.21,11.06,9.17,11.06,9.12,11.06z"/>
	<path class="st0" d="M21.76,19.17c-0.09,0-0.19,0-0.28-0.01c-0.05-0.01-0.11-0.03-0.15-0.06c-0.27-0.27-0.54-0.54-0.81-0.81
		c-0.07-0.07-0.1-0.13-0.09-0.23c0.01-0.07,0-0.15,0-0.23c0.45,0,0.89,0,1.33,0c0,0.03,0,0.07,0.01,0.1c0,0.37,0,0.75,0,1.12
		C21.77,19.1,21.76,19.13,21.76,19.17L21.76,19.17z"/>
	<path class="st0" d="M18.98,20.49c-0.39,0-0.8,0-1.22,0c0-0.42,0-0.83,0-1.23C18.16,19.67,18.57,20.08,18.98,20.49z"/>
	<path class="st0" d="M11.12,20.3c0,0.67,0,1.33,0,1.99c-0.66,0-1.32,0-1.99,0c0-0.66,0-1.33,0-1.99
		C9.79,20.3,10.45,20.3,11.12,20.3z"/>
	<path class="st0" d="M20.36,11.05c0-0.67,0-1.32,0-1.99c0.67,0,1.33,0,2,0c0,0.66,0,1.32,0,1.99
		C21.7,11.05,21.04,11.05,20.36,11.05z"/>
</g>
</svg>
