<?xml version="1.0" encoding="utf-8"?>
<!-- Generator: Adobe Illustrator 23.0.2, SVG Export Plug-In . SVG Version: 6.00 Build 0)  -->
<svg version="1.1" id="Layer_1" xmlns="http://www.w3.org/2000/svg" xmlns:xlink="http://www.w3.org/1999/xlink" x="0px" y="0px"
	 viewBox="0 0 30.56 30.56" style="enable-background:new 0 0 30.56 30.56;" xml:space="preserve">
<style type="text/css">
	.st0{fill:url(#SVGID_1_);}
	.st1{fill:#FFFFFF;}
	.st2{fill:url(#SVGID_2_);}
	.st3{fill:url(#SVGID_3_);}
	.st4{fill:url(#SVGID_4_);}
	.st5{fill:url(#SVGID_5_);}
	.st6{fill:url(#SVGID_6_);}
	.st7{fill:url(#SVGID_7_);}
	.st8{fill:url(#SVGID_8_);}
	.st9{fill:#020202;}
	.st10{fill:url(#SVGID_9_);}
	.st11{fill:#00D632;}
	.st12{fill:#007BB5;}
	.st13{fill:#1DA1F2;}
	.st14{fill:#4A85FF;}
	.st15{fill:url(#SVGID_10_);}
	.st16{fill:#FF0B53;}
	.st17{fill:#00F0E9;}
	.st18{fill:url(#SVGID_11_);}
	.st19{fill:url(#SVGID_12_);}
	.st20{fill:url(#SVGID_13_);}
	.st21{fill:url(#SVGID_14_);}
	.st22{fill:url(#SVGID_15_);}
	.st23{fill:url(#SVGID_16_);}
	.st24{fill:url(#SVGID_17_);}
	.st25{fill:url(#SVGID_18_);}
	.st26{fill:url(#SVGID_19_);}
	.st27{fill:#CC2127;}
	.st28{fill:url(#SVGID_20_);}
	.st29{fill:url(#SVGID_21_);}
</style>
<g>
	<linearGradient id="SVGID_1_" gradientUnits="userSpaceOnUse" x1="15.2781" y1="30.5093" x2="15.2781" y2="1.5414">
		<stop  offset="0.1106" style="stop-color:#2595E0"/>
		<stop  offset="0.9296" style="stop-color:#25A9E0"/>
	</linearGradient>
	<path class="st0" d="M30.56,24.28c0,3.47-2.81,6.28-6.28,6.28h-18C2.81,30.56,0,27.75,0,24.28v-18C0,2.81,2.81,0,6.28,0h18
		c3.47,0,6.28,2.81,6.28,6.28V24.28z"/>
	<g>
		<path class="st1" d="M15.28,3.03c4.59-0.03,8.61,3.36,9.39,7.98c0.57,3.39-0.48,6.28-3.01,8.61c-0.79,0.73-1.7,1.32-2.7,1.73
			c-0.12,0.05-0.23,0.17-0.29,0.28c-1.01,1.84-2.01,3.68-3.01,5.52c-0.03,0.05-0.05,0.11-0.09,0.16c-0.18,0.29-0.44,0.29-0.61-0.01
			c-0.37-0.66-0.72-1.33-1.09-1.99c-0.66-1.22-1.32-2.45-2-3.66c-0.07-0.13-0.22-0.25-0.35-0.32c-3.14-1.46-5.09-3.85-5.69-7.28
			c-0.79-4.57,2.08-9.2,6.52-10.57C13.32,3.18,14.29,3.02,15.28,3.03z M7.67,12.52c-0.04,3.8,3.06,7.65,7.66,7.58
			c4.58-0.06,7.54-3.82,7.5-7.63c-0.04-4.2-3.48-7.57-7.72-7.53C11.06,4.98,7.63,8.47,7.67,12.52z"/>
		<path class="st1" d="M11.69,14.43c0-0.63-0.01-1.27,0-1.9c0-0.28-0.08-0.39-0.33-0.39c-0.56,0.02-1.13,0.02-1.7,0
			c-0.12,0-0.23-0.12-0.34-0.18c0.08-0.11,0.13-0.25,0.23-0.32c1.8-1.27,3.61-2.53,5.42-3.8c0.17-0.12,0.31-0.13,0.49,0
			c1.8,1.27,3.6,2.53,5.39,3.79c0.03,0.02,0.06,0.03,0.08,0.06c0.07,0.1,0.14,0.2,0.21,0.31c-0.11,0.06-0.22,0.16-0.33,0.17
			c-0.3,0.02-0.59,0.01-0.89,0.01c-0.26,0-0.52,0.02-0.77-0.01c-0.29-0.03-0.36,0.12-0.35,0.43c0.01,1.19,0,2.37,0,3.56
			c0,0.68-0.11,0.81-0.7,0.81c-0.6,0-1.19-0.01-1.79,0c-0.21,0-0.28-0.08-0.27-0.33c0.01-0.62,0.01-1.24,0-1.87
			c0-0.62-0.33-1.05-0.8-1.04c-0.47,0.01-0.8,0.43-0.8,1.05c-0.01,0.6-0.01,1.2,0,1.8c0.01,0.28-0.05,0.4-0.31,0.39
			c-0.62-0.02-1.25,0-1.87-0.01c-0.43,0-0.57-0.17-0.57-0.68C11.69,15.65,11.69,15.04,11.69,14.43
			C11.69,14.43,11.69,14.43,11.69,14.43z"/>
	</g>
</g>
</svg>
