<?xml version="1.0" encoding="utf-8"?>
<!-- Generator: Adobe Illustrator 23.0.2, SVG Export Plug-In . SVG Version: 6.00 Build 0)  -->
<svg version="1.1" id="Layer_1" xmlns="http://www.w3.org/2000/svg" xmlns:xlink="http://www.w3.org/1999/xlink" x="0px" y="0px"
	 viewBox="0 0 30.56 30.56" style="enable-background:new 0 0 30.56 30.56;" xml:space="preserve">
<style type="text/css">
	.st0{fill:url(#SVGID_1_);}
	.st1{fill:#FFFFFF;}
	.st2{fill:url(#SVGID_2_);}
	.st3{fill:url(#SVGID_3_);}
	.st4{fill:url(#SVGID_4_);}
	.st5{fill:url(#SVGID_5_);}
	.st6{fill:url(#SVGID_6_);}
	.st7{fill:url(#SVGID_7_);}
	.st8{fill:url(#SVGID_8_);}
	.st9{fill:#020202;}
	.st10{fill:url(#SVGID_9_);}
	.st11{fill:#00D632;}
	.st12{fill:#007BB5;}
	.st13{fill:#1DA1F2;}
	.st14{fill:#4A85FF;}
	.st15{fill:url(#SVGID_10_);}
	.st16{fill:#FF0B53;}
	.st17{fill:#00F0E9;}
	.st18{fill:url(#SVGID_11_);}
	.st19{fill:url(#SVGID_12_);}
	.st20{fill:url(#SVGID_13_);}
	.st21{fill:url(#SVGID_14_);}
	.st22{fill:url(#SVGID_15_);}
	.st23{fill:url(#SVGID_16_);}
	.st24{fill:url(#SVGID_17_);}
	.st25{fill:url(#SVGID_18_);}
	.st26{fill:url(#SVGID_19_);}
	.st27{fill:#CC2127;}
	.st28{fill:url(#SVGID_20_);}
	.st29{fill:url(#SVGID_21_);}
</style>
<g>
	<path class="st11" d="M30.56,24.28c0,3.47-2.81,6.28-6.28,6.28h-18C2.81,30.56,0,27.75,0,24.28v-18C0,2.81,2.81,0,6.28,0h18
		c3.47,0,6.28,2.81,6.28,6.28V24.28z"/>
	<path class="st1" d="M17.63,4.68c-0.35,0-0.71,0-1.06,0c-0.01,0-0.02,0-0.02,0c-0.36,0.01-0.6,0.21-0.68,0.56
		c-0.1,0.47-0.19,0.93-0.28,1.4c-0.04,0.19-0.04,0.19-0.22,0.19c-0.07,0-0.13,0.02-0.2,0.02C14.43,6.91,13.7,7.08,13,7.37
		c-0.87,0.36-1.62,0.88-2.18,1.66c-0.71,1-0.92,2.13-0.79,3.35c0.1,0.91,0.47,1.69,1.08,2.34c0.59,0.63,1.31,1.07,2.09,1.41
		c0.79,0.34,1.59,0.64,2.38,0.96c0.46,0.18,0.92,0.37,1.33,0.65c0.4,0.27,0.63,0.64,0.63,1.14c-0.01,0.55-0.23,0.99-0.66,1.31
		c-0.57,0.42-1.23,0.54-1.9,0.56c-0.37,0.01-0.74-0.03-1.1-0.07c-0.67-0.08-1.3-0.3-1.9-0.61c-0.53-0.28-1-0.64-1.42-1.06
		c-0.27-0.26-0.63-0.28-0.88-0.02c-0.43,0.43-0.86,0.87-1.28,1.32c-0.26,0.28-0.24,0.67,0.02,0.94c0.52,0.54,1.12,0.98,1.77,1.34
		c0.55,0.31,1.13,0.55,1.73,0.73c0.09,0.03,0.11,0.06,0.09,0.16C11.9,24,11.8,24.52,11.7,25.03c-0.09,0.44,0.2,0.82,0.64,0.82
		c0.72,0.01,1.44,0.02,2.16,0.02c0.38,0,0.61-0.19,0.7-0.56c0.01-0.06,0.03-0.12,0.04-0.17c0.08-0.43,0.17-0.86,0.25-1.29
		c0.01-0.07,0.03-0.12,0.12-0.13c0.32-0.03,0.64-0.07,0.96-0.13c0.87-0.16,1.71-0.43,2.46-0.92c1.75-1.15,2.49-2.8,2.26-4.91
		c-0.1-0.94-0.55-1.7-1.22-2.32c-0.65-0.6-1.41-1.02-2.21-1.36c-0.76-0.32-1.53-0.6-2.3-0.9c-0.47-0.18-0.94-0.38-1.35-0.7
		c-0.63-0.5-0.75-1.32-0.29-1.93c0.23-0.3,0.54-0.46,0.88-0.58c0.73-0.25,1.47-0.25,2.21-0.12c1.18,0.2,2.23,0.69,3.13,1.51
		c0.27,0.25,0.61,0.23,0.87-0.04c0.38-0.4,0.76-0.8,1.13-1.21c0.28-0.3,0.25-0.74-0.05-1.01c-0.88-0.78-1.87-1.37-2.98-1.77
		c-0.09-0.03-0.11-0.08-0.09-0.17c0.11-0.54,0.22-1.07,0.33-1.61c0.11-0.51-0.18-0.87-0.68-0.88C18.33,4.68,17.98,4.68,17.63,4.68z"
		/>
</g>
</svg>
