<?xml version="1.0" encoding="utf-8"?>
<!-- Generator: Adobe Illustrator 23.0.2, SVG Export Plug-In . SVG Version: 6.00 Build 0)  -->
<svg version="1.1" id="Layer_1" xmlns="http://www.w3.org/2000/svg" xmlns:xlink="http://www.w3.org/1999/xlink" x="0px" y="0px"
	 viewBox="0 0 30.56 30.56" style="enable-background:new 0 0 30.56 30.56;" xml:space="preserve">
<style type="text/css">
	.st0{fill:url(#SVGID_1_);}
	.st1{fill:#FFFFFF;}
	.st2{fill:url(#SVGID_2_);}
	.st3{fill:url(#SVGID_3_);}
	.st4{fill:url(#SVGID_4_);}
	.st5{fill:url(#SVGID_5_);}
	.st6{fill:url(#SVGID_6_);}
	.st7{fill:url(#SVGID_7_);}
	.st8{fill:url(#SVGID_8_);}
	.st9{fill:#020202;}
	.st10{fill:url(#SVGID_9_);}
	.st11{fill:#00D632;}
	.st12{fill:#007BB5;}
	.st13{fill:#1DA1F2;}
	.st14{fill:#4A85FF;}
	.st15{fill:url(#SVGID_10_);}
	.st16{fill:#FF0B53;}
	.st17{fill:#00F0E9;}
	.st18{fill:url(#SVGID_11_);}
	.st19{fill:url(#SVGID_12_);}
	.st20{fill:url(#SVGID_13_);}
	.st21{fill:url(#SVGID_14_);}
	.st22{fill:url(#SVGID_15_);}
	.st23{fill:url(#SVGID_16_);}
	.st24{fill:url(#SVGID_17_);}
	.st25{fill:url(#SVGID_18_);}
	.st26{fill:url(#SVGID_19_);}
	.st27{fill:#CC2127;}
	.st28{fill:url(#SVGID_20_);}
	.st29{fill:url(#SVGID_21_);}
</style>
<g>
	<radialGradient id="SVGID_1_" cx="15.5102" cy="37.4263" r="41.154" gradientUnits="userSpaceOnUse">
		<stop  offset="0" style="stop-color:#19DEFE"/>
		<stop  offset="0.301" style="stop-color:#19DFFE"/>
		<stop  offset="1" style="stop-color:#1E5AEF"/>
	</radialGradient>
	<path class="st0" d="M30.56,24.28c0,3.47-2.81,6.28-6.28,6.28h-18C2.81,30.56,0,27.75,0,24.28v-18C0,2.81,2.81,0,6.28,0h18
		c3.47,0,6.28,2.81,6.28,6.28V24.28z"/>
	<g>
		<path class="st1" d="M26.04,7.94c-0.48,0.48-0.89,0.88-1.3,1.29c-2.69,2.68-5.38,5.36-8.07,8.04c-0.84,0.83-1.9,0.88-2.73,0.05
			c-3.09-3.06-6.17-6.13-9.25-9.2C4.66,8.08,4.63,8.04,4.56,7.94C4.8,7.91,5,7.85,5.2,7.85c6.72,0,13.45,0,20.17,0
			C25.56,7.85,25.75,7.9,26.04,7.94z"/>
		<path class="st1" d="M26.06,22.62c-0.37,0.13-21.27,0.11-21.6-0.04c2.25-2.28,4.52-4.58,6.86-6.96c0.18,0.22,0.34,0.43,0.53,0.62
			c0.62,0.62,1.23,1.26,1.88,1.85c0.99,0.89,2.24,0.86,3.19-0.08c0.78-0.77,1.53-1.56,2.32-2.36C21.54,18,23.81,20.32,26.06,22.62z"
			/>
		<path class="st1" d="M26.64,21.98c-2.27-2.29-4.45-4.51-6.6-6.68c2.15-2.19,4.34-4.42,6.59-6.71c0.03,0.29,0.08,0.5,0.08,0.7
			c0,3.99,0,7.99,0,11.98C26.71,21.48,26.67,21.68,26.64,21.98z"/>
		<path class="st1" d="M3.94,8.62c2.22,2.24,4.42,4.45,6.6,6.64c-2.17,2.19-4.38,4.41-6.59,6.63C3.82,21.56,3.79,9.15,3.94,8.62z"/>
	</g>
</g>
</svg>
