<?xml version="1.0" encoding="utf-8"?>
<!-- Generator: Adobe Illustrator 23.0.2, SVG Export Plug-In . SVG Version: 6.00 Build 0)  -->
<svg version="1.1" id="Layer_1" xmlns="http://www.w3.org/2000/svg" xmlns:xlink="http://www.w3.org/1999/xlink" x="0px" y="0px"
	 viewBox="0 0 30.56 30.56" style="enable-background:new 0 0 30.56 30.56;" xml:space="preserve">
<style type="text/css">
	.st0{fill:url(#SVGID_1_);}
	.st1{fill:#FFFFFF;}
	.st2{fill:url(#SVGID_2_);}
	.st3{fill:url(#SVGID_3_);}
	.st4{fill:url(#SVGID_4_);}
	.st5{fill:url(#SVGID_5_);}
	.st6{fill:url(#SVGID_6_);}
	.st7{fill:url(#SVGID_7_);}
	.st8{fill:url(#SVGID_8_);}
	.st9{fill:#020202;}
	.st10{fill:url(#SVGID_9_);}
	.st11{fill:#00D632;}
	.st12{fill:#007BB5;}
	.st13{fill:#1DA1F2;}
	.st14{fill:#4A85FF;}
	.st15{fill:url(#SVGID_10_);}
	.st16{fill:#FF0B53;}
	.st17{fill:#00F0E9;}
	.st18{fill:url(#SVGID_11_);}
	.st19{fill:url(#SVGID_12_);}
	.st20{fill:url(#SVGID_13_);}
	.st21{fill:url(#SVGID_14_);}
	.st22{fill:url(#SVGID_15_);}
	.st23{fill:url(#SVGID_16_);}
	.st24{fill:url(#SVGID_17_);}
	.st25{fill:url(#SVGID_18_);}
	.st26{fill:url(#SVGID_19_);}
	.st27{fill:#CC2127;}
	.st28{fill:url(#SVGID_20_);}
	.st29{fill:url(#SVGID_21_);}
</style>
<g>
	<linearGradient id="SVGID_1_" gradientUnits="userSpaceOnUse" x1="15.2781" y1="30.5093" x2="15.2781" y2="1.5414">
		<stop  offset="0" style="stop-color:#2596E0"/>
		<stop  offset="0.9296" style="stop-color:#25A9E0"/>
	</linearGradient>
	<path class="st0" d="M30.56,24.28c0,3.47-2.81,6.28-6.28,6.28h-18C2.81,30.56,0,27.75,0,24.28v-18C0,2.81,2.81,0,6.28,0h18
		c3.47,0,6.28,2.81,6.28,6.28V24.28z"/>
	<g>
		<path class="st1" d="M6.39,8.06c0-0.07,0-0.16,0-0.24c0-0.78,0-1.56,0-2.34c0-0.58,0.29-0.88,0.87-0.88c3.81,0,7.63,0,11.44,0
			c0.9,0,1.8,0,2.71,0c0.6,0,0.89,0.29,0.89,0.88c0,1.44,0,2.87,0,4.31c0,0.09,0,0.18,0,0.27c1.22,0.14,1.9,0.82,2.07,2.03
			c0.32,0,0.62,0,0.93,0c0.51,0,0.96,0.15,1.36,0.46c0.57,0.44,0.73,1.03,0.56,1.7c-0.79,3.1-1.61,6.2-2.41,9.31
			c-0.03,0.13-0.08,0.26-0.1,0.4c-0.23,1.29-1.43,1.91-2.32,1.94c-1.05,0.04-2.11,0.03-3.16,0.03c-4.17,0-8.35-0.02-12.52,0.01
			c-1.44,0.01-2.42-1.17-2.42-2.42c0.01-2.81,0-5.61,0-8.42c0-1.51,0-3.01,0-4.52c0-1.39,0.67-2.21,2.02-2.5
			C6.33,8.09,6.35,8.08,6.39,8.06z M14.31,24.47c1.91,0,3.82,0,5.73,0c0.74,0,1.48,0,2.22-0.03c0.46-0.02,0.9-0.38,1-0.77
			c0.84-3.21,1.67-6.42,2.51-9.63c0.08-0.31-0.02-0.46-0.35-0.46c-1.95,0-3.9,0-5.85,0c-0.17,0-0.32,0.06-0.39,0.23
			c-0.34,0.88-1.04,1.2-1.91,1.23c-0.56,0.02-1.12,0-1.67,0c-2.14,0-4.28,0-6.42,0c-0.5,0-0.8,0.23-0.94,0.71
			c-0.04,0.15-0.08,0.3-0.12,0.46c-0.67,2.56-1.34,5.12-2.01,7.68c-0.11,0.41-0.05,0.5,0.38,0.57c0.07,0.01,0.15,0.01,0.23,0.01
			C9.26,24.47,11.78,24.47,14.31,24.47z M7.86,6.09c0,2.62,0,5.22,0,7.84c0.05-0.02,0.09-0.04,0.13-0.06c0.39-0.2,0.8-0.3,1.25-0.3
			c1.7,0.01,3.39,0,5.09,0c0.94,0,1.88,0.01,2.82,0c0.21,0,0.48,0.01,0.56-0.26c0.23-0.76,1.1-1.21,1.72-1.2
			c0.36,0,0.72-0.01,1.08,0c0.19,0.01,0.24-0.06,0.24-0.25c-0.01-1.84,0-3.68,0-5.53c0-0.08,0-0.15,0-0.25
			C16.44,6.09,12.16,6.09,7.86,6.09z M5.75,19.34c0.05-0.1,0.07-0.14,0.09-0.19c0.09-0.36,0.19-0.73,0.28-1.09
			c0.1-0.4,0.26-0.8,0.26-1.21c0.03-2.31,0.01-4.63,0.01-6.94c0-0.07,0-0.15,0-0.22C6.35,9.68,6.33,9.68,6.32,9.68
			C6.29,9.69,6.26,9.7,6.24,9.71C5.9,9.9,5.75,10.19,5.75,10.57c0,1.1,0,2.2,0,3.3C5.75,15.67,5.75,17.48,5.75,19.34z M22.31,11.57
			c0,0.16,0,0.32,0,0.51c0.13,0,0.25,0,0.37,0c0.05,0,0.1-0.01,0.15-0.01C22.81,11.78,22.63,11.61,22.31,11.57z"/>
		<path class="st1" d="M10.89,10.21c0-0.48,0-0.95,0-1.43c2.28,0,4.56,0,6.85,0c0,0.48,0,0.95,0,1.43
			C15.46,10.21,13.19,10.21,10.89,10.21z"/>
	</g>
</g>
</svg>
