<?xml version="1.0" encoding="utf-8"?>
<!-- Generator: Adobe Illustrator 23.0.2, SVG Export Plug-In . SVG Version: 6.00 Build 0)  -->
<svg version="1.1" id="Layer_1" xmlns="http://www.w3.org/2000/svg" xmlns:xlink="http://www.w3.org/1999/xlink" x="0px" y="0px"
	 viewBox="0 0 30.56 30.56" style="enable-background:new 0 0 30.56 30.56;" xml:space="preserve">
<style type="text/css">
	.st0{fill:url(#SVGID_1_);}
	.st1{fill:#FFFFFF;}
	.st2{fill:url(#SVGID_2_);}
	.st3{fill:url(#SVGID_3_);}
	.st4{fill:url(#SVGID_4_);}
	.st5{fill:url(#SVGID_5_);}
	.st6{fill:url(#SVGID_6_);}
	.st7{fill:url(#SVGID_7_);}
	.st8{fill:url(#SVGID_8_);}
	.st9{fill:#020202;}
	.st10{fill:url(#SVGID_9_);}
	.st11{fill:#00D632;}
	.st12{fill:#007BB5;}
	.st13{fill:#1DA1F2;}
	.st14{fill:#4A85FF;}
	.st15{fill:url(#SVGID_10_);}
	.st16{fill:#FF0B53;}
	.st17{fill:#00F0E9;}
	.st18{fill:url(#SVGID_11_);}
	.st19{fill:url(#SVGID_12_);}
	.st20{fill:url(#SVGID_13_);}
	.st21{fill:url(#SVGID_14_);}
	.st22{fill:url(#SVGID_15_);}
	.st23{fill:url(#SVGID_16_);}
	.st24{fill:url(#SVGID_17_);}
	.st25{fill:url(#SVGID_18_);}
	.st26{fill:url(#SVGID_19_);}
	.st27{fill:#CC2127;}
	.st28{fill:url(#SVGID_20_);}
	.st29{fill:url(#SVGID_21_);}
</style>
<g>
	<radialGradient id="SVGID_1_" cx="8.9508" cy="32.9224" r="40.4915" gradientUnits="userSpaceOnUse">
		<stop  offset="0.0969" style="stop-color:#FFD879"/>
		<stop  offset="0.1539" style="stop-color:#FCCB76"/>
		<stop  offset="0.2583" style="stop-color:#F5AA6C"/>
		<stop  offset="0.3976" style="stop-color:#E9755E"/>
		<stop  offset="0.449" style="stop-color:#E45F58"/>
		<stop  offset="0.6786" style="stop-color:#D22A9C"/>
		<stop  offset="1" style="stop-color:#6968DF"/>
	</radialGradient>
	<path class="st0" d="M30.56,24.28c0,3.47-2.81,6.28-6.28,6.28h-18C2.81,30.56,0,27.75,0,24.28v-18C0,2.81,2.81,0,6.28,0h18
		c3.47,0,6.28,2.81,6.28,6.28V24.28z"/>
	<g>
		<path class="st1" d="M19.7,3.76h-8.84c-3.92,0-7.1,3.18-7.1,7.1v8.84c0,3.92,3.18,7.1,7.1,7.1h8.84c3.92,0,7.1-3.18,7.1-7.1v-8.84
			C26.8,6.93,23.62,3.76,19.7,3.76z M24.59,18.85c0,3.17-2.57,5.74-5.74,5.74H11.7c-3.17,0-5.74-2.57-5.74-5.74V11.7
			c0-3.17,2.57-5.74,5.74-5.74h7.15c3.17,0,5.74,2.57,5.74,5.74V18.85z"/>
		<path class="st1" d="M15.59,9.25c-3.35,0-6.07,2.72-6.07,6.07c0,3.35,2.72,6.07,6.07,6.07c3.35,0,6.07-2.72,6.07-6.07
			C21.66,11.96,18.94,9.25,15.59,9.25z M15.59,18.97c-2.02,0-3.65-1.64-3.65-3.65c0-2.02,1.63-3.65,3.65-3.65
			c2.02,0,3.65,1.63,3.65,3.65C19.24,17.33,17.6,18.97,15.59,18.97z"/>
		<path class="st1" d="M22.78,9.15c0,0.85-0.69,1.54-1.54,1.54c-0.85,0-1.54-0.69-1.54-1.54c0-0.85,0.69-1.54,1.54-1.54
			C22.09,7.61,22.78,8.3,22.78,9.15z"/>
	</g>
</g>
</svg>
