<?xml version="1.0" encoding="utf-8"?>
<!-- Generator: Adobe Illustrator 23.0.2, SVG Export Plug-In . SVG Version: 6.00 Build 0)  -->
<svg version="1.1" id="Layer_1" xmlns="http://www.w3.org/2000/svg" xmlns:xlink="http://www.w3.org/1999/xlink" x="0px" y="0px"
	 viewBox="0 0 30.56 30.56" style="enable-background:new 0 0 30.56 30.56;" xml:space="preserve">
<style type="text/css">
	.st0{fill:url(#SVGID_1_);}
	.st1{fill:#FFFFFF;}
	.st2{fill:url(#SVGID_2_);}
	.st3{fill:url(#SVGID_3_);}
	.st4{fill:url(#SVGID_4_);}
	.st5{fill:url(#SVGID_5_);}
	.st6{fill:url(#SVGID_6_);}
	.st7{fill:url(#SVGID_7_);}
	.st8{fill:url(#SVGID_8_);}
	.st9{fill:#020202;}
	.st10{fill:url(#SVGID_9_);}
	.st11{fill:#00D632;}
	.st12{fill:#007BB5;}
	.st13{fill:#1DA1F2;}
	.st14{fill:#4A85FF;}
	.st15{fill:url(#SVGID_10_);}
	.st16{fill:#FF0B53;}
	.st17{fill:#00F0E9;}
	.st18{fill:url(#SVGID_11_);}
	.st19{fill:url(#SVGID_12_);}
	.st20{fill:url(#SVGID_13_);}
	.st21{fill:url(#SVGID_14_);}
	.st22{fill:url(#SVGID_15_);}
	.st23{fill:url(#SVGID_16_);}
	.st24{fill:url(#SVGID_17_);}
	.st25{fill:url(#SVGID_18_);}
	.st26{fill:url(#SVGID_19_);}
	.st27{fill:#CC2127;}
	.st28{fill:url(#SVGID_20_);}
	.st29{fill:url(#SVGID_21_);}
</style>
<linearGradient id="SVGID_1_" gradientUnits="userSpaceOnUse" x1="15.2781" y1="30.5093" x2="15.2781" y2="1.5414">
	<stop  offset="0" style="stop-color:#2596E0"/>
	<stop  offset="0.9296" style="stop-color:#25A9E0"/>
</linearGradient>
<path class="st0" d="M30.56,24.28c0,3.47-2.81,6.28-6.28,6.28h-18C2.81,30.56,0,27.75,0,24.28v-18C0,2.81,2.81,0,6.28,0h18
	c3.47,0,6.28,2.81,6.28,6.28V24.28z"/>
<g>
	<path class="st1" d="M13.69,15.07c0.16,0.47,0.38,0.85,0.7,1.17c0.98,0.96,2.64,0.98,3.61,0.02c1.29-1.27,2.58-2.55,3.84-3.85
		c0.72-0.75,0.91-1.67,0.57-2.65c-0.34-0.97-1.04-1.56-2.06-1.73c-0.9-0.15-1.68,0.14-2.32,0.78c-0.4,0.39-0.78,0.79-1.18,1.18
		c-0.05,0.04-0.15,0.08-0.2,0.06c-1.05-0.37-2.12-0.49-3.24-0.33c0.03-0.04,0.04-0.07,0.06-0.09c0.95-0.95,1.88-1.93,2.86-2.84
		c1.54-1.42,3.37-1.82,5.35-1.14c1.96,0.68,3.14,2.11,3.47,4.15c0.29,1.77-0.24,3.31-1.5,4.59c-1.26,1.27-2.53,2.54-3.8,3.8
		c-1.99,1.97-5.38,1.92-7.35-0.11c-0.27-0.28-0.48-0.61-0.72-0.92c-0.08-0.1-0.07-0.17,0.02-0.26c0.53-0.52,1.05-1.05,1.58-1.57
		C13.45,15.23,13.56,15.17,13.69,15.07z"/>
	<path class="st1" d="M16.87,15.48c-0.03-0.08-0.05-0.13-0.07-0.18c-0.65-1.76-2.86-2.31-4.22-1.03c-1.02,0.95-1.98,1.96-2.97,2.94
		c-0.28,0.28-0.56,0.55-0.83,0.83c-1.05,1.09-1.06,2.72-0.02,3.75c1.04,1.04,2.67,1.02,3.75-0.04c0.4-0.39,0.79-0.8,1.2-1.19
		c0.05-0.05,0.16-0.08,0.22-0.06c1.03,0.36,2.08,0.48,3.16,0.33c0.01,0,0.03,0,0.05,0.01c-0.02,0.03-0.02,0.05-0.04,0.07
		c-0.96,0.96-1.89,1.94-2.88,2.86c-1.52,1.4-3.32,1.8-5.27,1.16c-1.95-0.64-3.15-2.04-3.52-4.06c-0.33-1.78,0.17-3.35,1.43-4.65
		c1.28-1.31,2.56-2.62,3.89-3.88c2.38-2.26,6.28-1.75,8.01,1.01c0.09,0.15,0.09,0.23-0.04,0.36c-0.52,0.5-1.03,1.02-1.55,1.53
		C17.09,15.33,16.98,15.39,16.87,15.48z"/>
</g>
</svg>
