<?xml version="1.0" encoding="utf-8"?>
<!-- Generator: Adobe Illustrator 23.0.2, SVG Export Plug-In . SVG Version: 6.00 Build 0)  -->
<svg version="1.1" id="Layer_1" xmlns="http://www.w3.org/2000/svg" xmlns:xlink="http://www.w3.org/1999/xlink" x="0px" y="0px"
	 viewBox="0 0 264 66.5" style="enable-background:new 0 0 264 66.5;" xml:space="preserve">
<style type="text/css">
	.st0{fill:#00ADEE;}
	.st1{fill-rule:evenodd;clip-rule:evenodd;fill:#00ADEE;}
	.st2{fill-rule:evenodd;clip-rule:evenodd;}
</style>
<g>
	<g>
		<path d="M103.34,47.31V25.45h-3.7l-4.99,11.82l-5.02-11.82h-3.7v21.86h3.75V34.57l3.7,8.29h2.54l3.67-8.29v12.74H103.34
			L103.34,47.31z M118.62,31.31h-3.7l-2.81,9.89l-2.92-9.89h-3.7l4.8,14.86l-0.59,1.96c-0.35,1.17-0.76,1.44-1.76,1.44h-0.81v3.59
			h1.38c1.16,0,2.21-0.31,3.02-1.23c0.43-0.49,0.76-1.17,1.05-2.06L118.62,31.31L118.62,31.31z M220.8,40.59H217
			c-0.4,1.87-1.43,3.1-3.24,3.1c-1.02,0-1.84-0.37-2.4-1.14c-0.78-0.95-0.94-1.93-0.94-6.17c0-4.24,0.16-5.22,0.94-6.17
			c0.57-0.77,1.38-1.14,2.4-1.14c1.81,0,2.83,1.23,3.24,3.1h3.81c-0.65-4.45-3.37-6.91-7.07-6.91c-2.05,0-3.78,0.8-5.18,2.39
			c-0.84,0.95-1.35,2.03-1.56,3.29c-0.22,1.23-0.32,3.04-0.32,5.43c0,2.39,0.11,4.21,0.32,5.43c0.22,1.23,0.73,2.33,1.56,3.28
			c1.4,1.6,3.13,2.4,5.18,2.4C217.4,47.49,220.15,45.04,220.8,40.59L220.8,40.59z M234.22,47.31V36.78c0-3.75-2.05-5.65-5.99-5.65
			c-2.35,0-3.7,0.49-5.07,2.21l2.24,2.49c0.73-0.95,1.35-1.32,2.7-1.32c1.86,0,2.62,0.77,2.62,2.52v0.8h-3.32
			c-3.27,0-4.8,2.09-4.8,4.64c0,1.41,0.4,2.7,1.16,3.59c0.84,0.95,2,1.41,3.59,1.41c1.62,0,2.51-0.46,3.45-1.53v1.38L234.22,47.31
			L234.22,47.31L234.22,47.31z M230.71,41.41c0,0.98-0.13,1.63-0.51,2.03c-0.62,0.67-1.24,0.77-2.21,0.77
			c-1.38,0-2.02-0.74-2.02-1.84c0-1.14,0.7-1.81,1.97-1.81h2.78L230.71,41.41L230.71,41.41L230.71,41.41z M247.82,32.63
			c-0.97-1.11-1.94-1.5-3.32-1.5c-1.51,0-2.86,0.8-3.53,1.72v-1.54h-3.43v15.99h3.51v-9.64c0-2.03,1.19-2.95,2.27-2.95
			c0.86,0,1.32,0.34,1.86,0.95L247.82,32.63L247.82,32.63L247.82,32.63z M260,47.31V25.45h-3.51v7.28c-0.92-1.17-2-1.6-3.43-1.6
			c-1.38,0-2.64,0.55-3.43,1.44c-1.4,1.6-1.43,4.33-1.43,6.72c0,2.4,0.03,5.16,1.43,6.75c0.78,0.89,2.08,1.44,3.46,1.44
			c1.48,0,2.51-0.46,3.48-1.69v1.5L260,47.31L260,47.31L260,47.31z M256.49,39.3c0,2.61-0.3,4.61-2.4,4.61c-2.11,0-2.38-2-2.38-4.61
			c0-2.61,0.27-4.57,2.38-4.57C256.19,34.72,256.49,36.69,256.49,39.3z"/>
		<path class="st0" d="M134.01,40.86c0-1.93-0.46-3.53-1.48-4.64c-0.81-0.86-1.92-1.41-3.67-1.69l-2.27-0.37
			c-0.78-0.12-1.4-0.46-1.78-0.86c-0.4-0.43-0.57-1.01-0.57-1.57c0-1.5,0.97-2.76,2.97-2.76c1.27,0,2.73,0.18,3.94,1.5l2.37-2.67
			c-1.65-1.81-3.56-2.55-6.21-2.55c-4.16,0-6.69,2.73-6.69,6.63c0,1.84,0.46,3.26,1.38,4.3c0.86,0.95,2.08,1.53,3.72,1.81l2.32,0.37
			c0.89,0.15,1.32,0.37,1.7,0.77c0.4,0.43,0.59,1.07,0.59,1.84c0,1.75-1.19,2.7-3.4,2.7c-1.78,0-3.43-0.46-4.64-1.84l-2.43,2.76
			c1.89,2.18,4.1,2.89,7.02,2.89C130.91,47.49,134.01,45.1,134.01,40.86L134.01,40.86L134.01,40.86z M148.67,47.31V36.96
			c0-3.38-1.62-5.83-4.7-5.83c-1.24,0-2.43,0.55-3.37,1.66v-7.34h-3.51v21.86h3.51v-9.76c0-2.09,1.16-2.82,2.27-2.82
			s2.29,0.71,2.29,2.82v9.76H148.67z M162.9,47.31V36.78c0-3.75-2.05-5.65-5.99-5.65c-2.35,0-3.7,0.49-5.07,2.21l2.24,2.49
			c0.73-0.95,1.35-1.32,2.7-1.32c1.86,0,2.62,0.77,2.62,2.52v0.8h-3.32c-3.27,0-4.8,2.09-4.8,4.64c0,1.41,0.41,2.7,1.16,3.59
			c0.84,0.95,2,1.41,3.59,1.41c1.62,0,2.51-0.46,3.46-1.53v1.38L162.9,47.31L162.9,47.31z M159.39,41.41c0,0.98-0.14,1.63-0.51,2.03
			c-0.62,0.67-1.24,0.77-2.21,0.77c-1.38,0-2.02-0.74-2.02-1.84c0-1.14,0.7-1.81,1.97-1.81h2.78V41.41L159.39,41.41z M176.77,32.63
			c-0.97-1.11-1.94-1.5-3.32-1.5c-1.51,0-2.86,0.8-3.53,1.72v-1.54h-3.43v15.99H170v-9.64c0-2.03,1.19-2.95,2.27-2.95
			c0.86,0,1.32,0.34,1.86,0.95L176.77,32.63L176.77,32.63z M189.3,40.55v-1.78c0-4.39-2.21-7.64-6.13-7.64
			c-3.64,0-6.13,2.95-6.13,8.17c0,6.48,3.18,8.2,6.5,8.2c2.54,0,3.91-0.89,5.34-2.52l-2.13-2.36c-0.89,1.01-1.65,1.5-3.18,1.5
			c-1.97,0-3.08-1.5-3.08-3.56L189.3,40.55L189.3,40.55L189.3,40.55z M185.84,37.82h-5.34c0.03-0.71,0.11-1.14,0.32-1.72
			c0.38-0.95,1.16-1.66,2.35-1.66c1.19,0,1.97,0.71,2.35,1.66C185.74,36.69,185.82,37.12,185.84,37.82L185.84,37.82L185.84,37.82z
			 M203.55,47.31V25.45h-3.51v7.28c-0.92-1.17-2-1.6-3.43-1.6c-1.38,0-2.64,0.55-3.43,1.44c-1.4,1.6-1.43,4.33-1.43,6.72
			c0,2.4,0.03,5.16,1.43,6.75c0.78,0.89,2.08,1.44,3.46,1.44c1.48,0,2.51-0.46,3.48-1.69v1.5L203.55,47.31L203.55,47.31
			L203.55,47.31z M200.04,39.3c0,2.61-0.3,4.61-2.4,4.61c-2.1,0-2.37-2-2.37-4.61c0-2.61,0.27-4.57,2.37-4.57
			C199.75,34.72,200.04,36.69,200.04,39.3z"/>
	</g>
	<g>
		<polygon class="st1" points="60.47,49.73 59.41,51.99 11.08,51.99 11.08,46.66 7.54,50.78 4,54.89 7.54,59.01 11.08,63.13 
			11.08,57.78 61.45,57.78 64.91,49.73 		"/>
		<polygon class="st2" points="24.18,19.33 75.34,19.46 75.34,24.81 65.73,47.17 14.57,47.17 14.57,41.7 		"/>
		<polygon class="st1" points="29.44,16.77 30.5,14.51 78.83,14.51 78.83,19.84 82.37,15.72 85.91,11.61 82.37,7.49 78.83,3.37 
			78.83,8.72 28.46,8.72 25,16.77 		"/>
	</g>
</g>
</svg>
