<?xml version="1.0" encoding="utf-8"?>
<!-- Generator: Adobe Illustrator 23.0.2, SVG Export Plug-In . SVG Version: 6.00 Build 0)  -->
<svg version="1.1" id="Layer_1" xmlns="http://www.w3.org/2000/svg" xmlns:xlink="http://www.w3.org/1999/xlink" x="0px" y="0px"
	 viewBox="0 0 30.56 30.56" style="enable-background:new 0 0 30.56 30.56;" xml:space="preserve">
<style type="text/css">
	.st0{fill:url(#SVGID_1_);}
	.st1{fill:#FFFFFF;}
	.st2{fill:url(#SVGID_2_);}
	.st3{fill:url(#SVGID_3_);}
	.st4{fill:url(#SVGID_4_);}
	.st5{fill:url(#SVGID_5_);}
	.st6{fill:url(#SVGID_6_);}
	.st7{fill:url(#SVGID_7_);}
	.st8{fill:url(#SVGID_8_);}
	.st9{fill:#020202;}
	.st10{fill:url(#SVGID_9_);}
	.st11{fill:#00D632;}
	.st12{fill:#007BB5;}
	.st13{fill:#1DA1F2;}
	.st14{fill:#4A85FF;}
	.st15{fill:url(#SVGID_10_);}
	.st16{fill:#FF0B53;}
	.st17{fill:#00F0E9;}
	.st18{fill:url(#SVGID_11_);}
	.st19{fill:url(#SVGID_12_);}
	.st20{fill:url(#SVGID_13_);}
	.st21{fill:url(#SVGID_14_);}
	.st22{fill:url(#SVGID_15_);}
	.st23{fill:url(#SVGID_16_);}
	.st24{fill:url(#SVGID_17_);}
	.st25{fill:url(#SVGID_18_);}
	.st26{fill:url(#SVGID_19_);}
	.st27{fill:#CC2127;}
	.st28{fill:url(#SVGID_20_);}
	.st29{fill:url(#SVGID_21_);}
</style>
<g>
	<linearGradient id="SVGID_1_" gradientUnits="userSpaceOnUse" x1="2.8906" y1="0.7951" x2="28.0156" y2="30.1701">
		<stop  offset="0" style="stop-color:#234B8E"/>
		<stop  offset="0.63" style="stop-color:#1C78B7"/>
		<stop  offset="1" style="stop-color:#1892CF"/>
	</linearGradient>
	<path class="st0" d="M30.56,24.28c0,3.47-2.81,6.28-6.28,6.28h-18C2.81,30.56,0,27.75,0,24.28v-18C0,2.81,2.81,0,6.28,0h18
		c3.47,0,6.28,2.81,6.28,6.28V24.28z"/>
	<g>
		<path class="st1" d="M23.01,8.18c-0.25-2.07-1.38-3.46-3.29-4.24c-0.36-0.15-0.74-0.22-1.12-0.27c-0.34-0.04-0.69-0.05-1.03-0.05
			c-0.01,0-0.01,0-0.02,0c-2.46,0-4.93,0-7.39,0c-1.36,0-1.61,0.22-1.83,1.54c-0.8,4.79-1.61,9.59-2.42,14.38
			c-0.19,1.1-0.38,2.21-0.53,3.32c-0.03,0.24-0.04,0.42-0.01,0.58l-0.02,0.01c0,0-0.26,0.99,1.27,0.99c1.53,0,3.43,0.43,3.66-0.22
			l0.14-0.21l1.44-7.37l0,0c0.08,0.08,2.58,0.08,3.66-0.05c0.7-0.09,1.38-0.16,2.05-0.39c2.34-0.82,3.94-2.32,4.74-4.56l0.01,0
			c0,0,0.45-1.09,0.71-2.36c-0.02-0.13-0.02-0.27,0-0.43C23.08,8.63,23.04,8.4,23.01,8.18z"/>
		
			<linearGradient id="SVGID_2_" gradientUnits="userSpaceOnUse" x1="36.241" y1="-12.87" x2="51.5227" y2="-12.87" gradientTransform="matrix(0.941 0.0456 -0.0445 0.9919 -24.0532 28.8877)">
			<stop  offset="0.0553" style="stop-color:#5F9BC9;stop-opacity:0.5"/>
			<stop  offset="1" style="stop-color:#5F9BC9;stop-opacity:0.5"/>
		</linearGradient>
		<path class="st2" d="M25.18,13.16c-0.18-1.76-1.11-2.95-2.7-3.63c-0.3-0.13-0.61-0.2-0.93-0.24c-0.28-0.04-0.57-0.05-0.86-0.05
			c-0.01,0-0.01,0-0.02,0c-2.06-0.03-4.12-0.06-6.17-0.08c-1.14-0.01-1.35,0.17-1.55,1.29c-0.72,4.06-1.45,8.11-2.18,12.17
			c-0.17,0.93-0.34,1.87-0.48,2.81c-0.03,0.2-0.03,0.36-0.02,0.49l-0.02,0.01c0,0-0.23,0.84,1.05,0.85c1.28,0.01,2.86,0.4,3.06-0.15
			l0.12-0.18l1.29-6.24l0,0c0.06,0.07,2.15,0.1,3.06-0.01c0.58-0.07,1.16-0.12,1.72-0.31c1.96-0.67,3.32-1.92,4.01-3.81l0.01,0
			c0,0,0.39-0.92,0.62-1.99c-0.01-0.11-0.01-0.23,0.01-0.36C25.24,13.55,25.2,13.35,25.18,13.16z"/>
	</g>
</g>
</svg>
