<?xml version="1.0" encoding="utf-8"?>
<!-- Generator: Adobe Illustrator 23.0.2, SVG Export Plug-In . SVG Version: 6.00 Build 0)  -->
<svg version="1.1" id="Layer_1" xmlns="http://www.w3.org/2000/svg" xmlns:xlink="http://www.w3.org/1999/xlink" x="0px" y="0px"
	 viewBox="0 0 30.56 30.56" style="enable-background:new 0 0 30.56 30.56;" xml:space="preserve">
<style type="text/css">
	.st0{fill:url(#SVGID_1_);}
	.st1{fill:#FFFFFF;}
	.st2{fill:url(#SVGID_2_);}
	.st3{fill:url(#SVGID_3_);}
	.st4{fill:url(#SVGID_4_);}
	.st5{fill:url(#SVGID_5_);}
	.st6{fill:url(#SVGID_6_);}
	.st7{fill:url(#SVGID_7_);}
	.st8{fill:url(#SVGID_8_);}
	.st9{fill:#020202;}
	.st10{fill:url(#SVGID_9_);}
	.st11{fill:#00D632;}
	.st12{fill:#007BB5;}
	.st13{fill:#1DA1F2;}
	.st14{fill:#4A85FF;}
	.st15{fill:url(#SVGID_10_);}
	.st16{fill:#FF0B53;}
	.st17{fill:#00F0E9;}
	.st18{fill:url(#SVGID_11_);}
	.st19{fill:url(#SVGID_12_);}
	.st20{fill:url(#SVGID_13_);}
	.st21{fill:url(#SVGID_14_);}
	.st22{fill:url(#SVGID_15_);}
	.st23{fill:url(#SVGID_16_);}
	.st24{fill:url(#SVGID_17_);}
	.st25{fill:url(#SVGID_18_);}
	.st26{fill:url(#SVGID_19_);}
	.st27{fill:#CC2127;}
	.st28{fill:url(#SVGID_20_);}
	.st29{fill:url(#SVGID_21_);}
</style>
<g>
	<radialGradient id="SVGID_1_" cx="15.5102" cy="37.4263" r="41.154" gradientUnits="userSpaceOnUse">
		<stop  offset="0" style="stop-color:#0CBD2A"/>
		<stop  offset="0.301" style="stop-color:#0FBF2D"/>
		<stop  offset="1" style="stop-color:#5BF675"/>
	</radialGradient>
	<path class="st0" d="M30.56,24.28c0,3.47-2.81,6.28-6.28,6.28h-18C2.81,30.56,0,27.75,0,24.28v-18C0,2.81,2.81,0,6.28,0h18
		c3.47,0,6.28,2.81,6.28,6.28V24.28z"/>
	<path class="st1" d="M20.49,25.41c0.04,0,0.09,0,0.14,0c1.15-0.05,2.19-0.46,3.16-1.04c0.51-0.3,0.97-0.68,1.21-1.25
		c0.25-0.58,0.39-1.2,0.42-1.83c0.02-0.34-0.08-0.59-0.39-0.76c-1.35-0.78-2.69-1.57-4.04-2.35c-0.31-0.18-0.62-0.17-0.9,0.07
		c-0.19,0.17-0.38,0.35-0.55,0.54c-0.46,0.5-0.91,1.02-1.36,1.53c-0.31,0.35-0.68,0.4-1.08,0.19c-0.35-0.18-0.7-0.39-1.04-0.59
		c-1.29-0.75-2.45-1.64-3.46-2.74c-0.99-1.08-1.76-2.31-2.47-3.58c-0.07-0.13-0.11-0.28-0.16-0.42c-0.07-0.22-0.03-0.43,0.13-0.6
		c0.24-0.25,0.49-0.5,0.74-0.74c0.48-0.44,0.99-0.85,1.45-1.32c0.3-0.31,0.28-0.63,0.06-1.01c-0.49-0.85-0.97-1.7-1.46-2.55
		c-0.27-0.47-0.56-0.94-0.84-1.41c-0.18-0.32-0.45-0.45-0.81-0.4c-0.26,0.03-0.53,0.05-0.79,0.1C7.47,5.42,6.68,5.88,6.19,6.78
		C5.95,7.21,5.73,7.66,5.55,8.12C5.18,9.04,5.01,10,5.25,10.97c0.19,0.79,0.45,1.57,0.71,2.35c0.35,1.06,0.83,2.06,1.41,3.01
		c0.92,1.5,2.05,2.84,3.31,4.06c1.24,1.2,2.58,2.26,4.09,3.11c1.09,0.61,2.26,1.02,3.43,1.45C18.95,25.23,19.7,25.39,20.49,25.41z"
		/>
</g>
</svg>
