<?xml version="1.0" encoding="utf-8"?>
<!-- Generator: Adobe Illustrator 23.0.2, SVG Export Plug-In . SVG Version: 6.00 Build 0)  -->
<svg version="1.1" id="Layer_1" xmlns="http://www.w3.org/2000/svg" xmlns:xlink="http://www.w3.org/1999/xlink" x="0px" y="0px"
	 viewBox="0 0 30.56 30.56" style="enable-background:new 0 0 30.56 30.56;" xml:space="preserve">
<style type="text/css">
	.st0{fill:url(#SVGID_1_);}
	.st1{fill:#FFFFFF;}
	.st2{fill:url(#SVGID_2_);}
	.st3{fill:url(#SVGID_3_);}
	.st4{fill:url(#SVGID_4_);}
	.st5{fill:url(#SVGID_5_);}
	.st6{fill:url(#SVGID_6_);}
	.st7{fill:url(#SVGID_7_);}
	.st8{fill:url(#SVGID_8_);}
	.st9{fill:#020202;}
	.st10{fill:url(#SVGID_9_);}
	.st11{fill:#00D632;}
	.st12{fill:#007BB5;}
	.st13{fill:#1DA1F2;}
	.st14{fill:#4A85FF;}
	.st15{fill:url(#SVGID_10_);}
	.st16{fill:#FF0B53;}
	.st17{fill:#00F0E9;}
	.st18{fill:url(#SVGID_11_);}
	.st19{fill:url(#SVGID_12_);}
	.st20{fill:url(#SVGID_13_);}
	.st21{fill:url(#SVGID_14_);}
	.st22{fill:url(#SVGID_15_);}
	.st23{fill:url(#SVGID_16_);}
	.st24{fill:url(#SVGID_17_);}
	.st25{fill:url(#SVGID_18_);}
	.st26{fill:url(#SVGID_19_);}
	.st27{fill:#CC2127;}
	.st28{fill:url(#SVGID_20_);}
	.st29{fill:url(#SVGID_21_);}
</style>
<g>
	<path class="st27" d="M30.56,24.28c0,3.47-2.81,6.28-6.28,6.28h-18C2.81,30.56,0,27.75,0,24.28v-18C0,2.81,2.81,0,6.28,0h18
		c3.47,0,6.28,2.81,6.28,6.28V24.28z"/>
	<path class="st1" d="M12.12,16.3c0.17,0.88,0.01,1.83-0.22,2.78c-0.25,1.06-0.5,2.13-0.75,3.19c-0.16,0.68-0.26,1.37-0.26,2.07
		c0,0.18,0,0.37-0.03,0.54c-0.04,0.28-0.28,0.41-0.54,0.28c-0.88-0.43-1.7-0.96-2.41-1.63C4.59,20.4,3.52,16.6,4.64,12.17
		c1.45-4.32,4.38-7.01,8.89-7.81c5.87-1.05,11.93,3.07,12.73,9.54c0.44,3.55-0.67,6.62-3.18,9.13c-2.67,2.66-5.89,3.77-9.65,3.17
		c-0.24-0.04-0.48-0.09-0.71-0.16c-0.33-0.09-0.44-0.3-0.27-0.63c0.62-1.17,0.94-2.43,1.27-3.7c0.02-0.06,0.03-0.12,0.04-0.18
		c0.15-0.45,0.35-0.55,0.74-0.29c0.43,0.29,0.88,0.54,1.4,0.64c1.25,0.25,2.42-0.02,3.51-0.63c1.57-0.88,2.48-2.29,3.01-3.97
		c0.39-1.24,0.48-2.51,0.28-3.78c-0.24-1.52-0.97-2.8-2.14-3.82c-1.18-1.03-2.56-1.6-4.12-1.75c-1.8-0.17-3.51,0.08-5.11,0.95
		c-1.97,1.08-3.09,2.77-3.46,4.97c-0.21,1.26-0.02,2.48,0.48,3.65c0.3,0.68,0.71,1.27,1.3,1.72c0.14,0.11,0.31,0.19,0.48,0.26
		c0.16,0.07,0.32,0.01,0.38-0.15c0.18-0.42,0.29-0.86,0.33-1.32c0.02-0.26-0.16-0.45-0.27-0.66c-0.85-1.53-0.84-3.08-0.08-4.63
		c0.73-1.49,1.97-2.37,3.58-2.69c1.15-0.22,2.3-0.16,3.39,0.34c1.57,0.72,2.43,1.98,2.64,3.67c0.15,1.23-0.02,2.43-0.49,3.57
		c-0.3,0.71-0.72,1.33-1.33,1.82c-0.5,0.39-1.06,0.59-1.68,0.64c-1.21,0.09-2.12-0.91-1.86-2.1c0.16-0.74,0.41-1.46,0.61-2.19
		c0.13-0.47,0.28-0.93,0.29-1.43c0.01-0.24,0.02-0.49-0.02-0.73c-0.16-0.94-0.98-1.43-1.9-1.16c-0.52,0.16-0.89,0.51-1.17,0.96
		c-0.34,0.56-0.48,1.18-0.46,1.83C12.07,15.59,12.1,15.9,12.12,16.3z"/>
</g>
</svg>
