<?xml version="1.0" encoding="utf-8"?>
<!-- Generator: Adobe Illustrator 23.0.2, SVG Export Plug-In . SVG Version: 6.00 Build 0)  -->
<svg version="1.1" id="Capa_1" xmlns="http://www.w3.org/2000/svg" xmlns:xlink="http://www.w3.org/1999/xlink" x="0px" y="0px"
	 viewBox="0 0 31.36 31.36" style="enable-background:new 0 0 31.36 31.36;" xml:space="preserve">
<style type="text/css">
	.st0{fill:#00ADEE;}
	.st1{fill-rule:evenodd;clip-rule:evenodd;fill:#FFFFFF;}
	.st2{fill:#FFFFFF;}
</style>
<g>
	<circle class="st0" cx="15.68" cy="15.68" r="15.68"/>
	<g>
		<path class="st2" d="M19.27,7.62c-2.01,0-4.03-0.01-6.04,0.01c-0.68,0-1.37,0.01-2.04,0.1C9.2,7.99,7.84,9.31,7.73,11.3
			c-0.12,2.27-0.08,4.54-0.08,6.81c-0.01,0.68,0.02,1.37,0.09,2.05c0.24,2.02,1.58,3.44,3.62,3.51c2.9,0.1,5.8,0.11,8.7-0.02
			c2.25-0.1,3.65-1.76,3.67-4.01c0.02-1.28,0.01-2.56,0.01-3.84V12.1C23.74,9.26,22.11,7.62,19.27,7.62z M19.33,16.39
			c-0.76,0.01-1.53,0.03-2.3-0.01c-0.51-0.03-0.63,0.17-0.62,0.65c0.03,0.78,0.01,1.57,0.01,2.35c-0.01,0.44-0.18,0.77-0.66,0.83
			c-0.43,0.05-0.73-0.29-0.74-0.85c-0.02-0.81-0.03-1.63,0-2.46c0.01-0.4-0.13-0.54-0.53-0.52c-0.81,0.02-1.63,0.01-2.46,0
			c-0.36-0.01-0.68-0.11-0.81-0.49c-0.15-0.42,0.15-0.86,0.63-0.9c0.48-0.03,0.96-0.01,1.44-0.01c0,0,0,0,0-0.01
			c0.43,0,0.86-0.01,1.28,0.01c0.33,0.01,0.45-0.12,0.45-0.44c-0.02-0.86-0.02-1.71,0-2.56c0.01-0.54,0.27-0.83,0.7-0.83
			c0.41,0,0.68,0.28,0.68,0.79c0.02,0.79,0.01,1.57,0.01,2.35c0,0.68,0,0.68,0.67,0.68c0.74,0.01,1.5,0,2.25,0.01
			c0.58,0,0.9,0.24,0.91,0.67C20.26,16.11,19.94,16.38,19.33,16.39z"/>
	</g>
</g>
</svg>
