<?xml version="1.0" encoding="utf-8"?>
<!-- Generator: Adobe Illustrator 23.0.2, SVG Export Plug-In . SVG Version: 6.00 Build 0)  -->
<svg version="1.1" id="Capa_1" xmlns="http://www.w3.org/2000/svg" xmlns:xlink="http://www.w3.org/1999/xlink" x="0px" y="0px"
	 viewBox="0 0 31.36 31.36" style="enable-background:new 0 0 31.36 31.36;" xml:space="preserve">
<style type="text/css">
	.st0{fill:#00ADEE;}
	.st1{fill-rule:evenodd;clip-rule:evenodd;fill:#FFFFFF;}
	.st2{fill:#FFFFFF;}
</style>
<g>
	<circle class="st0" cx="15.68" cy="15.68" r="15.68"/>
	<g>
		<path class="st2" d="M15.66,15.69c2.62,0,4.75-2.13,4.75-4.75c0-2.62-2.13-4.75-4.75-4.75c-2.62,0-4.75,2.13-4.75,4.75
			C10.91,13.56,13.03,15.69,15.66,15.69z"/>
		<path class="st2" d="M21.66,16.99c-0.25-0.54-0.57-1.08-0.97-1.59c-0.22-0.28-0.61-0.58-1-0.79c-0.99,1.11-2.43,1.82-4.03,1.82
			c-1.6,0-3.04-0.7-4.03-1.81c-0.37,0.21-0.76,0.52-0.97,0.79c-0.68,0.89-1.73,2.61-1.9,4.93c-0.04,0.49,0.2,1.24,0.61,1.52
			c0.78,0.54,2.45,1.24,5.94,1.24c1.21,0,2.23-0.07,3.09-0.19c-0.35-0.59-0.55-1.27-0.55-2C17.84,18.79,19.54,17.05,21.66,16.99z"/>
		<path class="st2" d="M21.66,17.74c-1.76,0-3.18,1.42-3.18,3.18s1.42,3.18,3.18,3.18c1.76,0,3.18-1.42,3.18-3.18
			C24.84,19.16,23.42,17.74,21.66,17.74z M23.23,21.5H22v1.23c0,0.2-0.17,0.37-0.37,0.37s-0.37-0.16-0.37-0.37V21.5l-1.23,0
			c-0.2,0-0.37-0.16-0.37-0.37c0-0.2,0.16-0.37,0.37-0.37h1.23v-1.23c0-0.2,0.16-0.37,0.37-0.37c0.2,0,0.37,0.16,0.37,0.37v1.23
			h1.23c0.2,0,0.37,0.16,0.37,0.37C23.6,21.34,23.43,21.5,23.23,21.5z"/>
	</g>
</g>
</svg>
