<?xml version="1.0" encoding="utf-8"?>
<!-- Generator: Adobe Illustrator 23.0.2, SVG Export Plug-In . SVG Version: 6.00 Build 0)  -->
<svg version="1.1" id="Capa_1" xmlns="http://www.w3.org/2000/svg" xmlns:xlink="http://www.w3.org/1999/xlink" x="0px" y="0px"
	 viewBox="0 0 31.36 31.36" style="enable-background:new 0 0 31.36 31.36;" xml:space="preserve">
<style type="text/css">
	.st0{fill:#00ADEE;}
	.st1{fill-rule:evenodd;clip-rule:evenodd;fill:#FFFFFF;}
	.st2{fill:#FFFFFF;}
</style>
<g>
	<circle class="st0" cx="15.68" cy="15.68" r="15.68"/>
	<g>
		<polygon class="st1" points="19.71,19.96 19.43,20.55 6.88,20.55 6.88,19.16 5.96,20.23 5.04,21.3 5.96,22.37 6.88,23.44 
			6.88,22.05 19.96,22.05 20.86,19.96 		"/>
		<polygon class="st1" points="10.28,12.06 23.57,12.09 23.57,13.48 21.08,19.3 7.78,19.3 7.78,17.87 		"/>
		<polygon class="st1" points="11.65,11.4 11.92,10.81 24.48,10.81 24.48,12.19 25.4,11.12 26.32,10.05 25.4,8.98 24.48,7.91 
			24.48,9.3 11.39,9.3 10.49,11.4 		"/>
	</g>
</g>
</svg>
