<?xml version="1.0" encoding="utf-8"?>
<!-- Generator: Adobe Illustrator 23.0.2, SVG Export Plug-In . SVG Version: 6.00 Build 0)  -->
<svg version="1.1" id="Capa_1" xmlns="http://www.w3.org/2000/svg" xmlns:xlink="http://www.w3.org/1999/xlink" x="0px" y="0px"
	 viewBox="0 0 31.36 31.36" style="enable-background:new 0 0 31.36 31.36;" xml:space="preserve">
<style type="text/css">
	.st0{fill:#00ADEE;}
	.st1{fill-rule:evenodd;clip-rule:evenodd;fill:#FFFFFF;}
	.st2{fill:#FFFFFF;}
</style>
<g>
	<circle class="st0" cx="15.68" cy="15.68" r="15.68"/>
	<g>
		<path class="st2" d="M24.21,16.73c0-0.47-0.25-0.86-0.66-1.02c-0.71-0.29-1.47,0.21-1.48,0.98c0,1.71,0,3.41,0,5.12
			c0,0.18-0.05,0.21-0.22,0.21c-4.12,0-8.23,0-12.35,0c-0.26,0-0.24,0.03-0.24-0.23c0-1.69,0-3.39,0-5.08c0-0.75-0.71-1.26-1.4-1.02
			c-0.45,0.16-0.73,0.57-0.73,1.09c0,2.06,0.01,4.12-0.01,6.18c-0.01,0.72,0.51,1.21,1.2,1.2c2.44-0.02,4.89-0.01,7.33-0.01
			c2.47,0,4.95,0,7.42,0c0.67,0,1.11-0.45,1.11-1.12c0-0.6,0-1.2,0-1.8C24.21,19.73,24.21,18.23,24.21,16.73z"/>
		<path class="st2" d="M12.17,12.12c0.77-0.76,1.53-1.52,2.29-2.29c0.04-0.04,0.07-0.1,0.16-0.11c0,0.06,0,0.11,0,0.17
			c0,0.52,0,1.04,0,1.56c0,1.76,0,3.51,0,5.27c0,0.45,0.23,0.78,0.64,0.96c0.42,0.19,0.82,0.11,1.16-0.21
			c0.25-0.23,0.34-0.52,0.34-0.86c0-2.23,0-4.46,0-6.69c0-0.06-0.02-0.13,0.04-0.24c0.05,0.07,0.08,0.13,0.12,0.17
			c0.75,0.75,1.49,1.49,2.24,2.24c0.29,0.29,0.63,0.4,1.02,0.31c0.41-0.09,0.68-0.35,0.79-0.75c0.11-0.4,0.01-0.76-0.29-1.06
			C19.28,9.2,17.89,7.8,16.5,6.41c-0.51-0.51-1.13-0.51-1.64,0c-0.9,0.9-1.8,1.8-2.71,2.71c-0.49,0.49-0.98,0.98-1.47,1.47
			c-0.28,0.28-0.39,0.62-0.3,1.01C10.58,12.43,11.57,12.71,12.17,12.12z"/>
	</g>
</g>
</svg>
