<?xml version="1.0" encoding="utf-8"?>
<!-- Generator: Adobe Illustrator 23.0.2, SVG Export Plug-In . SVG Version: 6.00 Build 0)  -->
<svg version="1.1" id="Capa_1" xmlns="http://www.w3.org/2000/svg" xmlns:xlink="http://www.w3.org/1999/xlink" x="0px" y="0px"
	 viewBox="0 0 227.08 149.01" style="enable-background:new 0 0 227.08 149.01;" xml:space="preserve">
<style type="text/css">
	.st0{fill:#00ADEE;}
</style>
<g>
	<g>
		<path class="st0" d="M18.52,149.01H7.65c-4.22,0-7.65-2.93-7.65-6.53v-11.99h1.18v11.99c0,2.95,2.9,5.35,6.47,5.35h10.87V149.01z"
			/>
	</g>
	<g>
		<path class="st0" d="M219.43,149.01h-10.87v-1.18h10.87c3.57,0,6.47-2.4,6.47-5.35v-11.99h1.18v11.99
			C227.08,146.08,223.65,149.01,219.43,149.01z"/>
	</g>
	<g>
		<path class="st0" d="M1.18,18.52H0V6.53C0,2.93,3.43,0,7.65,0h10.87v1.18H7.65c-3.57,0-6.47,2.4-6.47,5.35V18.52z"/>
	</g>
	<g>
		<path class="st0" d="M227.08,18.52h-1.18V6.53c0-2.95-2.9-5.35-6.47-5.35h-10.87V0h10.87c4.22,0,7.65,2.93,7.65,6.53V18.52z"/>
	</g>
</g>
</svg>
