<?xml version="1.0" encoding="utf-8"?>
<!-- Generator: Adobe Illustrator 23.0.2, SVG Export Plug-In . SVG Version: 6.00 Build 0)  -->
<svg version="1.1" id="Layer_1" xmlns="http://www.w3.org/2000/svg" xmlns:xlink="http://www.w3.org/1999/xlink" x="0px" y="0px"
	 viewBox="0 0 30.56 30.56" style="enable-background:new 0 0 30.56 30.56;" xml:space="preserve">
<style type="text/css">
	.st0{fill:url(#SVGID_1_);}
	.st1{fill:#FFFFFF;}
	.st2{fill:url(#SVGID_2_);}
	.st3{fill:url(#SVGID_3_);}
	.st4{fill:url(#SVGID_4_);}
	.st5{fill:url(#SVGID_5_);}
	.st6{fill:url(#SVGID_6_);}
	.st7{fill:url(#SVGID_7_);}
	.st8{fill:url(#SVGID_8_);}
	.st9{fill:#020202;}
	.st10{fill:url(#SVGID_9_);}
	.st11{fill:#00D632;}
	.st12{fill:#007BB5;}
	.st13{fill:#1DA1F2;}
	.st14{fill:#4A85FF;}
	.st15{fill:url(#SVGID_10_);}
	.st16{fill:#FF0B53;}
	.st17{fill:#00F0E9;}
	.st18{fill:url(#SVGID_11_);}
	.st19{fill:url(#SVGID_12_);}
	.st20{fill:url(#SVGID_13_);}
	.st21{fill:url(#SVGID_14_);}
	.st22{fill:url(#SVGID_15_);}
	.st23{fill:url(#SVGID_16_);}
	.st24{fill:url(#SVGID_17_);}
	.st25{fill:url(#SVGID_18_);}
	.st26{fill:url(#SVGID_19_);}
	.st27{fill:#CC2127;}
	.st28{fill:url(#SVGID_20_);}
	.st29{fill:url(#SVGID_21_);}
</style>
<g>
	<linearGradient id="SVGID_1_" gradientUnits="userSpaceOnUse" x1="28.4753" y1="28.3897" x2="2.642" y2="2.723">
		<stop  offset="0.1005" style="stop-color:#0080D7"/>
		<stop  offset="1" style="stop-color:#00AEEB"/>
	</linearGradient>
	<path class="st0" d="M30.56,24.28c0,3.47-2.81,6.28-6.28,6.28h-18C2.81,30.56,0,27.75,0,24.28v-18C0,2.81,2.81,0,6.28,0h18
		c3.47,0,6.28,2.81,6.28,6.28V24.28z"/>
	<path class="st1" d="M26.32,17.72c-0.13-0.26-0.27-0.5-0.41-0.75c-0.33-0.56-0.48-1.16-0.51-1.81c-0.02-0.51-0.06-1.02-0.15-1.51
		c-0.7-3.72-2.8-6.33-6.3-7.76c-2.03-0.83-4.14-0.92-6.25-0.32c-1.12,0.32-2.2,0.43-3.37,0.2c-1.86-0.36-3.89,0.64-4.86,2.3
		C3.5,9.71,3.44,11.4,4.39,13.05c0.49,0.85,0.79,1.71,0.82,2.69c0.02,0.57,0.09,1.14,0.22,1.7c0.71,3.01,2.4,5.29,5.13,6.76
		c1.77,0.95,3.67,1.36,5.7,1.12c0.83-0.1,1.62-0.29,2.41-0.51c0.72-0.21,1.44-0.22,2.16-0.07c0.34,0.07,0.68,0.13,1,0.12
		C25.57,24.87,27.97,21.03,26.32,17.72z M20.54,12.68c-0.56,0.5-1.37,0.51-2,0c-0.22-0.18-0.41-0.39-0.63-0.58
		c-0.95-0.8-2.04-1.13-3.28-0.98c-0.35,0.04-0.69,0.13-0.99,0.31c-0.62,0.37-0.63,0.99,0,1.34c0.36,0.2,0.76,0.33,1.15,0.44
		c0.73,0.22,1.47,0.39,2.21,0.6c0.62,0.17,1.2,0.41,1.75,0.73c0.88,0.52,1.57,1.21,1.83,2.22c0.39,1.53,0.25,2.97-0.95,4.14
		c-0.6,0.59-1.35,0.93-2.18,1.11c-0.66,0.14-1.32,0.19-1.86,0.19c-2.31,0.08-4.07-0.83-5.55-2.35c-0.41-0.42-0.66-0.93-0.48-1.56
		c0.28-1,1.4-1.45,2.28-0.89c0.24,0.15,0.45,0.35,0.66,0.54c1.03,0.92,2.21,1.33,3.6,1.15c0.41-0.05,0.82-0.14,1.17-0.37
		c0.48-0.32,0.53-0.9,0.12-1.3c-0.33-0.32-0.75-0.48-1.18-0.6c-0.79-0.24-1.59-0.46-2.38-0.66c-0.56-0.14-1.08-0.36-1.6-0.61
		c-1.45-0.73-2.2-1.91-2.14-3.52c0.06-1.73,0.96-2.98,2.59-3.53c2.8-0.95,5.39-0.61,7.57,1.55c0.2,0.2,0.4,0.42,0.55,0.66
		C21.23,11.4,21.13,12.15,20.54,12.68z"/>
</g>
</svg>
