<?xml version="1.0" encoding="utf-8"?>
<!-- Generator: Adobe Illustrator 23.0.2, SVG Export Plug-In . SVG Version: 6.00 Build 0)  -->
<svg version="1.1" id="Layer_1" xmlns="http://www.w3.org/2000/svg" xmlns:xlink="http://www.w3.org/1999/xlink" x="0px" y="0px"
	 viewBox="0 0 30.56 30.56" style="enable-background:new 0 0 30.56 30.56;" xml:space="preserve">
<style type="text/css">
	.st0{fill:url(#SVGID_1_);}
	.st1{fill:#FFFFFF;}
	.st2{fill:url(#SVGID_2_);}
	.st3{fill:url(#SVGID_3_);}
	.st4{fill:url(#SVGID_4_);}
	.st5{fill:url(#SVGID_5_);}
	.st6{fill:url(#SVGID_6_);}
	.st7{fill:url(#SVGID_7_);}
	.st8{fill:url(#SVGID_8_);}
	.st9{fill:#020202;}
	.st10{fill:url(#SVGID_9_);}
	.st11{fill:#00D632;}
	.st12{fill:#007BB5;}
	.st13{fill:#1DA1F2;}
	.st14{fill:#4A85FF;}
	.st15{fill:url(#SVGID_10_);}
	.st16{fill:#FF0B53;}
	.st17{fill:#00F0E9;}
	.st18{fill:url(#SVGID_11_);}
	.st19{fill:url(#SVGID_12_);}
	.st20{fill:url(#SVGID_13_);}
	.st21{fill:url(#SVGID_14_);}
	.st22{fill:url(#SVGID_15_);}
	.st23{fill:url(#SVGID_16_);}
	.st24{fill:url(#SVGID_17_);}
	.st25{fill:url(#SVGID_18_);}
	.st26{fill:url(#SVGID_19_);}
	.st27{fill:#CC2127;}
	.st28{fill:url(#SVGID_20_);}
	.st29{fill:url(#SVGID_21_);}
</style>
<g>
	<radialGradient id="SVGID_1_" cx="15.5102" cy="37.4263" r="41.154" gradientUnits="userSpaceOnUse">
		<stop  offset="0" style="stop-color:#0CBD2A"/>
		<stop  offset="0.301" style="stop-color:#0FBF2D"/>
		<stop  offset="1" style="stop-color:#5BF675"/>
	</radialGradient>
	<path class="st0" d="M30.56,24.28c0,3.47-2.81,6.28-6.28,6.28h-18C2.81,30.56,0,27.75,0,24.28v-18C0,2.81,2.81,0,6.28,0h18
		c3.47,0,6.28,2.81,6.28,6.28V24.28z"/>
	<g>
		<path class="st1" d="M15.13,4.72c3.54,0.07,6.63,1,9.17,3.35c1.95,1.8,3.02,4.02,2.82,6.71c-0.19,2.59-1.5,4.61-3.51,6.17
			c-2.82,2.18-6.06,2.94-9.57,2.68c-0.64-0.05-1.3-0.36-1.89-0.23c-0.55,0.12-1,0.69-1.52,1.02c-1.65,1.06-3.43,1.64-5.42,1.31
			c-0.13-0.02-0.28-0.03-0.38-0.1c-0.13-0.1-0.24-0.24-0.3-0.38c-0.02-0.04,0.18-0.2,0.3-0.25c1.64-0.64,2.4-1.88,2.2-3.65
			c-0.02-0.21-0.17-0.44-0.33-0.58c-1.55-1.34-2.71-2.93-3.12-4.97c-0.61-3.06,0.43-5.6,2.63-7.7c2.06-1.96,4.58-2.94,7.37-3.27
			C14.14,4.77,14.7,4.75,15.13,4.72z"/>
	</g>
</g>
</svg>
