<?xml version="1.0" encoding="utf-8"?>
<!-- Generator: Adobe Illustrator 23.0.2, SVG Export Plug-In . SVG Version: 6.00 Build 0)  -->
<svg version="1.1" id="Layer_1" xmlns="http://www.w3.org/2000/svg" xmlns:xlink="http://www.w3.org/1999/xlink" x="0px" y="0px"
	 viewBox="0 0 30.56 30.56" style="enable-background:new 0 0 30.56 30.56;" xml:space="preserve">
<style type="text/css">
	.st0{fill:url(#SVGID_1_);}
	.st1{fill:#FFFFFF;}
	.st2{fill:url(#SVGID_2_);}
	.st3{fill:url(#SVGID_3_);}
	.st4{fill:url(#SVGID_4_);}
	.st5{fill:url(#SVGID_5_);}
	.st6{fill:url(#SVGID_6_);}
	.st7{fill:url(#SVGID_7_);}
	.st8{fill:url(#SVGID_8_);}
	.st9{fill:#020202;}
	.st10{fill:url(#SVGID_9_);}
	.st11{fill:#00D632;}
	.st12{fill:#007BB5;}
	.st13{fill:#1DA1F2;}
	.st14{fill:#4A85FF;}
	.st15{fill:url(#SVGID_10_);}
	.st16{fill:#FF0B53;}
	.st17{fill:#00F0E9;}
	.st18{fill:url(#SVGID_11_);}
	.st19{fill:url(#SVGID_12_);}
	.st20{fill:url(#SVGID_13_);}
	.st21{fill:url(#SVGID_14_);}
	.st22{fill:url(#SVGID_15_);}
	.st23{fill:url(#SVGID_16_);}
	.st24{fill:url(#SVGID_17_);}
	.st25{fill:url(#SVGID_18_);}
	.st26{fill:url(#SVGID_19_);}
	.st27{fill:#CC2127;}
	.st28{fill:url(#SVGID_20_);}
	.st29{fill:url(#SVGID_21_);}
</style>
<g>
	<radialGradient id="SVGID_1_" cx="14.2892" cy="32.8042" r="39.1974" gradientUnits="userSpaceOnUse">
		<stop  offset="0.0918" style="stop-color:#FAF707"/>
		<stop  offset="0.7296" style="stop-color:#FFFC00"/>
	</radialGradient>
	<path class="st0" d="M30.56,24.28c0,3.47-2.81,6.28-6.28,6.28h-18C2.81,30.56,0,27.75,0,24.28v-18C0,2.81,2.81,0,6.28,0h18
		c3.47,0,6.28,2.81,6.28,6.28V24.28z"/>
	<g>
		<path class="st9" d="M9.91,8.48c0.04-0.09,0.08-0.17,0.12-0.25c0.26-0.51,0.58-0.99,0.98-1.41c0.34-0.35,0.73-0.65,1.15-0.9
			c0.36-0.21,0.76-0.38,1.16-0.5c0.33-0.1,0.67-0.17,1.01-0.21c0.33-0.04,0.66-0.05,1-0.05c0.33,0,0.66,0.01,0.99,0.06
			c0.36,0.05,0.71,0.13,1.05,0.25c0.41,0.14,0.81,0.32,1.17,0.55c0.43,0.26,0.81,0.59,1.14,0.96c0.39,0.44,0.71,0.95,0.95,1.49
			c0.45,1.02,0.34,2.86,0.24,4.34c-0.01,0.23-0.03,0.46-0.04,0.68l0,0.09l0.06,0.07c0.03,0.03,0.26,0.27,0.79,0.29h0.01h0.01
			c0.23,0,0.46-0.05,0.67-0.13c0.2-0.07,0.39-0.17,0.59-0.22c0.22-0.05,0.61,0.05,0.76,0.23c0.14,0.17-0.01,0.38-0.15,0.49
			c-0.19,0.15-0.41,0.25-0.63,0.34c-0.08,0.03-0.18,0.06-0.3,0.1c-0.51,0.16-1.29,0.41-1.55,1.02c-0.15,0.35-0.11,0.75,0.12,1.21
			c0.09,0.22,1.56,3.52,4.85,4.06c0,0.02,0,0.03-0.01,0.05c-0.06,0.13-0.41,0.59-2.62,0.93c-0.35,0.05-0.43,0.44-0.53,0.89
			c-0.04,0.16-0.07,0.32-0.12,0.49c-0.01,0.05-0.02,0.05-0.07,0.05c-0.01,0-0.02,0-0.03,0c-0.1,0-0.25-0.02-0.42-0.05
			c-0.31-0.06-0.74-0.14-1.29-0.14c-0.3,0-0.62,0.03-0.94,0.08c-0.67,0.11-1.22,0.5-1.81,0.91c-0.36,0.25-0.72,0.5-1.11,0.7
			c-0.43,0.22-0.89,0.36-1.36,0.4c-0.11,0.01-0.21,0.01-0.32,0.02c-0.51,0.02-1.01-0.03-1.49-0.19c-0.43-0.15-0.82-0.37-1.19-0.62
			c-0.15-0.1-0.3-0.21-0.45-0.31c-0.58-0.41-1.13-0.8-1.81-0.91c-0.32-0.05-0.63-0.08-0.94-0.08c-0.55,0-0.98,0.08-1.29,0.14
			c-0.17,0.03-0.32,0.06-0.42,0.06c-0.08,0-0.08,0-0.1-0.06c-0.05-0.17-0.09-0.33-0.12-0.5c-0.1-0.45-0.18-0.84-0.53-0.89
			c-2.21-0.34-2.56-0.8-2.62-0.93c-0.01-0.02-0.01-0.04-0.01-0.05c3.3-0.54,4.76-3.84,4.85-4.06c0.23-0.46,0.27-0.87,0.12-1.21
			c-0.26-0.61-1.03-0.86-1.55-1.02c-0.12-0.04-0.22-0.07-0.3-0.1c-0.3-0.12-1.23-0.56-0.63-0.93c0.13-0.08,0.27-0.13,0.43-0.12
			c0.16,0.01,0.31,0.09,0.46,0.15c0.3,0.11,0.61,0.19,0.93,0.19c0.57,0,0.83-0.27,0.85-0.3l0.06-0.07l0-0.09
			c-0.01-0.22-0.03-0.45-0.04-0.68C9.58,11.34,9.46,9.5,9.91,8.48z M12.46,5.19c-0.62,0.27-1.17,0.64-1.65,1.1
			c-0.57,0.54-1.04,1.21-1.38,1.98c-0.51,1.14-0.39,3.05-0.29,4.58l0,0c0.01,0.16,0.02,0.34,0.03,0.5c-0.07,0.03-0.2,0.07-0.37,0.07
			c-0.26,0-0.53-0.07-0.77-0.17c-0.21-0.08-0.43-0.17-0.66-0.18c-0.22,0-0.45,0.07-0.64,0.19c-0.26,0.16-0.43,0.37-0.48,0.62
			c-0.03,0.16-0.03,0.48,0.32,0.8c0.19,0.18,0.48,0.34,0.84,0.48c0.1,0.04,0.21,0.07,0.33,0.11C8.16,15.41,8.8,15.61,8.97,16
			c0.08,0.2,0.05,0.46-0.11,0.77c0,0.01-0.01,0.02-0.01,0.03c-0.19,0.45-0.46,0.87-0.74,1.26c-0.44,0.61-0.98,1.18-1.6,1.61
			c-0.33,0.23-0.68,0.42-1.05,0.57c-0.33,0.13-0.68,0.19-1.02,0.28c-0.27,0.08-0.5,0.26-0.49,0.57c0,0.08,0.02,0.16,0.06,0.23
			c0.11,0.25,0.36,0.47,0.77,0.66c0.5,0.23,1.24,0.43,2.21,0.58c0.05,0.09,0.1,0.33,0.14,0.49c0.04,0.17,0.07,0.35,0.13,0.53
			c0.06,0.2,0.21,0.44,0.61,0.44c0.15,0,0.32-0.04,0.52-0.07c0.29-0.06,0.69-0.14,1.19-0.14c0.27,0,0.56,0.02,0.85,0.07
			c0.55,0.09,1.03,0.43,1.59,0.82c0.05,0.03,0.09,0.07,0.14,0.1c0.34,0.24,0.69,0.47,1.06,0.66c0.42,0.21,0.87,0.35,1.33,0.42
			c0.27,0.04,0.53,0.04,0.8,0.04c0.3-0.01,0.59-0.02,0.88-0.08c0.45-0.09,0.88-0.26,1.28-0.48c0.19-0.1,0.37-0.21,0.54-0.33
			c0.16-0.11,0.34-0.21,0.49-0.34v0c0.55-0.39,1.03-0.73,1.59-0.82c0.29-0.05,0.57-0.07,0.85-0.07c0.48,0,0.85,0.06,1.19,0.13
			c0.22,0.04,0.39,0.06,0.52,0.06h0.01h0.01c0.29,0,0.5-0.16,0.58-0.44c0.06-0.18,0.09-0.35,0.13-0.53
			c0.03-0.15,0.09-0.39,0.14-0.49c0.97-0.15,1.72-0.35,2.21-0.58c0.41-0.19,0.66-0.4,0.77-0.66c0.03-0.08,0.05-0.16,0.06-0.23
			c0.01-0.27-0.18-0.51-0.44-0.55c-3.03-0.5-4.39-3.61-4.45-3.74c0-0.01-0.01-0.02-0.01-0.03c-0.16-0.32-0.19-0.57-0.11-0.77
			c0.17-0.39,0.8-0.59,1.22-0.72c0.12-0.04,0.24-0.07,0.33-0.11c0.41-0.16,0.71-0.34,0.9-0.54c0.23-0.24,0.28-0.47,0.28-0.62
			c-0.01-0.59-0.59-0.91-1.11-0.92c-0.25-0.01-0.56,0.08-0.79,0.17c-0.23,0.09-0.48,0.16-0.73,0.17c-0.15-0.01-0.25-0.04-0.31-0.07
			c0.01-0.14,0.02-0.29,0.03-0.44l0-0.07c0.1-1.54,0.22-3.45-0.29-4.59c-0.35-0.78-0.81-1.45-1.39-1.99
			c-0.48-0.45-1.04-0.82-1.66-1.1c-0.63-0.28-1.31-0.45-1.99-0.52c-0.26-0.03-0.53-0.05-0.8-0.05c-0.58,0-1.17,0.07-1.74,0.2
			C13.18,4.91,12.82,5.03,12.46,5.19z"/>
		<path class="st1" d="M23.44,22.04c2.21-0.34,2.56-0.79,2.62-0.93c0.01-0.02,0.01-0.04,0.01-0.05c-3.29-0.54-4.76-3.84-4.85-4.06
			c-0.23-0.46-0.27-0.87-0.12-1.21c0.26-0.61,1.04-0.86,1.55-1.02c0.12-0.04,0.22-0.07,0.3-0.1c0.22-0.09,0.44-0.19,0.63-0.34
			c0.13-0.11,0.29-0.32,0.15-0.49c-0.15-0.17-0.54-0.27-0.76-0.23c-0.2,0.04-0.4,0.15-0.59,0.22c-0.22,0.07-0.44,0.12-0.67,0.13
			H21.7h-0.01c-0.52-0.02-0.76-0.27-0.79-0.29l-0.06-0.07l0-0.09c0.01-0.22,0.03-0.45,0.04-0.68c0.09-1.48,0.21-3.32-0.24-4.34
			c-0.24-0.54-0.56-1.05-0.95-1.49c-0.33-0.37-0.72-0.7-1.14-0.96c-0.37-0.23-0.76-0.41-1.17-0.55c-0.34-0.11-0.69-0.19-1.05-0.25
			C16,5.18,15.67,5.17,15.34,5.17c-0.33,0-0.67,0.01-1,0.05C14,5.26,13.66,5.33,13.33,5.43c-0.4,0.12-0.8,0.29-1.16,0.5
			c-0.43,0.24-0.81,0.54-1.15,0.9c-0.4,0.41-0.73,0.89-0.98,1.41C9.99,8.31,9.95,8.4,9.91,8.48c-0.45,1.02-0.34,2.86-0.24,4.34
			c0.02,0.23,0.03,0.46,0.04,0.68l0,0.09l-0.06,0.07c-0.03,0.03-0.28,0.3-0.85,0.3c-0.32,0-0.63-0.08-0.93-0.19
			c-0.15-0.06-0.3-0.14-0.46-0.15c-0.15-0.01-0.3,0.04-0.43,0.12c-0.61,0.37,0.33,0.81,0.63,0.93c0.08,0.03,0.18,0.06,0.3,0.1
			c0.51,0.16,1.29,0.41,1.55,1.02c0.15,0.35,0.11,0.76-0.12,1.21c-0.09,0.22-1.56,3.52-4.85,4.06c0,0.02,0.01,0.03,0.01,0.05
			c0.06,0.13,0.41,0.59,2.62,0.93c0.35,0.05,0.43,0.44,0.53,0.89c0.04,0.16,0.07,0.33,0.12,0.5c0.02,0.06,0.02,0.06,0.1,0.06
			c0.1,0,0.25-0.03,0.42-0.06c0.31-0.06,0.74-0.14,1.29-0.14c0.31,0,0.62,0.03,0.94,0.08c0.67,0.11,1.22,0.5,1.81,0.91
			c0.15,0.11,0.3,0.21,0.45,0.31c0.37,0.25,0.76,0.47,1.19,0.62c0.48,0.16,0.99,0.21,1.49,0.19c0.11,0,0.21-0.01,0.32-0.02
			c0.48-0.04,0.94-0.19,1.36-0.4c0.39-0.2,0.75-0.45,1.11-0.7c0.58-0.41,1.13-0.8,1.81-0.91c0.32-0.05,0.63-0.08,0.94-0.08
			c0.55,0,0.98,0.07,1.29,0.14c0.17,0.03,0.32,0.05,0.42,0.05c0.01,0,0.02,0,0.03,0c0.05,0,0.06,0,0.07-0.05
			c0.05-0.17,0.09-0.33,0.12-0.49C23.01,22.48,23.09,22.1,23.44,22.04z"/>
	</g>
</g>
</svg>
