<?xml version="1.0" encoding="utf-8"?>
<!-- Generator: Adobe Illustrator 23.0.2, SVG Export Plug-In . SVG Version: 6.00 Build 0)  -->
<svg version="1.1" id="Layer_1" xmlns="http://www.w3.org/2000/svg" xmlns:xlink="http://www.w3.org/1999/xlink" x="0px" y="0px"
	 viewBox="0 0 30.56 30.56" style="enable-background:new 0 0 30.56 30.56;" xml:space="preserve">
<style type="text/css">
	.st0{fill:url(#SVGID_1_);}
	.st1{fill:#FFFFFF;}
	.st2{fill:url(#SVGID_2_);}
	.st3{fill:url(#SVGID_3_);}
	.st4{fill:url(#SVGID_4_);}
	.st5{fill:url(#SVGID_5_);}
	.st6{fill:url(#SVGID_6_);}
	.st7{fill:url(#SVGID_7_);}
	.st8{fill:url(#SVGID_8_);}
	.st9{fill:#020202;}
	.st10{fill:url(#SVGID_9_);}
	.st11{fill:#00D632;}
	.st12{fill:#007BB5;}
	.st13{fill:#1DA1F2;}
	.st14{fill:#4A85FF;}
	.st15{fill:url(#SVGID_10_);}
	.st16{fill:#FF0B53;}
	.st17{fill:#00F0E9;}
	.st18{fill:url(#SVGID_11_);}
	.st19{fill:url(#SVGID_12_);}
	.st20{fill:url(#SVGID_13_);}
	.st21{fill:url(#SVGID_14_);}
	.st22{fill:url(#SVGID_15_);}
	.st23{fill:url(#SVGID_16_);}
	.st24{fill:url(#SVGID_17_);}
	.st25{fill:url(#SVGID_18_);}
	.st26{fill:url(#SVGID_19_);}
	.st27{fill:#CC2127;}
	.st28{fill:url(#SVGID_20_);}
	.st29{fill:url(#SVGID_21_);}
</style>
<g>
	<radialGradient id="SVGID_1_" cx="15.5102" cy="37.4263" r="41.154" gradientUnits="userSpaceOnUse">
		<stop  offset="0" style="stop-color:#1E96C8"/>
		<stop  offset="0.301" style="stop-color:#2DA4D7"/>
		<stop  offset="1" style="stop-color:#37AEE2"/>
	</radialGradient>
	<path class="st0" d="M30.56,24.28c0,3.47-2.81,6.28-6.28,6.28h-18C2.81,30.56,0,27.75,0,24.28v-18C0,2.81,2.81,0,6.28,0h18
		c3.47,0,6.28,2.81,6.28,6.28V24.28z"/>
	<g>
		<path class="st1" d="M26.83,6.89c-0.05,0.36-0.1,0.75-0.15,1.14c-0.06,0.43-0.11,0.87-0.18,1.3c-0.07,0.48-0.15,0.96-0.23,1.44
			c-0.06,0.4-0.12,0.81-0.18,1.21c-0.07,0.49-0.15,0.97-0.23,1.46c-0.07,0.46-0.14,0.93-0.21,1.39c-0.07,0.47-0.15,0.94-0.23,1.41
			c-0.06,0.39-0.12,0.77-0.18,1.16c-0.08,0.47-0.16,0.95-0.23,1.42c-0.07,0.45-0.14,0.91-0.21,1.36c-0.08,0.47-0.15,0.95-0.23,1.42
			c-0.07,0.46-0.15,0.93-0.21,1.39c-0.07,0.49-0.17,0.97-0.48,1.38c-0.26,0.34-0.8,0.53-1.22,0.46c-0.97-0.17-1.79-0.67-2.59-1.21
			c-1.42-0.97-2.85-1.9-4.27-2.87c-0.56-0.38-1.09-0.8-1.6-1.24c-0.55-0.47-0.5-1.14,0.03-1.64c0.79-0.74,1.6-1.48,2.38-2.24
			c1.35-1.3,2.7-2.6,4.04-3.91c0.23-0.22,0.41-0.5,0.49-0.81c0.03-0.11,0.03-0.27-0.03-0.34c-0.07-0.07-0.24-0.09-0.34-0.05
			c-0.37,0.15-0.75,0.28-1.07,0.5c-1.48,0.97-2.95,1.96-4.43,2.95c-1.5,1.01-3,2.02-4.51,3.04c-0.28,0.19-0.6,0.26-0.93,0.31
			c-0.83,0.12-1.6-0.09-2.37-0.34c-1.07-0.35-2.13-0.69-3.2-1.03c-0.28-0.09-0.47-0.29-0.53-0.56c-0.07-0.31,0.1-0.54,0.34-0.72
			c0.37-0.3,0.81-0.47,1.25-0.65c1.2-0.5,2.41-1,3.61-1.49c1.53-0.63,3.06-1.25,4.59-1.88c1.13-0.46,2.25-0.93,3.38-1.4
			c1.54-0.64,3.07-1.28,4.61-1.91c1.12-0.46,2.24-0.94,3.36-1.39c0.42-0.17,0.86-0.25,1.31-0.11c0.34,0.1,0.51,0.35,0.59,0.67
			C26.81,6.6,26.81,6.73,26.83,6.89z"/>
	</g>
</g>
</svg>
