<?xml version="1.0" encoding="utf-8"?>
<!-- Generator: Adobe Illustrator 23.0.2, SVG Export Plug-In . SVG Version: 6.00 Build 0)  -->
<svg version="1.1" id="Layer_1" xmlns="http://www.w3.org/2000/svg" xmlns:xlink="http://www.w3.org/1999/xlink" x="0px" y="0px"
	 viewBox="0 0 30.56 30.56" style="enable-background:new 0 0 30.56 30.56;" xml:space="preserve">
<style type="text/css">
	.st0{fill:url(#SVGID_1_);}
	.st1{fill:#FFFFFF;}
	.st2{fill:url(#SVGID_2_);}
	.st3{fill:url(#SVGID_3_);}
	.st4{fill:url(#SVGID_4_);}
	.st5{fill:url(#SVGID_5_);}
	.st6{fill:url(#SVGID_6_);}
	.st7{fill:url(#SVGID_7_);}
	.st8{fill:url(#SVGID_8_);}
	.st9{fill:#020202;}
	.st10{fill:url(#SVGID_9_);}
	.st11{fill:#00D632;}
	.st12{fill:#007BB5;}
	.st13{fill:#1DA1F2;}
	.st14{fill:#4A85FF;}
	.st15{fill:url(#SVGID_10_);}
	.st16{fill:#FF0B53;}
	.st17{fill:#00F0E9;}
	.st18{fill:url(#SVGID_11_);}
	.st19{fill:url(#SVGID_12_);}
	.st20{fill:url(#SVGID_13_);}
	.st21{fill:url(#SVGID_14_);}
	.st22{fill:url(#SVGID_15_);}
	.st23{fill:url(#SVGID_16_);}
	.st24{fill:url(#SVGID_17_);}
	.st25{fill:url(#SVGID_18_);}
	.st26{fill:url(#SVGID_19_);}
	.st27{fill:#CC2127;}
	.st28{fill:url(#SVGID_20_);}
	.st29{fill:url(#SVGID_21_);}
</style>
<g>
	<path d="M30.56,24.28c0,3.47-2.81,6.28-6.28,6.28h-18C2.81,30.56,0,27.75,0,24.28v-18C0,2.81,2.81,0,6.28,0h18
		c3.47,0,6.28,2.81,6.28,6.28V24.28z"/>
	<g>
		<path class="st16" d="M26.61,9.54c-3.18,0-5.76-2.5-5.76-5.59h-4.32v16.24c0,1.89-1.58,3.42-3.52,3.42
			c-1.94,0-3.52-1.53-3.52-3.42c0-1.89,1.58-3.42,3.52-3.42c0.36,0,0.78,0.05,1.11,0.15v-4.27c-0.36-0.05-0.73-0.08-1.11-0.08
			c-4.33,0-7.84,3.41-7.84,7.61c0,4.2,3.51,7.61,7.84,7.61c4.33,0,7.84-3.41,7.84-7.61v-8.59c1.57,1.24,3.57,1.99,5.76,1.99V9.54z"
			/>
		<path class="st17" d="M25.38,8.35c-3.18,0-5.76-2.5-5.76-5.59h-4.32V19c0,1.89-1.58,3.42-3.52,3.42c-1.94,0-3.52-1.53-3.52-3.42
			c0-1.89,1.58-3.42,3.52-3.42c0.36,0,0.78,0.05,1.11,0.15v-4.27c-0.36-0.05-0.73-0.08-1.11-0.08c-4.33,0-7.84,3.41-7.84,7.61
			c0,4.2,3.51,7.61,7.84,7.61c4.33,0,7.84-3.41,7.84-7.61V10.4c1.57,1.24,3.57,1.99,5.76,1.99V8.35z"/>
		<path class="st1" d="M25.38,9.41c-1.39-0.29-2.6-1.07-3.41-2.15c-1.11-0.79-1.91-1.96-2.21-3.32h-3.23v16.24
			c0,1.89-1.58,3.42-3.52,3.42c-1.29,0-2.41-0.67-3.02-1.67c-1.03-0.6-1.72-1.69-1.72-2.94c0-1.89,1.58-3.42,3.52-3.42
			c0.36,0,0.78,0.05,1.11,0.15v-3.16c-4.28,0.06-7.72,3.44-7.72,7.61c0,1.8,0.64,3.45,1.72,4.76c1.34,1.04,3.04,1.67,4.9,1.67
			c4.33,0,7.84-3.41,7.84-7.61V10.4c1.57,1.24,3.57,1.99,5.76,1.99V9.41z"/>
	</g>
</g>
</svg>
