<?xml version="1.0" encoding="utf-8"?>
<!-- Generator: Adobe Illustrator 23.0.2, SVG Export Plug-In . SVG Version: 6.00 Build 0)  -->
<svg version="1.1" id="Layer_1" xmlns="http://www.w3.org/2000/svg" xmlns:xlink="http://www.w3.org/1999/xlink" x="0px" y="0px"
	 viewBox="0 0 30.56 30.56" style="enable-background:new 0 0 30.56 30.56;" xml:space="preserve">
<style type="text/css">
	.st0{fill:url(#SVGID_1_);}
	.st1{fill:#FFFFFF;}
	.st2{fill:url(#SVGID_2_);}
	.st3{fill:url(#SVGID_3_);}
	.st4{fill:url(#SVGID_4_);}
	.st5{fill:url(#SVGID_5_);}
	.st6{fill:url(#SVGID_6_);}
	.st7{fill:url(#SVGID_7_);}
	.st8{fill:url(#SVGID_8_);}
	.st9{fill:#020202;}
	.st10{fill:url(#SVGID_9_);}
	.st11{fill:#00D632;}
	.st12{fill:#007BB5;}
	.st13{fill:#1DA1F2;}
	.st14{fill:#4A85FF;}
	.st15{fill:url(#SVGID_10_);}
	.st16{fill:#FF0B53;}
	.st17{fill:#00F0E9;}
	.st18{fill:url(#SVGID_11_);}
	.st19{fill:url(#SVGID_12_);}
	.st20{fill:url(#SVGID_13_);}
	.st21{fill:url(#SVGID_14_);}
	.st22{fill:url(#SVGID_15_);}
	.st23{fill:url(#SVGID_16_);}
	.st24{fill:url(#SVGID_17_);}
	.st25{fill:url(#SVGID_18_);}
	.st26{fill:url(#SVGID_19_);}
	.st27{fill:#CC2127;}
	.st28{fill:url(#SVGID_20_);}
	.st29{fill:url(#SVGID_21_);}
</style>
<g>
	<linearGradient id="SVGID_1_" gradientUnits="userSpaceOnUse" x1="2.6049" y1="28.1114" x2="28.9383" y2="1.4447">
		<stop  offset="0" style="stop-color:#DF4685"/>
		<stop  offset="0.5348" style="stop-color:#FD5366"/>
		<stop  offset="1" style="stop-color:#FF8643"/>
	</linearGradient>
	<path class="st0" d="M30.56,24.28c0,3.47-2.81,6.28-6.28,6.28h-18C2.81,30.56,0,27.75,0,24.28v-18C0,2.81,2.81,0,6.28,0h18
		c3.47,0,6.28,2.81,6.28,6.28V24.28z"/>
	<g>
		<path class="st1" d="M15.92,4.67c0.01,0,0.03,0,0.04,0c0.05,0.03,0.09,0.06,0.14,0.08c1.75,0.88,3.32,2.01,4.67,3.44
			c2.12,2.26,3.36,4.91,3.55,8.03c0.01,0.12,0.02,0.25,0.04,0.37c0,0.24,0,0.49,0,0.73c-0.01,0.03-0.02,0.07-0.02,0.1
			c-0.04,0.52-0.09,1.04-0.22,1.54c-0.69,2.77-2.31,4.79-4.88,6.03c-1.04,0.5-2.16,0.76-3.31,0.84c-0.12,0.01-0.23,0.03-0.35,0.04
			c-0.21,0-0.42,0-0.63,0c-0.03-0.01-0.07-0.02-0.1-0.02c-0.91-0.04-1.81-0.17-2.68-0.44c-1.83-0.57-3.32-1.61-4.4-3.19
			c-0.92-1.35-1.39-2.85-1.52-4.47c-0.01-0.15-0.03-0.3-0.04-0.46c0-0.22,0-0.43,0-0.65c0.01-0.03,0.02-0.06,0.02-0.09
			c0.03-0.49,0.11-0.98,0.24-1.45c0.45-1.66,1.32-3.06,2.56-4.24c0.41-0.39,0.85-0.73,1.34-1.01c0.14-0.08,0.26-0.02,0.27,0.13
			c0.03,0.78,0.19,1.52,0.47,2.25c0.12,0.33,0.28,0.64,0.49,0.92c0.05,0.07,0.09,0.09,0.18,0.06c0.17-0.07,0.35-0.13,0.52-0.2
			c1.09-0.45,2-1.14,2.65-2.14c0.69-1.05,0.98-2.22,1.06-3.45c0.06-0.85,0-1.7-0.12-2.55C15.86,4.81,15.9,4.74,15.92,4.67z"/>
	</g>
</g>
</svg>
