<?xml version="1.0" encoding="utf-8"?>
<!-- Generator: Adobe Illustrator 23.0.2, SVG Export Plug-In . SVG Version: 6.00 Build 0)  -->
<svg version="1.1" id="Layer_1" xmlns="http://www.w3.org/2000/svg" xmlns:xlink="http://www.w3.org/1999/xlink" x="0px" y="0px"
	 viewBox="0 0 30.56 30.56" style="enable-background:new 0 0 30.56 30.56;" xml:space="preserve">
<style type="text/css">
	.st0{fill:url(#SVGID_1_);}
	.st1{fill:#FFFFFF;}
	.st2{fill:url(#SVGID_2_);}
	.st3{fill:url(#SVGID_3_);}
	.st4{fill:url(#SVGID_4_);}
	.st5{fill:url(#SVGID_5_);}
	.st6{fill:url(#SVGID_6_);}
	.st7{fill:url(#SVGID_7_);}
	.st8{fill:url(#SVGID_8_);}
	.st9{fill:#020202;}
	.st10{fill:url(#SVGID_9_);}
	.st11{fill:#00D632;}
	.st12{fill:#007BB5;}
	.st13{fill:#1DA1F2;}
	.st14{fill:#4A85FF;}
	.st15{fill:url(#SVGID_10_);}
	.st16{fill:#FF0B53;}
	.st17{fill:#00F0E9;}
	.st18{fill:url(#SVGID_11_);}
	.st19{fill:url(#SVGID_12_);}
	.st20{fill:url(#SVGID_13_);}
	.st21{fill:url(#SVGID_14_);}
	.st22{fill:url(#SVGID_15_);}
	.st23{fill:url(#SVGID_16_);}
	.st24{fill:url(#SVGID_17_);}
	.st25{fill:url(#SVGID_18_);}
	.st26{fill:url(#SVGID_19_);}
	.st27{fill:#CC2127;}
	.st28{fill:url(#SVGID_20_);}
	.st29{fill:url(#SVGID_21_);}
</style>
<g>
	<path class="st13" d="M30.56,24.28c0,3.46-2.81,6.28-6.28,6.28h-18C2.81,30.56,0,27.74,0,24.28v-18C0,2.81,2.81,0,6.28,0h18
		c3.47,0,6.28,2.81,6.28,6.28V24.28z"/>
	<path class="st1" d="M11.64,24.13c8.03,0,12.42-6.65,12.42-12.42c0-0.19,0-0.38-0.01-0.56c0.85-0.62,1.59-1.39,2.18-2.26
		c-0.78,0.35-1.62,0.58-2.51,0.69c0.9-0.54,1.59-1.4,1.92-2.42c-0.84,0.5-1.78,0.86-2.77,1.06c-0.8-0.85-1.93-1.38-3.19-1.38
		c-2.41,0-4.36,1.96-4.36,4.36c0,0.34,0.04,0.67,0.11,1c-3.63-0.18-6.85-1.92-9-4.56C6.05,8.28,5.84,9.03,5.84,9.83
		c0,1.51,0.77,2.85,1.94,3.63c-0.72-0.02-1.39-0.22-1.98-0.55c0,0.02,0,0.04,0,0.06c0,2.12,1.51,3.88,3.5,4.28
		c-0.36,0.1-0.75,0.15-1.15,0.15c-0.28,0-0.55-0.03-0.82-0.08c0.56,1.74,2.17,3,4.08,3.03c-1.49,1.17-3.38,1.87-5.42,1.87
		c-0.35,0-0.7-0.02-1.04-0.06C6.88,23.41,9.17,24.13,11.64,24.13"/>
</g>
</svg>
