<?xml version="1.0" encoding="utf-8"?>
<!-- Generator: Adobe Illustrator 23.0.2, SVG Export Plug-In . SVG Version: 6.00 Build 0)  -->
<svg version="1.1" id="Layer_1" xmlns="http://www.w3.org/2000/svg" xmlns:xlink="http://www.w3.org/1999/xlink" x="0px" y="0px"
	 viewBox="0 0 30.56 30.56" style="enable-background:new 0 0 30.56 30.56;" xml:space="preserve">
<style type="text/css">
	.st0{fill:url(#SVGID_1_);}
	.st1{fill:#FFFFFF;}
	.st2{fill:url(#SVGID_2_);}
	.st3{fill:url(#SVGID_3_);}
	.st4{fill:url(#SVGID_4_);}
	.st5{fill:url(#SVGID_5_);}
	.st6{fill:url(#SVGID_6_);}
	.st7{fill:url(#SVGID_7_);}
	.st8{fill:url(#SVGID_8_);}
	.st9{fill:#020202;}
	.st10{fill:url(#SVGID_9_);}
	.st11{fill:#00D632;}
	.st12{fill:#007BB5;}
	.st13{fill:#1DA1F2;}
	.st14{fill:#4A85FF;}
	.st15{fill:url(#SVGID_10_);}
	.st16{fill:#FF0B53;}
	.st17{fill:#00F0E9;}
	.st18{fill:url(#SVGID_11_);}
	.st19{fill:url(#SVGID_12_);}
	.st20{fill:url(#SVGID_13_);}
	.st21{fill:url(#SVGID_14_);}
	.st22{fill:url(#SVGID_15_);}
	.st23{fill:url(#SVGID_16_);}
	.st24{fill:url(#SVGID_17_);}
	.st25{fill:url(#SVGID_18_);}
	.st26{fill:url(#SVGID_19_);}
	.st27{fill:#CC2127;}
	.st28{fill:url(#SVGID_20_);}
	.st29{fill:url(#SVGID_21_);}
</style>
<g>
	<linearGradient id="SVGID_1_" gradientUnits="userSpaceOnUse" x1="15.2781" y1="30.9642" x2="15.2781" y2="-0.1133">
		<stop  offset="0" style="stop-color:#3D95CE"/>
		<stop  offset="0.635" style="stop-color:#4DAADF"/>
		<stop  offset="1" style="stop-color:#5EC2F2"/>
	</linearGradient>
	<path class="st0" d="M30.56,24.28c0,3.47-2.81,6.28-6.28,6.28h-18C2.81,30.56,0,27.75,0,24.28v-18C0,2.81,2.81,0,6.28,0h18
		c3.47,0,6.28,2.81,6.28,6.28V24.28z"/>
	<path class="st1" d="M24.14,4.63c0.52,0.83,0.85,1.72,1,2.67c0.12,0.74,0.15,1.48,0.09,2.23c-0.12,1.72-0.59,3.35-1.25,4.93
		c-0.42,1.01-0.87,2.01-1.38,2.97c-0.6,1.14-1.27,2.24-1.95,3.33c-0.56,0.91-1.17,1.8-1.78,2.67c-0.57,0.81-1.17,1.61-1.76,2.4
		c-0.03,0.04-0.11,0.06-0.18,0.07c-0.04,0.01-0.09,0-0.13,0c-2.64,0-5.27,0-7.91,0c-0.07,0-0.14,0-0.24,0
		C7.54,19.23,6.42,12.52,5.3,5.79c2.43-0.23,4.87-0.46,7.33-0.7c0.59,4.78,1.18,9.55,1.78,14.32c0.01,0,0.03,0.01,0.04,0.01
		c0.14-0.24,0.29-0.48,0.43-0.72c0.44-0.82,0.89-1.62,1.3-2.46c0.6-1.23,1.12-2.5,1.51-3.81c0.21-0.72,0.4-1.46,0.45-2.21
		c0.04-0.6,0-1.2-0.03-1.8c-0.03-0.65-0.19-1.28-0.4-1.89c-0.06-0.18-0.14-0.35-0.22-0.55C19.69,5.53,21.91,5.08,24.14,4.63z"/>
</g>
</svg>
