<?xml version="1.0" encoding="utf-8"?>
<!-- Generator: Adobe Illustrator 23.0.2, SVG Export Plug-In . SVG Version: 6.00 Build 0)  -->
<svg version="1.1" id="Layer_1" xmlns="http://www.w3.org/2000/svg" xmlns:xlink="http://www.w3.org/1999/xlink" x="0px" y="0px"
	 viewBox="0 0 30.56 30.56" style="enable-background:new 0 0 30.56 30.56;" xml:space="preserve">
<style type="text/css">
	.st0{fill:url(#SVGID_1_);}
	.st1{fill:#FFFFFF;}
	.st2{fill:url(#SVGID_2_);}
	.st3{fill:url(#SVGID_3_);}
	.st4{fill:url(#SVGID_4_);}
	.st5{fill:url(#SVGID_5_);}
	.st6{fill:url(#SVGID_6_);}
	.st7{fill:url(#SVGID_7_);}
	.st8{fill:url(#SVGID_8_);}
	.st9{fill:#020202;}
	.st10{fill:url(#SVGID_9_);}
	.st11{fill:#00D632;}
	.st12{fill:#007BB5;}
	.st13{fill:#1DA1F2;}
	.st14{fill:#4A85FF;}
	.st15{fill:url(#SVGID_10_);}
	.st16{fill:#FF0B53;}
	.st17{fill:#00F0E9;}
	.st18{fill:url(#SVGID_11_);}
	.st19{fill:url(#SVGID_12_);}
	.st20{fill:url(#SVGID_13_);}
	.st21{fill:url(#SVGID_14_);}
	.st22{fill:url(#SVGID_15_);}
	.st23{fill:url(#SVGID_16_);}
	.st24{fill:url(#SVGID_17_);}
	.st25{fill:url(#SVGID_18_);}
	.st26{fill:url(#SVGID_19_);}
	.st27{fill:#CC2127;}
	.st28{fill:url(#SVGID_20_);}
	.st29{fill:url(#SVGID_21_);}
</style>
<g>
	<path class="st14" d="M30.56,24.28c0,3.47-2.81,6.28-6.28,6.28h-18C2.81,30.56,0,27.75,0,24.28v-18C0,2.81,2.81,0,6.28,0h18
		c3.47,0,6.28,2.81,6.28,6.28V24.28z"/>
	<g>
		<path class="st1" d="M10.78,17.38c-0.34,0-0.66,0-0.98,0c-0.09,0-0.09-0.06-0.1-0.11c-0.16-0.52-0.31-1.04-0.46-1.56
			c-0.06-0.21-0.13-0.43-0.21-0.64c-0.23,0.77-0.46,1.54-0.69,2.31c-0.33,0-0.66,0-0.99,0c-0.03,0-0.07-0.05-0.08-0.09
			c-0.29-0.96-0.58-1.93-0.87-2.89c-0.12-0.4-0.24-0.8-0.36-1.21c0.35,0,0.69,0,1.04,0c0.24,0.85,0.48,1.7,0.73,2.59
			c0.06-0.22,0.12-0.4,0.17-0.59c0.18-0.64,0.37-1.28,0.55-1.92c0.02-0.06,0.03-0.08,0.1-0.08c0.3,0,0.59,0,0.9,0
			c0.24,0.85,0.48,1.71,0.74,2.59c0.08-0.27,0.15-0.51,0.22-0.75c0.17-0.59,0.33-1.17,0.5-1.76c0.01-0.03,0.05-0.08,0.08-0.08
			c0.32-0.01,0.64,0,0.98,0C11.62,14.58,11.2,15.98,10.78,17.38z"/>
		<path class="st1" d="M16.5,15.76c0.25-0.86,0.49-1.71,0.73-2.57c0.34,0,0.69,0,1.04,0c-0.11,0.37-0.22,0.74-0.33,1.11
			c-0.29,0.99-0.59,1.97-0.88,2.96c-0.03,0.09-0.06,0.13-0.17,0.13c-0.3-0.01-0.61,0-0.93,0c-0.23-0.77-0.46-1.54-0.69-2.34
			c-0.1,0.32-0.19,0.62-0.27,0.91c-0.13,0.44-0.26,0.88-0.39,1.33c-0.02,0.08-0.06,0.11-0.15,0.11c-0.28-0.01-0.56-0.01-0.85,0
			c-0.06,0-0.09-0.02-0.11-0.08c-0.4-1.36-0.81-2.72-1.22-4.08c0-0.01,0-0.02,0-0.04c0.32,0,0.65,0,0.97,0
			c0.03,0,0.07,0.05,0.08,0.09c0.23,0.8,0.46,1.6,0.69,2.4c0.01,0.03,0.02,0.05,0.03,0.1c0.25-0.87,0.49-1.73,0.73-2.59
			c0.31,0,0.62,0,0.93,0c0.02,0,0.06,0.05,0.07,0.08c0.12,0.42,0.24,0.84,0.36,1.26c0.11,0.39,0.22,0.79,0.34,1.18
			C16.48,15.72,16.49,15.73,16.5,15.76z"/>
		<path class="st1" d="M18.52,13.18c0.35,0,0.68,0,1.04,0c0.24,0.85,0.48,1.71,0.73,2.59c0.25-0.88,0.49-1.74,0.74-2.59
			c0.33,0,0.64,0,0.97,0c0.24,0.85,0.48,1.7,0.73,2.59c0.06-0.19,0.11-0.35,0.16-0.52c0.11-0.4,0.22-0.79,0.34-1.19
			c0.07-0.26,0.15-0.52,0.22-0.78c0.02-0.07,0.04-0.11,0.13-0.1c0.31,0.01,0.62,0,0.95,0c-0.42,1.41-0.84,2.8-1.26,4.2
			c-0.33,0-0.66,0-0.98,0c-0.03,0-0.08-0.05-0.09-0.08c-0.19-0.64-0.38-1.28-0.57-1.92c-0.03-0.1-0.06-0.2-0.1-0.33
			c-0.1,0.33-0.19,0.63-0.29,0.94c-0.13,0.44-0.26,0.88-0.39,1.32c-0.01,0.03-0.06,0.08-0.09,0.08c-0.32,0.01-0.65,0-0.98,0
			C19.35,15.98,18.94,14.59,18.52,13.18z"/>
		<path class="st1" d="M5.28,10.34c1.68-3.46,5.52-6.42,10.52-6.2c4.44,0.19,7.94,2.97,9.48,6.2c-0.22-0.04-0.44-0.09-0.65-0.13
			c-0.04-0.01-0.08-0.04-0.1-0.08c-0.51-0.91-1.14-1.73-1.89-2.45c-0.66-0.64-1.4-1.19-2.21-1.64c-0.91-0.5-1.86-0.87-2.87-1.09
			c-0.52-0.11-1.05-0.21-1.58-0.22c-0.51-0.01-1.02-0.03-1.53,0.01c-1.05,0.07-2.07,0.31-3.05,0.7C10.35,5.85,9.4,6.41,8.54,7.13
			c-1.02,0.84-1.85,1.84-2.5,2.99c-0.02,0.04-0.08,0.09-0.12,0.1C5.71,10.26,5.5,10.3,5.28,10.34z"/>
		<path class="st1" d="M15.62,25.31c0.13-0.03,0.27-0.05,0.4-0.08c0.57-0.15,1.06-0.44,1.5-0.84c0.86-0.77,1.41-1.74,1.86-2.79
			c0.12-0.28,0.22-0.56,0.33-0.85c1.06,0.28,2.08,0.68,3.07,1.21c-0.92,1.03-2,1.84-3.24,2.42C18.29,24.96,16.99,25.27,15.62,25.31z
			"/>
		<path class="st1" d="M15.62,5.26c2.85,0.12,5.22,1.24,7.16,3.34c-0.99,0.53-2.01,0.93-3.08,1.22c-0.06-0.17-0.12-0.34-0.19-0.51
			c-0.3-0.79-0.68-1.55-1.19-2.24c-0.48-0.65-1.05-1.21-1.8-1.55c-0.27-0.12-0.55-0.22-0.85-0.24C15.66,5.28,15.64,5.26,15.62,5.26z
			"/>
		<path class="st1" d="M14.94,5.26c-0.07,0.01-0.14,0.03-0.21,0.04c-0.63,0.12-1.17,0.42-1.64,0.84c-0.87,0.76-1.43,1.73-1.88,2.78
			c-0.1,0.24-0.19,0.48-0.29,0.73C10.49,9.59,8.8,8.85,7.99,8.37C9.9,6.42,12.21,5.37,14.94,5.26z"/>
		<path class="st1" d="M7.99,22.2c0.94-0.55,1.9-0.97,2.93-1.29c0.05,0.12,0.09,0.23,0.13,0.35c0.34,0.88,0.76,1.71,1.35,2.45
			c0.51,0.64,1.12,1.17,1.91,1.44c0.18,0.06,0.38,0.09,0.57,0.13c0.02,0,0.03,0.01,0.04,0.03C12.21,25.19,9.9,24.15,7.99,22.2z"/>
		<path class="st1" d="M18.97,10.09c-0.13,0.02-0.25,0.06-0.37,0.06c-0.98,0.01-1.96,0-2.94,0c-0.02,0-0.03,0-0.05,0
			c0-1.35,0-2.69,0-4.08c0.21,0.07,0.42,0.12,0.61,0.21c0.49,0.21,0.89,0.56,1.23,0.96c0.71,0.82,1.16,1.78,1.51,2.79
			C18.97,10.04,18.97,10.05,18.97,10.09z"/>
		<path class="st1" d="M15.61,20.41c0.04,0,0.08,0,0.11,0c0.93,0,1.87,0,2.8,0c0.15,0,0.31,0.04,0.47,0.06
			c-0.29,0.83-0.63,1.6-1.12,2.31c-0.36,0.53-0.79,1-1.35,1.35c-0.26,0.16-0.54,0.27-0.84,0.33c-0.02,0-0.05,0-0.07,0
			C15.61,23.11,15.61,21.77,15.61,20.41z"/>
		<path class="st1" d="M14.95,10.15c-0.2,0-0.39,0-0.57,0c-0.47,0-0.94-0.01-1.41,0c-0.42,0.02-0.82-0.07-1.22-0.18
			c-0.04-0.01-0.08-0.02-0.14-0.04c0.11-0.26,0.2-0.52,0.31-0.77c0.3-0.68,0.66-1.33,1.15-1.9c0.47-0.55,1.03-0.99,1.76-1.15
			c0.04-0.01,0.07-0.01,0.12-0.02C14.95,7.45,14.95,8.8,14.95,10.15z"/>
		<path class="st1" d="M11.63,20.61c0.39-0.08,0.76-0.21,1.16-0.2c0.67,0.01,1.35,0,2.03,0c0.04,0,0.09,0,0.14,0
			c0,1.36,0,2.7,0,4.08c-0.19-0.06-0.38-0.11-0.56-0.18c-0.45-0.18-0.83-0.48-1.15-0.84c-0.76-0.81-1.23-1.79-1.6-2.81
			C11.63,20.65,11.63,20.63,11.63,20.61z"/>
		<path class="st1" d="M10.25,10.15c-1.19,0-2.39,0-3.6,0C6.91,9.69,7.21,9.27,7.53,8.9c0.46,0.23,0.9,0.47,1.35,0.68
			C9.33,9.79,9.8,9.96,10.25,10.15z"/>
		<path class="st1" d="M7.53,21.7c-0.3-0.42-0.59-0.84-0.91-1.28c1.24,0,2.44,0,3.65,0C9.32,20.75,8.41,21.17,7.53,21.7z"/>
		<path class="st1" d="M20.92,10.15c0.79-0.29,1.55-0.62,2.3-1.04c0.23,0.34,0.46,0.68,0.71,1.04
			C22.9,10.15,21.91,10.15,20.92,10.15z"/>
		<path class="st1" d="M20.91,20.41c0.99,0,1.98,0,3.01,0c-0.24,0.36-0.47,0.7-0.7,1.04C22.47,21.04,21.7,20.7,20.91,20.41z"/>
		<path class="st1" d="M25.27,20.22c-0.23,0.04-0.46,0.09-0.68,0.13c-0.03,0.01-0.06,0.04-0.08,0.07c-0.44,0.79-0.97,1.5-1.59,2.15
			c-0.01,0.01-0.01,0.01-0.02,0.02c-0.22,0.23-0.44,0.44-0.67,0.64c-0.04,0.03-0.08,0.07-0.12,0.1c-0.17,0.15-0.35,0.28-0.53,0.42
			c-0.34,0.25-0.69,0.49-1.06,0.7c-0.1,0.06-0.2,0.1-0.3,0.16c-0.31,0.16-0.62,0.31-0.94,0.44c-0.17,0.07-0.33,0.13-0.5,0.19
			c-0.33,0.12-0.67,0.21-1,0.29c-0.13,0.03-0.26,0.07-0.39,0.1c-0.47,0.09-0.95,0.16-1.44,0.19c-0.22,0.01-0.44,0-0.66,0
			c-0.22,0-0.44,0.01-0.66,0c-0.49-0.03-0.97-0.09-1.44-0.19c-0.12-0.02-0.24-0.06-0.36-0.09c-0.35-0.08-0.69-0.18-1.04-0.3
			c-0.16-0.06-0.31-0.12-0.47-0.18c-0.35-0.14-0.68-0.29-1.01-0.47c-0.08-0.04-0.16-0.08-0.24-0.12c-0.39-0.22-0.76-0.47-1.11-0.74
			c-0.14-0.11-0.28-0.22-0.42-0.33c-0.09-0.07-0.17-0.15-0.26-0.22c-0.18-0.16-0.35-0.33-0.52-0.5c-0.05-0.05-0.11-0.11-0.16-0.17
			c-0.28-0.3-0.54-0.61-0.79-0.93c-0.01-0.01-0.02-0.03-0.03-0.04c-0.26-0.36-0.51-0.73-0.72-1.12c-0.02-0.03-0.05-0.07-0.08-0.07
			c-0.23-0.05-0.45-0.09-0.68-0.13c0,0.01,0,0.02,0.01,0.02c0.21,0.42,0.44,0.81,0.69,1.19c0,0.01,0,0.01,0.01,0.02
			c0.12,0.17,0.25,0.33,0.37,0.5c0.12,0.16,0.23,0.32,0.35,0.47c0.2,0.24,0.42,0.46,0.64,0.68c0.07,0.07,0.14,0.15,0.21,0.23
			c0.01,0.01,0.03,0.03,0.04,0.04c0.07,0.07,0.15,0.12,0.23,0.19c0.23,0.2,0.45,0.41,0.7,0.6c0.05,0.04,0.1,0.06,0.15,0.1
			c0.24,0.18,0.5,0.34,0.76,0.5c0.23,0.14,0.45,0.29,0.69,0.41c0.05,0.02,0.09,0.06,0.14,0.08c0.16,0.08,0.33,0.13,0.5,0.2
			c0.29,0.13,0.59,0.27,0.89,0.37c0.25,0.09,0.51,0.15,0.77,0.22c0.26,0.07,0.52,0.14,0.79,0.19c0.07,0.01,0.14,0.04,0.22,0.05
			c0.42,0.07,0.85,0.11,1.28,0.14c0,0,0,0,0,0c0.19,0.01,0.38,0,0.56,0c0.19,0,0.38,0.01,0.56,0c0,0,0,0,0,0
			c0.43-0.02,0.85-0.06,1.28-0.14c0.07-0.01,0.14-0.04,0.22-0.05c0.26-0.05,0.51-0.12,0.77-0.19c0.27-0.07,0.54-0.13,0.8-0.22
			c0.29-0.1,0.56-0.22,0.84-0.35c0.18-0.08,0.37-0.14,0.54-0.22c0.05-0.03,0.1-0.06,0.15-0.09c0.21-0.11,0.41-0.24,0.61-0.36
			c0.29-0.18,0.58-0.36,0.85-0.56c0.04-0.03,0.08-0.05,0.12-0.08c0.19-0.15,0.36-0.31,0.54-0.46c0.13-0.11,0.27-0.21,0.4-0.32
			c0.61-0.58,1.15-1.22,1.61-1.92c0.01-0.01,0.01-0.03,0.02-0.04c0.25-0.37,0.47-0.76,0.68-1.17
			C25.26,20.24,25.26,20.23,25.27,20.22z"/>
		<path class="st1" d="M24.9,19.68c0.97-0.23,1.78-0.73,2.42-1.49c0.01-0.01,0.02-0.03,0.03-0.04c0,0,0,0,0,0
			c0.01-0.02,0.02-0.03,0.04-0.05c0.5-0.63,0.82-1.35,0.94-2.16c0.01-0.04,0-0.08,0.01-0.12c0.03-0.24,0.04-0.48,0.03-0.72
			c0-0.09-0.02-0.17-0.03-0.26c-0.01-0.15-0.02-0.3-0.05-0.45c-0.01-0.05-0.03-0.09-0.04-0.13c-0.01-0.03-0.01-0.06-0.01-0.09
			c-0.03-0.1-0.07-0.19-0.1-0.28c-0.04-0.13-0.08-0.26-0.13-0.38c-0.05-0.11-0.11-0.21-0.16-0.32c-0.07-0.13-0.13-0.25-0.2-0.37
			c-0.06-0.09-0.13-0.17-0.2-0.26c-0.09-0.12-0.18-0.24-0.28-0.35c-0.06-0.06-0.12-0.11-0.18-0.16c-0.13-0.12-0.26-0.25-0.4-0.36
			c-0.12-0.09-0.24-0.16-0.37-0.24c-0.07-0.05-0.14-0.1-0.22-0.14c-0.07-0.04-0.15-0.07-0.22-0.1c-0.14-0.07-0.28-0.14-0.43-0.19
			c-0.05-0.02-0.1-0.03-0.15-0.04c-0.17-0.05-0.34-0.1-0.51-0.13c-0.16-0.03-0.33-0.04-0.5-0.05c-0.04,0-0.09-0.01-0.13-0.01
			c-0.01,0-0.01,0-0.02,0c-0.04,0-0.07-0.01-0.11-0.01c-2.4,0-4.81,0-7.21,0c-3.33,0-6.66,0-9.99,0c-0.03,0-0.05,0-0.08,0
			c-0.03,0-0.05,0-0.08,0c-0.08,0-0.16,0-0.25,0c0,0.01,0,0.01,0,0.02c-0.22,0.02-0.44,0.04-0.66,0.1
			c-0.97,0.23-1.78,0.73-2.42,1.49c-0.01,0.01-0.02,0.03-0.03,0.04c0,0,0,0,0,0c-0.01,0.02-0.02,0.03-0.03,0.05
			c-0.51,0.63-0.83,1.35-0.94,2.16c-0.01,0.04,0,0.09-0.01,0.13c-0.03,0.24-0.04,0.48-0.03,0.71c0,0.09,0.02,0.17,0.03,0.26
			c0.01,0.15,0.02,0.3,0.05,0.45c0.01,0.05,0.03,0.09,0.04,0.13c0.01,0.03,0.01,0.06,0.01,0.1c0.03,0.1,0.07,0.19,0.1,0.28
			c0.04,0.13,0.08,0.26,0.13,0.38c0.05,0.11,0.11,0.21,0.16,0.32c0.07,0.12,0.13,0.25,0.2,0.37c0.06,0.09,0.13,0.17,0.2,0.26
			c0.09,0.12,0.18,0.24,0.28,0.35c0.05,0.06,0.12,0.1,0.17,0.16c0.13,0.13,0.26,0.26,0.41,0.37c0.12,0.09,0.24,0.16,0.37,0.24
			c0.07,0.05,0.14,0.1,0.22,0.14c0.07,0.04,0.15,0.07,0.22,0.1c0.14,0.07,0.28,0.14,0.43,0.19c0.05,0.02,0.1,0.03,0.15,0.04
			c0.17,0.05,0.34,0.1,0.51,0.13c0.16,0.03,0.33,0.04,0.5,0.05c0.04,0,0.09,0.01,0.13,0.01c0.01,0,0.01,0,0.02,0
			c0.04,0,0.07,0.01,0.11,0.01c2.4,0,4.81,0,7.21,0c3.33,0,6.66,0,9.99,0c0.03,0,0.05,0,0.08,0c0.03,0,0.05,0,0.08,0
			c0.08,0,0.16,0,0.25,0 M24.07,19.17c-1.07,0.01-2.15,0.01-3.22,0c-4.72,0-9.45,0-14.17,0c-0.1,0-0.21-0.02-0.31-0.02
			c-0.12-0.01-0.23-0.01-0.35-0.03c-0.08-0.01-0.15-0.04-0.23-0.06c-0.2-0.05-0.4-0.11-0.58-0.18c-0.09-0.04-0.17-0.08-0.26-0.12
			c-0.15-0.07-0.29-0.16-0.42-0.25c-0.09-0.06-0.19-0.12-0.27-0.19c-0.13-0.1-0.24-0.22-0.35-0.34c-0.07-0.07-0.14-0.13-0.21-0.21
			c-0.18-0.22-0.34-0.46-0.48-0.73C3.2,17.02,3.2,17.01,3.19,17c-0.09-0.18-0.17-0.37-0.23-0.57c-0.02-0.08-0.05-0.15-0.06-0.23
			C2.85,16,2.82,15.8,2.8,15.6c-0.01-0.07,0-0.15,0-0.23c0-0.15,0.01-0.3,0.02-0.45c0.01-0.13,0.03-0.26,0.05-0.39
			c0.02-0.1,0.04-0.19,0.07-0.29c0.04-0.16,0.09-0.31,0.16-0.47c0.02-0.05,0.05-0.1,0.07-0.15c0.17-0.35,0.38-0.67,0.64-0.96
			c0,0,0,0,0,0c0.16-0.18,0.34-0.34,0.54-0.49c0.63-0.48,1.34-0.76,2.13-0.76c1.08-0.01,2.16-0.01,3.24,0c4.72,0,9.44,0,14.15,0
			c0.11,0,0.21,0.02,0.32,0.03c0.12,0.01,0.23,0.01,0.35,0.03c0.08,0.01,0.15,0.04,0.23,0.06c0.2,0.05,0.4,0.11,0.58,0.18
			c0.09,0.04,0.17,0.08,0.26,0.12c0.15,0.07,0.29,0.16,0.43,0.25c0.09,0.06,0.19,0.12,0.27,0.19c0.13,0.1,0.24,0.22,0.35,0.34
			c0.07,0.07,0.14,0.13,0.21,0.21c0.18,0.22,0.34,0.46,0.48,0.73c0.01,0.01,0.01,0.02,0.02,0.04c0.09,0.18,0.16,0.37,0.23,0.56
			c0.02,0.08,0.05,0.15,0.06,0.23c0.05,0.2,0.08,0.4,0.1,0.61c0.01,0.07,0,0.15,0,0.23c0,0.15-0.01,0.3-0.02,0.45
			c-0.01,0.13-0.03,0.26-0.05,0.39c-0.02,0.1-0.04,0.19-0.07,0.29c-0.04,0.16-0.09,0.32-0.16,0.47c-0.02,0.05-0.05,0.1-0.07,0.15
			c-0.17,0.35-0.38,0.67-0.64,0.96c0,0,0,0,0,0c-0.16,0.18-0.34,0.34-0.54,0.49C25.57,18.88,24.85,19.16,24.07,19.17z"/>
	</g>
</g>
</svg>
