<?xml version="1.0" encoding="utf-8"?>
<!-- Generator: Adobe Illustrator 23.0.2, SVG Export Plug-In . SVG Version: 6.00 Build 0)  -->
<svg version="1.1" id="Layer_1" xmlns="http://www.w3.org/2000/svg" xmlns:xlink="http://www.w3.org/1999/xlink" x="0px" y="0px"
	 viewBox="0 0 30.56 30.56" style="enable-background:new 0 0 30.56 30.56;" xml:space="preserve">
<style type="text/css">
	.st0{fill:url(#SVGID_1_);}
	.st1{fill:#FFFFFF;}
	.st2{fill:url(#SVGID_2_);}
	.st3{fill:url(#SVGID_3_);}
	.st4{fill:url(#SVGID_4_);}
	.st5{fill:url(#SVGID_5_);}
	.st6{fill:url(#SVGID_6_);}
	.st7{fill:url(#SVGID_7_);}
	.st8{fill:url(#SVGID_8_);}
	.st9{fill:#020202;}
	.st10{fill:url(#SVGID_9_);}
	.st11{fill:#00D632;}
	.st12{fill:#007BB5;}
	.st13{fill:#1DA1F2;}
	.st14{fill:#4A85FF;}
	.st15{fill:url(#SVGID_10_);}
	.st16{fill:#FF0B53;}
	.st17{fill:#00F0E9;}
	.st18{fill:url(#SVGID_11_);}
	.st19{fill:url(#SVGID_12_);}
	.st20{fill:url(#SVGID_13_);}
	.st21{fill:url(#SVGID_14_);}
	.st22{fill:url(#SVGID_15_);}
	.st23{fill:url(#SVGID_16_);}
	.st24{fill:url(#SVGID_17_);}
	.st25{fill:url(#SVGID_18_);}
	.st26{fill:url(#SVGID_19_);}
	.st27{fill:#CC2127;}
	.st28{fill:url(#SVGID_20_);}
	.st29{fill:url(#SVGID_21_);}
</style>
<g>
	<radialGradient id="SVGID_1_" cx="15.5102" cy="37.4263" r="41.154" gradientUnits="userSpaceOnUse">
		<stop  offset="0" style="stop-color:#D51E12"/>
		<stop  offset="1" style="stop-color:#FF0000"/>
	</radialGradient>
	<path class="st0" d="M30.56,24.28c0,3.47-2.81,6.28-6.28,6.28h-18C2.81,30.56,0,27.75,0,24.28v-18C0,2.81,2.81,0,6.28,0h18
		c3.47,0,6.28,2.81,6.28,6.28V24.28z"/>
	<path class="st1" d="M26.33,11.55c-0.13-2.22-1.98-3.96-4.19-4.12C21.81,7.4,21.47,7.4,21.14,7.4c-3.93,0-7.87,0-11.8,0
		c-0.3,0-0.61,0.01-0.91,0.03c-2.14,0.1-4.09,1.87-4.26,4.16c-0.02,0.24-0.03,0.49-0.03,0.73c0,1.98,0,3.96,0,5.95
		c0,0.21,0.01,0.43,0.03,0.64c0.19,2.21,1.83,3.93,4.03,4.2c0.39,0.05,0.79,0.05,1.19,0.06c1.95,0.01,3.9,0,5.86,0s3.9,0,5.86,0
		c0.03,0,0.06,0,0.09,0c0.43-0.02,0.86-0.01,1.28-0.07c2.11-0.31,3.78-2.01,3.89-4.13C26.47,16.49,26.47,14.02,26.33,11.55z
		 M18.53,15.61c-0.15,0.1-0.32,0.18-0.48,0.26c-1.65,0.79-3.3,1.56-4.94,2.37c-0.69,0.34-0.95,0.25-0.92-0.56
		c0.01-0.4,0.01-0.79,0.01-1.19c0-0.4-0.01-0.79-0.01-1.19c0-0.82,0-1.64,0-2.47c0-0.18,0.03-0.36,0.07-0.54
		c0.03-0.13,0.15-0.2,0.28-0.18c0.12,0.01,0.24,0.06,0.34,0.11c1.82,0.92,3.64,1.84,5.46,2.77c0.08,0.04,0.16,0.09,0.23,0.15
		C18.71,15.26,18.7,15.51,18.53,15.61z"/>
</g>
</svg>
