<?xml version="1.0" encoding="utf-8"?>
<!-- Generator: Adobe Illustrator 23.0.2, SVG Export Plug-In . SVG Version: 6.00 Build 0)  -->
<svg version="1.1" id="Layer_1" xmlns="http://www.w3.org/2000/svg" xmlns:xlink="http://www.w3.org/1999/xlink" x="0px" y="0px"
	 viewBox="0 0 30.56 30.56" style="enable-background:new 0 0 30.56 30.56;" xml:space="preserve">
<style type="text/css">
	.st0{fill:url(#SVGID_1_);}
	.st1{fill:#FFFFFF;}
	.st2{fill:url(#SVGID_2_);}
	.st3{fill:url(#SVGID_3_);}
	.st4{fill:url(#SVGID_4_);}
	.st5{fill:url(#SVGID_5_);}
	.st6{fill:url(#SVGID_6_);}
	.st7{fill:url(#SVGID_7_);}
	.st8{fill:url(#SVGID_8_);}
	.st9{fill:#020202;}
	.st10{fill:url(#SVGID_9_);}
	.st11{fill:#00D632;}
	.st12{fill:#007BB5;}
	.st13{fill:#1DA1F2;}
	.st14{fill:#4A85FF;}
	.st15{fill:url(#SVGID_10_);}
	.st16{fill:#FF0B53;}
	.st17{fill:#00F0E9;}
	.st18{fill:url(#SVGID_11_);}
	.st19{fill:url(#SVGID_12_);}
	.st20{fill:url(#SVGID_13_);}
	.st21{fill:url(#SVGID_14_);}
	.st22{fill:url(#SVGID_15_);}
	.st23{fill:url(#SVGID_16_);}
	.st24{fill:url(#SVGID_17_);}
	.st25{fill:url(#SVGID_18_);}
	.st26{fill:url(#SVGID_19_);}
	.st27{fill:#CC2127;}
	.st28{fill:url(#SVGID_20_);}
	.st29{fill:url(#SVGID_21_);}
</style>
<g>
	<linearGradient id="SVGID_1_" gradientUnits="userSpaceOnUse" x1="15.2781" y1="0.2142" x2="15.2781" y2="30.7714">
		<stop  offset="0" style="stop-color:#701BC9"/>
		<stop  offset="0.63" style="stop-color:#862ED5"/>
		<stop  offset="1" style="stop-color:#9A3EDE"/>
	</linearGradient>
	<path class="st0" d="M30.56,24.28c0,3.47-2.81,6.28-6.28,6.28h-18C2.81,30.56,0,27.75,0,24.28v-18C0,2.81,2.81,0,6.28,0h18
		c3.47,0,6.28,2.81,6.28,6.28V24.28z"/>
	<path class="st1" d="M16.44,10.19c-0.21,0-0.35,0-0.48,0c-2.15,0-4.31,0-6.46,0c-0.77,0-0.99-0.23-1-1.02c0-0.7,0-1.4,0-2.1
		c0-0.67,0.25-0.93,0.9-0.93c1.21-0.01,2.41,0,3.62,0c0.43,0,0.43,0,0.43-0.43c0-0.74,0-1.49,0-2.23c0-0.52,0.18-0.71,0.69-0.71
		c0.85-0.01,1.69-0.01,2.54,0c0.53,0,0.68,0.17,0.68,0.71c0,0.76,0.01,1.53-0.01,2.29c-0.01,0.29,0.07,0.38,0.36,0.38
		c1.23-0.01,2.45-0.01,3.68-0.01c0.81,0,1.03,0.23,1.03,1.06c0,0.54-0.01,1.08,0.01,1.62c0.01,0.37-0.1,0.67-0.33,0.96
		c-2.58,3.39-5.16,6.78-7.73,10.17c-0.09,0.12-0.17,0.23-0.32,0.43c0.18,0,0.3,0,0.41,0c2.35,0,4.7,0,7.05,0
		c0.66,0,0.91,0.27,0.91,0.95c0,0.74,0,1.49,0,2.23c0,0.58-0.28,0.86-0.83,0.86c-1.27,0-2.54,0-3.8,0c-0.12,0-0.25,0-0.41,0
		c-0.01,0.13-0.01,0.24-0.01,0.35c0,0.81,0,1.61,0,2.42c0,0.41-0.18,0.6-0.58,0.61c-0.89,0-1.77,0-2.66,0
		c-0.49,0-0.66-0.18-0.67-0.69c0-0.75,0-1.51,0-2.26c0-0.42,0-0.42-0.4-0.42c-1.36,0-2.72,0-4.08,0c-0.56,0-0.82-0.25-0.83-0.82
		c-0.01-0.71-0.03-1.42,0.01-2.13c0.01-0.24,0.13-0.52,0.28-0.71c2.58-3.41,5.18-6.82,7.77-10.22
		C16.27,10.44,16.32,10.36,16.44,10.19z"/>
</g>
</svg>
