<?xml version="1.0" encoding="utf-8"?>
<!-- Generator: Adobe Illustrator 23.0.2, SVG Export Plug-In . SVG Version: 6.00 Build 0)  -->
<svg version="1.1" id="Layer_1" xmlns="http://www.w3.org/2000/svg" xmlns:xlink="http://www.w3.org/1999/xlink" x="0px" y="0px"
	 viewBox="0 0 30.56 30.56" style="enable-background:new 0 0 30.56 30.56;" xml:space="preserve">
<style type="text/css">
	.st0{fill:url(#SVGID_1_);}
	.st1{fill:#FFFFFF;}
	.st2{fill:url(#SVGID_2_);}
	.st3{fill:url(#SVGID_3_);}
	.st4{fill:url(#SVGID_4_);}
	.st5{fill:url(#SVGID_5_);}
	.st6{fill:url(#SVGID_6_);}
	.st7{fill:url(#SVGID_7_);}
	.st8{fill:url(#SVGID_8_);}
	.st9{fill:#020202;}
	.st10{fill:url(#SVGID_9_);}
	.st11{fill:#00D632;}
	.st12{fill:#007BB5;}
	.st13{fill:#1DA1F2;}
	.st14{fill:#4A85FF;}
	.st15{fill:url(#SVGID_10_);}
	.st16{fill:#FF0B53;}
	.st17{fill:#00F0E9;}
	.st18{fill:url(#SVGID_11_);}
	.st19{fill:url(#SVGID_12_);}
	.st20{fill:url(#SVGID_13_);}
	.st21{fill:url(#SVGID_14_);}
	.st22{fill:url(#SVGID_15_);}
	.st23{fill:url(#SVGID_16_);}
	.st24{fill:url(#SVGID_17_);}
	.st25{fill:url(#SVGID_18_);}
	.st26{fill:url(#SVGID_19_);}
	.st27{fill:#CC2127;}
	.st28{fill:url(#SVGID_20_);}
	.st29{fill:url(#SVGID_21_);}
</style>
<linearGradient id="SVGID_1_" gradientUnits="userSpaceOnUse" x1="15.2781" y1="30.5093" x2="15.2781" y2="1.5414">
	<stop  offset="0" style="stop-color:#3F85FB"/>
	<stop  offset="0.9296" style="stop-color:#57A3FF"/>
</linearGradient>
<path class="st0" d="M30.56,24.28c0,3.47-2.81,6.28-6.28,6.28h-18C2.81,30.56,0,27.75,0,24.28v-18C0,2.81,2.81,0,6.28,0h18
	c3.47,0,6.28,2.81,6.28,6.28V24.28z"/>
<g>
	<path class="st1" d="M10.72,8.87c2,0,4-0.01,6.01,0c1.37,0.01,2.46,0.58,3.18,1.78c0.35,0.57,0.48,1.21,0.49,1.86
		c0.01,2.78,0.01,5.55,0,8.33c0,0.57-0.28,0.85-0.86,0.85c-4.04,0-8.09,0.01-12.13,0c-1.81-0.01-3.18-1.13-3.53-2.7
		c-0.08-0.35-0.13-0.71-0.13-1.06c-0.01-2.71-0.01-5.42-0.01-8.13c0-0.68,0.25-0.93,0.94-0.93C6.69,8.87,8.71,8.87,10.72,8.87z"/>
	<path class="st1" d="M26.82,15.29c0,1.84,0,3.68,0,5.52c0,0.08,0.02,0.17,0,0.24c-0.05,0.17-0.07,0.38-0.19,0.48
		c-0.07,0.06-0.32-0.05-0.45-0.14c-0.51-0.34-1-0.7-1.5-1.05c-1.14-0.8-2.28-1.59-3.42-2.4c-0.11-0.08-0.2-0.25-0.2-0.37
		c-0.01-1.53-0.01-3.07,0-4.6c0-0.13,0.1-0.29,0.21-0.37c1.63-1.16,3.27-2.31,4.92-3.45c0.13-0.09,0.39-0.2,0.44-0.15
		c0.11,0.11,0.19,0.32,0.19,0.49C26.82,11.42,26.82,13.36,26.82,15.29z"/>
</g>
</svg>
