<?xml version="1.0" standalone="no"?>
<!DOCTYPE svg PUBLIC "-//W3C//DTD SVG 1.1//EN" "http://www.w3.org/Graphics/SVG/1.1/DTD/svg11.dtd" >
<svg xmlns="http://www.w3.org/2000/svg" xmlns:xlink="http://www.w3.org/1999/xlink" version="1.1">
<metadata>
Created by FontForge 20170910 at Wed Aug  1 13:19:11 2012
 By Jimmy Wärting
URW Software, Copyright 1993 by URW
</metadata>
<defs>
<font id="HarlowSolid" horiz-adv-x="956" >
  <font-face 
    font-family="Harlow Solid Italic"
    font-weight="400"
    font-style="italic"
    font-stretch="semi-expanded"
    units-per-em="2048"
    panose-1="4 3 6 4 2 15 2 2 13 2"
    ascent="1638"
    descent="-410"
    x-height="765"
    cap-height="1385"
    bbox="-560 -795 2851 1791"
    underline-thickness="227"
    underline-position="-325"
    slope="-22"
    unicode-range="U+0020-F002"
  />
<missing-glyph horiz-adv-x="512" 
d="M51 0v1365h410v-1365h-410zM410 51v1263h-308v-1263h308z" />
    <glyph glyph-name=".notdef" horiz-adv-x="512" 
d="M51 0v1365h410v-1365h-410zM410 51v1263h-308v-1263h308z" />
    <glyph glyph-name=".null" horiz-adv-x="0" 
 />
    <glyph glyph-name="nonmarkingreturn" horiz-adv-x="512" 
 />
    <glyph glyph-name="space" unicode=" " horiz-adv-x="512" 
 />
    <glyph glyph-name="space" unicode="&#xa0;" horiz-adv-x="512" 
 />
    <glyph glyph-name="exclam" unicode="!" horiz-adv-x="593" 
d="M316 252q57 0 98 -41t41 -98q0 -58 -41 -99t-98 -41q-58 0 -99 41t-41 99q0 57 41 98t99 41zM765 1055l-219 -593q-56 -152 -134 -152q-39 0 -66.5 27.5t-27.5 67.5q0 25 11 65l189 684q36 128 141 128q55 0 93 -36t38 -88q0 -35 -25 -103z" />
    <glyph glyph-name="quotedbl" unicode="&#x22;" horiz-adv-x="967" 
d="M736 1152l-99 -235l-24 -56q-41 -96 -111 -96q-38 0 -65.5 27.5t-27.5 67.5q0 19 5 39l6 26l69 326q12 57 51.5 92.5t89.5 35.5q55 0 93 -36t38 -88q0 -44 -25 -103zM1110 1152l-99 -235l-24 -56q-41 -96 -111 -96q-38 0 -65.5 27.5t-27.5 67.5q0 19 5 39l6 26l69 326
q13 57 52 92.5t89 35.5q55 0 93 -36t38 -88q0 -45 -25 -103z" />
    <glyph glyph-name="numbersign" unicode="#" 
d="M673 877h154l101 249q47 116 136 116q41 0 68.5 -24t27.5 -61q0 -23 -20 -73l-85 -207q110 -7 110 -81q0 -56 -43.5 -86.5t-123.5 -30.5h-23l-53 -129q111 -7 111 -81q0 -56 -43.5 -86.5t-123.5 -30.5h-25l-101 -250q-48 -116 -136 -116q-41 0 -69 23.5t-28 58.5
q0 25 21 77l85 207h-154l-102 -250q-47 -116 -135 -116q-41 0 -69 23.5t-28 58.5q0 26 21 77l84 207q-111 7 -111 81q0 55 44 86t123 31h24l53 129q-112 7 -112 81q0 55 44 86t123 31h26l102 249q47 116 135 116q41 0 68.5 -24t27.5 -61q0 -24 -20 -73zM592 679l-53 -129
h154l53 129h-154z" />
    <glyph glyph-name="dollar" unicode="$" 
d="M919 1233h16q122 0 122 -92q0 -67 -47 -104t-132 -37h-130l-25 -1q-84 0 -81 -57q1 -21 18 -58l165 -372q55 -124 55 -221q0 -118 -91.5 -204.5t-216.5 -86.5l-18 -46q-41 -100 -128 -100q-44 0 -74 29t-30 73q0 18 9 44h-24q-71 0 -101.5 22t-30.5 73q0 63 46.5 99
t129.5 36h184q109 0 109 76q0 24 -12 51l-180 415l-14 31q-38 84 -38 152q0 114 74.5 190t198.5 88l14 34q36 90 123 90q98 0 109 -124z" />
    <glyph glyph-name="percent" unicode="%" horiz-adv-x="1389" 
d="M671 1292q90 0 142 -54.5t52 -147.5q0 -109 -50 -220t-125 -170q-78 -62 -189 -62q-91 0 -144.5 51.5t-53.5 140.5q0 162 112 314q110 148 256 148zM659 1152q-55 3 -123 -107t-68 -202q0 -60 48 -60q60 0 112 81q76 119 76 229q0 56 -45 59zM525 58l576 1165l5 10
q24 46 67 46q54 0 54 -49q0 -18 -14 -46l-576 -1164q-28 -57 -72 -57q-54 0 -54 50q0 17 14 45zM1233 644q90 0 142 -54.5t52 -147.5q0 -109 -50 -220t-125 -170q-78 -62 -189 -62q-91 0 -144.5 52t-53.5 140q0 162 112 314q109 148 256 148zM1221 504q-55 3 -123 -107
t-68 -202q0 -60 48 -60q60 0 112 81q76 119 76 230q0 55 -45 58z" />
    <glyph glyph-name="ampersand" unicode="&#x26;" horiz-adv-x="1619" 
d="M1431 756h35q127 0 127 -89q0 -62 -43.5 -96t-122.5 -34h-86l-185 -449q-162 -393 -561 -393q-219 0 -352.5 131.5t-133.5 347.5q0 146 73 274.5t197 200.5q86 49 249 79q-78 97 -78 202q0 101 53 194.5t142 150.5q131 84 352 84h233q127 0 127 -88q0 -62 -43.5 -96
t-122.5 -34h-208q-129 0 -200 -46q-106 -69 -106 -186q0 -70 57 -111.5t155 -41.5h190l53 126l11 26q46 107 141 107q43 0 72.5 -28t29.5 -68q0 -31 -26 -94zM1089 537h-268q-176 0 -270 -38q-93 -38 -152.5 -125.5t-59.5 -187.5q0 -116 78 -190.5t201 -74.5
q98 0 181.5 58.5t122.5 154.5z" />
    <glyph glyph-name="quotesingle" unicode="'" horiz-adv-x="593" 
d="M736 1152l-99 -235l-24 -56q-41 -96 -111 -96q-38 0 -65.5 27.5t-27.5 67.5q0 19 5 39l6 26l69 326q12 57 51.5 92.5t89.5 35.5q55 0 93 -36t38 -88q0 -44 -25 -103z" />
    <glyph glyph-name="parenleft" unicode="(" horiz-adv-x="747" 
d="M892 1475q48 0 78.5 -28t30.5 -71q0 -40 -61 -117q-221 -278 -318.5 -531t-97.5 -548q0 -133 24 -342q3 -30 3 -49q0 -103 -102 -103q-87 0 -127 114q-53 152 -53 470q0 501 329 950q106 143 170.5 199t123.5 56z" />
    <glyph glyph-name="parenright" unicode=")" horiz-adv-x="747" 
d="M693 1475q87 0 127 -114q53 -151 53 -470q0 -501 -329 -950q-104 -141 -169.5 -198t-124.5 -57q-48 0 -78.5 28t-30.5 71q0 40 61 117q221 277 318.5 530.5t97.5 548.5q0 127 -24 341q-3 31 -3 50q0 103 102 103z" />
    <glyph glyph-name="asterisk" unicode="*" 
d="M702 1037l-208 69q-47 16 -61 29t-14 44q0 57 35.5 95t88.5 38q26 0 38 -10t35 -51l104 -193v218q0 58 20 80.5t72 22.5q49 0 86.5 -33t37.5 -77q0 -21 -41 -63l-150 -158l208 66q43 14 56 14q28 0 52.5 -35t24.5 -75t-28.5 -76.5t-59.5 -36.5q-15 0 -58 21l-197 95
l127 -178q32 -44 32 -61q0 -37 -37 -68.5t-80 -31.5q-42 0 -72.5 20.5t-30.5 48.5q0 9 5 47l29 216l-129 -176q-27 -36 -37.5 -44t-32.5 -8q-47 0 -82 38t-35 89q0 44 16 59.5t71 25.5z" />
    <glyph glyph-name="plus" unicode="+" 
d="M566 717l92 225q48 116 139 116q43 0 71.5 -24.5t28.5 -60.5q0 -24 -20 -73l-75 -183h157q126 0 126 -83q0 -57 -44.5 -89.5t-123.5 -32.5h-199l-92 -226q-48 -115 -140 -115q-42 0 -70.5 24t-28.5 60q0 24 20 74l75 183h-158q-126 0 -126 83q0 57 45 89.5t124 32.5h199z
" />
    <glyph glyph-name="comma" unicode="," horiz-adv-x="511" 
d="M190 22q-34 56 -34 96q0 56 40 94.5t99 38.5q60 0 99 -39t39 -100q0 -93 -131 -201q-101 -83 -146 -83q-56 0 -56 49q0 20 26 55l20 29z" />
    <glyph glyph-name="hyphen" unicode="-" horiz-adv-x="392" 
d="M191 512h164h19q95 0 95 -85q0 -86 -95 -86h-19h-164h-19q-42 0 -68.5 23.5t-26.5 62.5q0 38 26 61.5t69 23.5h19z" />
    <glyph glyph-name="hyphen" unicode="&#xad;" horiz-adv-x="392" 
d="M191 512h164h19q95 0 95 -85q0 -86 -95 -86h-19h-164h-19q-42 0 -68.5 23.5t-26.5 62.5q0 38 26 61.5t69 23.5h19z" />
    <glyph glyph-name="period" unicode="." horiz-adv-x="511" 
d="M290 252q57 0 98 -41t41 -98q0 -58 -41 -99t-98 -41q-58 0 -99 41t-41 99q0 57 41 98t99 41z" />
    <glyph glyph-name="slash" unicode="/" horiz-adv-x="769" 
d="M126 -186l596 1526q36 94 111 94q32 0 54 -19.5t22 -47.5q0 -19 -17 -61l-596 -1527q-36 -93 -110 -93q-32 0 -54.5 19t-22.5 47q0 19 10 44z" />
    <glyph glyph-name="zero" unicode="0" 
d="M785 1243q147 0 234 -102t87 -274q0 -214 -89.5 -434t-225.5 -338q-133 -116 -316 -116q-158 0 -248.5 94.5t-90.5 258.5q0 205 94 427t236 351q146 133 319 133zM760 1029q-119 0 -240 -215q-61 -110 -101 -238t-40 -216q0 -72 33.5 -115.5t88.5 -43.5q118 0 223 183
q63 109 104.5 248t41.5 241q0 156 -110 156z" />
    <glyph glyph-name="one" unicode="1" 
d="M703 1007h-69q-128 0 -128 91q0 62 45 96.5t126 34.5h200q120 0 120 -97q0 -26 -16 -65l-382 -942q-57 -139 -157 -139q-43 0 -72.5 28t-29.5 67q0 30 15 69l11 27z" />
    <glyph glyph-name="two" unicode="2" 
d="M507 220h297q127 0 127 -90q0 -61 -45 -95.5t-125 -34.5h-496q-61 0 -97.5 31t-36.5 83q0 55 50 106l560 576q48 49 48 102q0 49 -37 84t-89 35q-54 0 -92 -36t-38 -87q0 -39 26 -87q23 -42 23 -75q0 -50 -32 -82t-83 -32q-76 0 -129 73.5t-53 180.5q0 157 113 263.5
t280 106.5q160 0 262 -94.5t102 -243.5q0 -140 -107 -249z" />
    <glyph glyph-name="three" unicode="3" 
d="M834 750q154 -103 154 -283q0 -139 -78 -268q-132 -219 -389 -219q-166 0 -267.5 89t-101.5 235q0 102 51 174t123 72q42 0 73 -29.5t31 -69.5q0 -21 -16 -76q-13 -44 -13 -63q0 -49 33.5 -79t86.5 -30q84 0 151 81t67 181q0 121 -122 163q-84 28 -84 96q0 43 32 79
l20 22l167 185h-227q-127 0 -127 89q0 54 42 92t103 38h24h386q159 0 159 -120q0 -57 -39 -99z" />
    <glyph glyph-name="four" unicode="4" 
d="M873 478h56q127 0 127 -90q0 -61 -45 -95.5t-125 -34.5h-103l-53 -131l-11 -28q-47 -113 -147 -113q-43 0 -73 28t-30 68q0 32 26 97l32 79h-206q-86 0 -135 40.5t-49 111.5q0 67 45 118l39 40l498 534q132 141 235 141q65 0 108.5 -41.5t43.5 -103.5q0 -45 -30 -120z
M617 478l182 408l-367 -408h185z" />
    <glyph glyph-name="five" unicode="5" 
d="M688 1003l-75 -183q42 9 73 9q132 0 212.5 -91.5t80.5 -242.5q0 -218 -139.5 -366.5t-343.5 -148.5q-149 0 -244 85t-95 219q0 99 44.5 163t114.5 64q48 0 78 -27.5t30 -71.5q0 -20 -6 -45l-9 -39q-4 -17 -4 -36q0 -37 29.5 -63.5t71.5 -26.5q88 0 159 91.5t71 204.5
q0 56 -30.5 91t-79.5 35q-34 0 -68 -19l-67 -36q-32 -17 -68 -17q-48 0 -80 31.5t-32 78.5q0 25 17 67l162 399q26 65 57 83t113 18h335q69 0 100 -21.5t31 -69.5q0 -64 -46 -99.5t-128 -35.5h-264z" />
    <glyph glyph-name="six" unicode="6" 
d="M669 828q35 5 51 5q116 0 195.5 -90t79.5 -221q0 -220 -142.5 -378t-340.5 -158q-156 0 -252 94t-96 247q0 144 121 337l288 460q74 118 160 118q45 0 76.5 -29.5t31.5 -70.5q0 -44 -33 -97l-17 -26zM629 627q-78 0 -148.5 -92t-70.5 -195q0 -56 32.5 -93t82.5 -37
q82 0 154 91.5t72 195.5q0 59 -33.5 94.5t-88.5 35.5z" />
    <glyph glyph-name="seven" unicode="7" 
d="M795 1004h-315q-130 0 -130 92q0 63 46 98t128 35h397q172 0 172 -124q0 -44 -34 -101l-545 -901l-15 -26q-56 -91 -140 -91q-44 0 -73 29t-29 72q0 38 45 111z" />
    <glyph glyph-name="eight" unicode="8" 
d="M883 661q97 -90 97 -218q0 -189 -140.5 -326t-333.5 -137q-157 0 -255 89.5t-98 231.5q0 133 76 241t200 151q-74 76 -74 177q0 151 129.5 262t307.5 111q142 0 229.5 -79t87.5 -208q0 -104 -59.5 -182t-166.5 -113zM762 1035q-65 0 -118.5 -55t-53.5 -121
q0 -46 31.5 -76t80.5 -30q65 0 117.5 53.5t52.5 121.5q0 107 -110 107zM611 570q-82 0 -147 -71t-65 -160q0 -56 35 -93t88 -37q81 0 148 75t67 165q0 53 -35.5 87t-90.5 34z" />
    <glyph glyph-name="nine" unicode="9" 
d="M587 399h-31q-132 0 -213 88t-81 230q0 206 149 372q137 153 329 153q158 0 257 -96.5t99 -249.5q0 -132 -87 -269l-331 -523q-43 -69 -76.5 -93.5t-82.5 -24.5q-45 0 -76.5 29.5t-31.5 70.5q0 49 51 126zM727 1021q-77 0 -148.5 -94t-71.5 -196q0 -53 33.5 -88.5
t84.5 -35.5q81 0 153 91.5t72 194.5q0 55 -35 91.5t-88 36.5z" />
    <glyph glyph-name="colon" unicode=":" horiz-adv-x="511" 
d="M371 660q58 0 98.5 -40.5t40.5 -98.5t-40.5 -98.5t-98.5 -40.5t-98.5 40.5t-40.5 98.5t40.5 98.5t98.5 40.5zM289 251q58 0 98.5 -40.5t40.5 -98.5q0 -57 -40.5 -98t-98.5 -41t-98.5 41t-40.5 98q0 58 40.5 98.5t98.5 40.5z" />
    <glyph glyph-name="semicolon" unicode=";" horiz-adv-x="511" 
d="M362 660q58 0 98.5 -40.5t40.5 -98.5t-40.5 -98.5t-98.5 -40.5t-98.5 40.5t-40.5 98.5t40.5 98.5t98.5 40.5zM190 22q-34 56 -34 96q0 56 40 94.5t99 38.5q60 0 99 -39t39 -100q0 -93 -131 -201q-101 -83 -146 -83q-56 0 -56 49q0 20 26 55l20 29z" />
    <glyph glyph-name="less" unicode="&#x3c;" horiz-adv-x="1024" 
d="M955 1251v-251l-620 -304l620 -306v-248l-887 448v213z" />
    <glyph glyph-name="equal" unicode="=" 
d="M433 881h592q127 0 127 -83q0 -57 -45 -89.5t-124 -32.5h-592q-127 0 -127 83q0 57 45 89.5t124 32.5zM300 553h593q126 0 126 -83q0 -57 -44.5 -89.5t-123.5 -32.5h-593q-126 0 -126 83q0 57 45 89.5t123 32.5z" />
    <glyph glyph-name="greater" unicode="&#x3e;" horiz-adv-x="1024" 
d="M68 141v250l620 305l-620 305v248l887 -448v-212z" />
    <glyph glyph-name="question" unicode="?" horiz-adv-x="848" 
d="M412 252q57 0 98 -41t41 -98q0 -58 -41 -99t-98 -41q-58 0 -99 41t-41 99q0 57 41 98t99 41zM692 1282q148 0 248.5 -92t100.5 -228q0 -93 -42.5 -165.5t-149.5 -158.5q-172 -140 -190 -181l-39 -88q-30 -65 -97 -65q-47 0 -78 31.5t-31 77.5q0 138 232 347
q95 86 118.5 116.5t23.5 69.5q0 45 -35 77t-84 32q-55 0 -96.5 -37.5t-41.5 -87.5q0 -19 18 -79q11 -35 11 -60q0 -44 -30.5 -74.5t-73.5 -30.5q-72 0 -119 63.5t-47 159.5q0 162 113.5 267.5t288.5 105.5z" />
    <glyph glyph-name="at" unicode="@" horiz-adv-x="1496" 
d="M1224 524h62q79 0 138.5 109t59.5 254q0 149 -107.5 238t-286.5 89q-293 0 -481 -224q-157 -186 -157 -414q0 -226 162 -341q71 -50 138 -59t381 -9h132q37 0 62 -25.5t25 -62.5q0 -106 -155 -106h-260q-287 0 -433 99q-123 83 -190 215t-67 289q0 140 54.5 284.5
t150.5 257.5q117 137 282.5 212.5t349.5 75.5q267 0 434.5 -142.5t167.5 -368.5q0 -222 -127.5 -398t-288.5 -176h-103q-80 0 -108 63q-71 -63 -136 -63h-106q-102 0 -164.5 73t-62.5 191q0 178 123 318.5t278 140.5q119 0 174 -82q47 70 122 70q41 0 68.5 -26t27.5 -64
q0 -27 -15 -62l-10 -26zM886 519h23q76 0 102 63l65 160q13 32 13 53q0 26 -25 44.5t-59 18.5q-68 0 -132 -79.5t-64 -163.5q0 -96 77 -96z" />
    <glyph glyph-name="A" unicode="A" horiz-adv-x="2138" 
d="M1613 512h-277l-331 -573q-234 -407 -555 -407q-197 0 -330.5 141.5t-133.5 350.5q0 170 103 327.5t281 261.5q133 76 295 107t431 31h74l79 145q165 303 403 404q153 65 400 65q63 0 99 -28t36 -78q0 -23 -12 -54l-9 -23l-172 -431h76h26q112 0 112 -97
q0 -59 -46 -100.5t-112 -41.5h-27h-126l-111 -273h163h26q112 0 112 -96q0 -60 -46 -101.5t-112 -41.5h-27h-214q-86 0 -140.5 44.5t-54.5 115.5q0 55 41 156zM1711 751l144 355q-106 -7 -178.5 -67.5t-165.5 -219.5l-41 -68h241zM1033 512h-85q-286 0 -454 -106
q-107 -68 -170.5 -170t-63.5 -206q0 -95 61 -162.5t148 -67.5q151 0 267 200z" />
    <glyph glyph-name="B" unicode="B" horiz-adv-x="1748" 
d="M1094 1126h-113h-27q-112 0 -112 96q0 60 46 101.5t112 41.5h27h406q197 0 304 -86.5t107 -246.5q0 -138 -80.5 -248t-215.5 -157q183 -89 183 -306q0 -139 -75.5 -272.5t-199.5 -213.5q-167 -108 -504 -108h-147l-12 -28q-70 -155 -110 -219t-103 -122
q-167 -153 -381 -153q-175 0 -289.5 104t-114.5 265q0 103 49 191.5t133 137.5q109 63 296 63h349zM1221 751l60 1q140 0 212 65q38 34 63.5 88t25.5 100q0 83 -73 110q-29 11 -120 11h-15zM903 -34h81q214 0 325 74q71 47 115.5 129t44.5 165q0 98 -58.5 138t-203.5 40h-83
zM525 -273h-260q-196 0 -196 -140q0 -56 42.5 -95t103.5 -39q91 0 173 72.5t137 201.5z" />
    <glyph glyph-name="C" unicode="C" horiz-adv-x="1180" 
d="M602 683q-135 -240 -135 -445q0 -146 66.5 -209t221.5 -63h556q138 0 138 -94q0 -68 -48.5 -106.5t-136.5 -38.5h-580q-145 0 -232 40q-121 56 -190 172.5t-69 265.5q0 200 122 478h-56h-26q-112 0 -112 96q0 60 46 101.5t112 41.5h27h145q90 150 242 289
q194 175 419 175q148 0 245 -91t97 -232q0 -201 -187 -308q-127 -72 -404 -72h-261zM751 922h194q249 0 249 133q0 42 -32.5 68.5t-82.5 26.5q-77 0 -166 -62t-162 -166z" />
    <glyph glyph-name="D" unicode="D" horiz-adv-x="1871" 
d="M1098 1126h-99h-27q-111 0 -111 96q0 61 45.5 102t111.5 41h27h293q294 0 451 -140t157 -403q0 -401 -267 -735q-151 -188 -341.5 -274t-456.5 -86h-70l-12 -28q-70 -156 -110 -219t-104 -122q-167 -153 -383 -153q-178 0 -292.5 105.5t-114.5 268.5q0 100 49 187.5
t133 136.5q109 63 295 63h355zM908 -34h40q310 0 519 275q101 132 159.5 286t58.5 285q0 146 -82 230t-223 84zM530 -273h-265q-196 0 -196 -139q0 -57 43 -96t105 -39q92 0 175 72.5t138 201.5z" />
    <glyph glyph-name="E" unicode="E" horiz-adv-x="1605" 
d="M945 751l202 489q33 81 66 103t123 22h516q138 0 138 -94q0 -62 -45.5 -103.5t-112.5 -41.5h-27h-426l-152 -375h125h26q112 0 112 -97q0 -59 -46 -100.5t-112 -41.5h-27h-175l-222 -546h691h26q112 0 112 -94q0 -62 -45.5 -103.5t-112.5 -41.5h-27h-741l-13 -28
q-70 -156 -109.5 -219t-103.5 -122q-167 -153 -384 -153q-177 0 -291.5 105t-114.5 267q0 101 49 189t133 137q109 63 295 63h354l222 546h-9h-24q-112 0 -112 98q0 59 46 100t112 41h27h57zM529 -273h-264q-196 0 -196 -139q0 -57 43.5 -95.5t107.5 -38.5q90 0 172.5 73
t136.5 200z" />
    <glyph glyph-name="F" unicode="F" horiz-adv-x="1667" 
d="M1327 751h129h26q112 0 112 -96q0 -60 -45.5 -101.5t-112.5 -41.5h-26h-180l-194 -479q-202 -496 -598 -496q-207 0 -343 133.5t-136 336.5q0 158 80.5 302t225.5 248q123 87 286.5 138t322.5 51l141 4l44 1l192 483l11 28q23 62 58.5 82.5t119.5 20.5h513q139 0 139 -98
q0 -58 -46 -99.5t-112 -41.5h-27h-427zM962 512h-54q-296 0 -473 -135q-198 -151 -198 -341q0 -102 62.5 -171t155.5 -69q216 0 355 343z" />
    <glyph glyph-name="G" unicode="G" horiz-adv-x="1542" 
d="M1271 239h148q139 0 139 -98q0 -66 -49 -103.5t-136 -37.5h-200l-74 -184q-121 -305 -253 -430.5t-329 -125.5q-186 0 -310.5 123.5t-124.5 308.5q0 292 280 450q171 95 470 95l159 2l34 85q-76 -28 -155 -28q-153 0 -247 106.5t-94 280.5h-138h-26q-112 0 -112 95
q0 61 45.5 102.5t112.5 41.5h26h145q109 217 275.5 340t351.5 123q153 0 249.5 -90t96.5 -232q0 -200 -179 -308q-119 -72 -358 -72h-228v-20q0 -128 150 -128q67 0 137 40l53 31q69 40 118 40q55 0 91 -33t36 -85q0 -32 -28 -101zM894 0q-211 0 -323 -40
q-104 -37 -164 -106.5t-60 -153.5q0 -78 51.5 -132t126.5 -54q91 0 164.5 81t146.5 262zM863 922h194q248 0 248 135q0 40 -32.5 66.5t-82.5 26.5q-77 0 -164.5 -61t-162.5 -167z" />
    <glyph glyph-name="H" unicode="H" horiz-adv-x="2114" 
d="M1858 512l-111 -273h173h26q112 0 112 -98q0 -66 -49 -103.5t-136 -37.5h-205q-97 0 -154 44.5t-57 121.5q0 48 23 104l16 39l83 203h-319l-195 -479q-201 -496 -600 -496q-212 0 -349.5 132.5t-137.5 337.5q0 158 80 302t226 248q123 87 286.5 138t321.5 51l142 4l44 1
l195 479l11 29q50 120 158 120q49 0 82 -29.5t33 -71.5q0 -34 -28 -103l-172 -424h319l193 475l12 30q51 123 160 123q47 0 80 -30t33 -74q0 -34 -29 -106l-170 -418h77h27q111 0 111 -98q0 -66 -49 -103.5t-135 -37.5h-128zM981 512h-54q-296 0 -473 -135
q-92 -70 -145 -161t-53 -179q0 -104 63 -172.5t159 -68.5q212 0 351 343z" />
    <glyph glyph-name="I" unicode="I" horiz-adv-x="1204" 
d="M886 239h168q138 0 138 -96q0 -68 -48.5 -105.5t-136.5 -37.5h-182q-110 0 -167 42.5t-57 123.5q0 57 41 159l201 494q61 150 61 206q0 45 -41 80.5t-94 35.5q-100 0 -181 -86.5t-81 -193.5q0 -62 27.5 -96t100.5 -63q65 -26 65 -89q0 -58 -43.5 -95.5t-108.5 -37.5
q-125 0 -214 106.5t-89 255.5q0 217 164 380t382 163q164 0 273.5 -96t109.5 -239q0 -103 -52 -231z" />
    <glyph glyph-name="J" unicode="J" horiz-adv-x="1511" 
d="M1212 239h149q138 0 138 -98q0 -66 -49 -103.5t-136 -37.5h-196l-74 -184q-121 -305 -253 -430.5t-329 -125.5q-186 0 -310.5 124t-124.5 309q0 139 73 256.5t207 192.5q170 95 469 95l158 2l233 580q60 151 60 206q0 47 -42 81.5t-100 34.5q-97 0 -176.5 -88t-79.5 -195
q0 -58 27.5 -92.5t95.5 -60.5q72 -29 72 -92q0 -57 -43 -95t-107 -38q-127 0 -216.5 105.5t-89.5 255.5q0 219 164 381.5t385 162.5q162 0 270.5 -97.5t108.5 -244.5q0 -93 -52 -224zM845 0q-210 0 -322 -40q-104 -37 -164 -106.5t-60 -153.5q0 -78 51 -132t124 -54
q93 0 167.5 81.5t146.5 261.5z" />
    <glyph glyph-name="K" unicode="K" horiz-adv-x="1611" 
d="M1295 619l211 -574q28 -74 120 -74h324q141 0 141 -99q0 -68 -50 -106.5t-139 -38.5h-332q-132 0 -186 36.5t-98 152.5l-265 716l-207 -509q-60 -150 -171 -150q-46 0 -79 30t-33 71q0 33 17 76l12 29l260 640q59 146 59 202q0 49 -42.5 84.5t-99.5 35.5
q-102 0 -183.5 -85.5t-81.5 -191.5q0 -116 125 -161q76 -27 76 -94q0 -56 -43.5 -92.5t-108.5 -36.5q-125 0 -214 106t-89 253q0 219 163.5 382.5t383.5 163.5q164 0 274 -96t110 -240q0 -102 -52 -230l-35 -85l525 549q85 89 155 89q48 0 80 -31.5t32 -79.5q0 -59 -81 -144
z" />
    <glyph glyph-name="L" unicode="L" horiz-adv-x="1541" 
d="M1221 703l-300 -737h693q139 0 139 -96q0 -68 -49 -105.5t-136 -37.5h-744l-12 -28q-70 -156 -110 -219t-104 -122q-167 -153 -384 -153q-176 0 -290.5 105t-114.5 267q0 101 49 189t133 137q109 63 296 63h353l299 737h-120h-27q-112 0 -112 99q0 65 49 102.5t136 37.5
h171l46 113q131 324 400 324q137 0 228 -86.5t91 -216.5q0 -166 -132 -269.5t-343 -103.5h-105zM1318 942h46q75 0 128.5 37.5t53.5 91.5q0 80 -75 80q-68 0 -125 -140zM542 -273h-263q-196 0 -196 -139q0 -57 43 -95.5t108 -38.5q89 0 171.5 73.5t136.5 199.5z" />
    <glyph glyph-name="M" unicode="M" horiz-adv-x="2180" 
d="M1863 239h162q139 0 139 -95q0 -68 -48.5 -106t-136.5 -38h-190q-104 0 -160.5 43.5t-56.5 124.5q0 52 42 152l257 602l-193 -207q-69 -75 -131 -75q-81 0 -105 111l-28 124l-244 -602q-126 -310 -192 -421.5t-171 -193.5q-152 -118 -349 -118q-210 0 -341 132.5
t-131 345.5q0 279 206 491q111 113 277 182.5t327 69.5q82 0 131 -35t49 -93q0 -61 -52 -99q-30 -22 -116 -30q-199 -18 -321 -91q-101 -61 -160.5 -159t-59.5 -205q0 -114 58 -179.5t159 -65.5q121 0 210.5 103.5t196.5 365.5l397 977q52 129 140 129q56 0 88.5 -36
t56.5 -126l61 -230l300 295q99 97 185 97q60 0 101.5 -36.5t41.5 -88.5q0 -33 -16 -72l-23 -56z" />
    <glyph glyph-name="N" unicode="N" horiz-adv-x="2035" 
d="M2140 1126l-404 -996l-19 -47q-43 -97 -141 -97q-78 0 -111 43t-42 157l-46 603l-209 -516q-126 -310 -191.5 -421.5t-170.5 -193.5q-152 -118 -349 -118q-210 0 -340.5 132t-130.5 343q0 282 206 493q110 113 276.5 183t325.5 70q84 0 133 -34.5t49 -93.5q0 -60 -39 -90
t-129 -38q-199 -19 -321 -92q-101 -61 -160.5 -159t-59.5 -205q0 -114 58.5 -179.5t161.5 -65.5q119 0 209.5 104t196.5 365l396 975q53 131 161 131q125 0 136 -149l52 -666l271 666l16 40q39 94 137 94l41 1h205q139 0 139 -94q0 -69 -49 -107t-136 -38h-122z" />
    <glyph glyph-name="O" unicode="O" horiz-adv-x="1350" 
d="M310 683h-50q-139 0 -139 95q0 68 48.5 106t136.5 38h140l28 38q311 425 625 425q156 0 255 -90t99 -232q0 -200 -188 -308q-125 -72 -375 -72h-300q-148 -280 -148 -476q0 -110 58 -176t154 -66q133 0 264 156t194 391l16 60q33 123 132 123q53 0 86.5 -39t33.5 -101
q0 -196 -168 -463q-234 -373 -564 -373q-205 0 -335.5 137.5t-130.5 353.5q0 204 128 473zM746 922h195q248 0 248 135q0 40 -32.5 66.5t-82.5 26.5q-77 0 -165 -61t-163 -167z" />
    <glyph glyph-name="P" unicode="P" horiz-adv-x="1668" 
d="M1331 683l-166 -410q-124 -304 -191.5 -419t-170.5 -196q-150 -118 -348 -118q-209 0 -339 132t-130 343q0 282 206 493q111 114 278 183.5t331 69.5q79 0 127 -35.5t48 -93.5q0 -61 -52 -98q-30 -22 -115 -30q-198 -18 -321 -91q-102 -61 -161 -159.5t-59 -207.5
q0 -111 57.5 -176.5t154.5 -65.5q122 0 211 103t196 366l347 853h-109q-138 0 -138 96q0 68 48.5 105.5t136.5 37.5h381q192 0 283.5 -72.5t91.5 -223.5q0 -184 -142 -301q-103 -85 -318 -85h-137zM1428 922h81q160 0 160 130q0 74 -91 74h-67z" />
    <glyph glyph-name="Q" unicode="Q" horiz-adv-x="1462" 
d="M989 107l46 -83q20 -35 47 -46.5t91 -11.5h371q138 0 138 -98q0 -66 -48.5 -103.5t-135.5 -37.5h-469q-105 0 -166 105l-90 155q-84 -29 -170 -29q-188 0 -296.5 130t-108.5 355q0 172 66.5 362.5t169.5 315.5q100 121 228.5 189.5t254.5 68.5q188 0 303 -131t115 -345
q0 -222 -96.5 -444t-249.5 -352zM863 327q97 119 152 270t55 301q0 109 -50 173t-135 64q-145 0 -263 -180q-67 -102 -112.5 -250.5t-45.5 -263.5q0 -102 44 -168t112 -66q9 0 29 3l-38 63q-45 76 -45 120q0 51 34 86t84 35q44 0 70 -20.5t61 -81.5z" />
    <glyph glyph-name="R" unicode="R" horiz-adv-x="1886" 
d="M1589 563l211 -501q41 -97 107 -97l40 1h418q138 0 138 -94q0 -69 -48 -107t-137 -38h-461q-190 0 -264 180l-289 696l-134 -330q-96 -237 -136.5 -320.5t-93.5 -154.5q-191 -258 -481 -258q-211 0 -342 132t-131 346q0 279 206 491q111 113 278 182.5t331 69.5
q78 0 126.5 -35.5t48.5 -92.5q0 -62 -52 -99q-30 -21 -116 -30q-200 -18 -321 -91q-102 -62 -161 -160t-59 -205q0 -113 57.5 -178.5t156.5 -65.5q122 0 211.5 103t196.5 366l346 853h-103q-138 0 -138 95q0 69 48 106.5t136 37.5h332q130 0 190.5 -15t116.5 -62
q116 -97 116 -273q0 -160 -94.5 -284.5t-249.5 -167.5zM1364 751l29 2q114 7 170 44q108 71 108 191q0 138 -132 138h-22z" />
    <glyph glyph-name="S" unicode="S" horiz-adv-x="1367" 
d="M971 683l92 -116l53 -64q154 -190 154 -402q0 -206 -136 -361q-186 -213 -487 -213q-233 0 -382 143.5t-149 367.5q0 274 232 457q123 97 227 97q54 0 88 -31t34 -80q0 -66 -78 -114l-80 -49q-69 -43 -115 -120t-46 -152q0 -119 80.5 -196.5t204.5 -77.5q137 0 238 102.5
t101 241.5q0 88 -41 160t-177 223q-95 105 -136 184h-270q-138 0 -138 95q0 69 48.5 106.5t136.5 37.5h171q20 198 181 327.5t386 129.5q169 0 275.5 -93t106.5 -241q0 -197 -169 -302q-96 -60 -305 -60h-100zM851 922h240q203 0 203 118q0 46 -41.5 74t-110.5 28
q-108 0 -196.5 -67t-94.5 -153z" />
    <glyph glyph-name="T" unicode="T" horiz-adv-x="1528" 
d="M1518 1126l-346 -853q-126 -310 -192 -421.5t-170 -193.5q-153 -118 -350 -118q-211 0 -342.5 132.5t-131.5 345.5q0 281 207 492q111 113 278 182t330 69q78 0 126.5 -35.5t48.5 -92.5q0 -62 -52 -99q-29 -21 -116 -30q-200 -18 -321 -91q-102 -62 -161 -160t-59 -207
q0 -112 59 -177t160 -65q120 0 210 104t196 365l346 853h-195q-138 0 -138 98q0 66 49 103.5t136 37.5h657h26l70 -16q42 -23 42 -82q0 -66 -49 -103.5t-136 -37.5h-182z" />
    <glyph glyph-name="U" unicode="U" horiz-adv-x="1748" 
d="M1822 1126l-319 -785q-81 -198 -192.5 -288.5t-275.5 -90.5q-159 0 -267.5 95.5t-108.5 234.5q0 103 65 263l107 264q61 150 61 203q0 50 -42 84.5t-102 34.5q-98 0 -179 -86.5t-81 -190.5q0 -62 28 -97t98 -62q74 -29 74 -94q0 -56 -43 -93.5t-107 -37.5
q-127 0 -216.5 105.5t-89.5 255.5q0 218 163.5 381t382.5 163q166 0 275.5 -97.5t109.5 -245.5q0 -94 -53 -223l-152 -375q-33 -81 -33 -129q0 -50 33.5 -81.5t87.5 -31.5q69 0 114.5 47t94.5 169l329 809q35 88 72 113t129 25h216q138 0 138 -94q0 -70 -48 -107.5
t-136 -37.5h-133z" />
    <glyph glyph-name="V" unicode="V" horiz-adv-x="1712" 
d="M1817 1126l-615 -1036q-78 -131 -183 -131q-149 0 -149 187l-16 673q0 183 -31.5 246.5t-121.5 63.5q-83 0 -162.5 -85.5t-79.5 -174.5q0 -73 45.5 -116.5t121.5 -43.5q18 0 36 1q21 1 25 1q121 0 121 -101q0 -67 -68.5 -111.5t-172.5 -44.5q-165 0 -270.5 110.5
t-105.5 281.5q0 206 168.5 369.5t381.5 163.5q206 0 305 -141q37 -53 51.5 -144t14.5 -275v-396l485 825l25 43q25 43 54 58t88 15l39 1h176q139 0 139 -96q0 -67 -49 -105t-136 -38h-116z" />
    <glyph glyph-name="W" unicode="W" horiz-adv-x="2404" 
d="M2478 1126l-616 -1059q-69 -118 -167 -118q-75 0 -116 46.5t-41 132.5l26 717l-364 -778q-55 -118 -159 -118q-75 0 -117.5 47.5t-42.5 131.5l-21 691q0 183 -31.5 246.5t-122.5 63.5q-81 0 -161 -85.5t-80 -172.5q0 -73 45 -118t118 -45q21 0 40 1t24 1q122 0 122 -101
q0 -67 -69 -111.5t-174 -44.5q-162 0 -268 111t-106 281q0 207 168.5 370.5t381.5 163.5q195 0 282.5 -114.5t87.5 -366.5l1 -79l6 -348l357 775q60 133 183 133q70 0 113 -41.5t43 -110.5l-1 -11l-18 -761l450 775l21 39q55 96 169 96h195q139 0 139 -98q0 -66 -49 -103.5
t-136 -37.5h-112z" />
    <glyph glyph-name="X" unicode="X" horiz-adv-x="1578" 
d="M1251 662l126 -632q8 -38 30 -51t78 -13h380q139 0 139 -94q0 -69 -48.5 -107t-136.5 -38h-379h-54q-121 0 -174 45.5t-77 168.5l-89 467l-293 -356l-22 -27q-66 -79 -142 -79q-50 0 -83 32.5t-33 82.5q0 53 70 140l434 533l-39 211q-31 169 -148 169q-93 0 -170.5 -85.5
t-77.5 -187.5q0 -112 111 -132q120 -21 120 -111q0 -62 -50.5 -103.5t-126.5 -41.5q-137 0 -230 103.5t-93 255.5q0 222 166.5 389.5t386.5 167.5q131 0 222.5 -78t120.5 -215l21 -100l222 279q26 32 38 48q28 39 53.5 50.5t80.5 11.5h211q138 0 138 -95q0 -69 -48 -106.5
t-136 -37.5h-133z" />
    <glyph glyph-name="Y" unicode="Y" horiz-adv-x="1839" 
d="M1853 1126l-360 -887h135q138 0 138 -98q0 -66 -48.5 -103.5t-135.5 -37.5h-187l-73 -184q-122 -305 -254 -430.5t-329 -125.5q-186 0 -310 124t-124 309q0 140 73.5 257t207.5 192q171 95 473 95l159 2l34 83q-53 -26 -117 -26q-142 0 -235.5 87t-93.5 219q0 69 46 200
l22 59l21 59q23 63 23 105q0 48 -42 82t-101 34q-96 0 -175.5 -88t-79.5 -193q0 -60 27 -94.5t96 -60.5q72 -28 72 -92q0 -57 -43 -95t-107 -38q-127 0 -216.5 106t-89.5 256q0 218 164.5 380.5t384.5 162.5q165 0 273 -99t108 -250q0 -72 -25 -140l-39 -106
q-37 -99 -37 -141q0 -47 35 -80t84 -33q73 0 123 51t102 178l193 476q28 69 68.5 96.5t115.5 27.5h236q138 0 138 -94q0 -69 -48.5 -107t-136.5 -38h-145zM1121 0q-210 0 -322 -40q-105 -37 -164.5 -106.5t-59.5 -153.5q0 -78 51.5 -132t125.5 -54q91 0 164.5 81t146.5 262z
" />
    <glyph glyph-name="Z" unicode="Z" horiz-adv-x="1414" 
d="M894 627q239 -178 260 -388h131q138 0 138 -96q0 -67 -49 -105t-135 -38h-74q-22 -313 -234 -530t-496 -217q-220 0 -365 138.5t-145 349.5q0 227 161 362.5t430 135.5h371q-38 141 -191 223l-30 16q-84 44 -84 116q0 45 57 111l361 421h-414q-138 0 -138 95
q0 68 48.5 106t136.5 38h577q167 0 167 -130q0 -58 -56 -121zM901 0h-235q-226 0 -314 -36q-165 -67 -165 -227q0 -100 75.5 -169.5t184.5 -69.5q163 0 293.5 144t160.5 358z" />
    <glyph glyph-name="bracketleft" unicode="[" horiz-adv-x="932" 
d="M950 1188l-466 -1215h152q79 0 113 -23t34 -77q0 -146 -192 -146h-322q-119 0 -119 91q0 29 28 101l534 1375q30 79 68 109.5t104 30.5h269h44q38 0 63.5 -26t25.5 -64q0 -68 -56 -117q-44 -39 -168 -39h-112z" />
    <glyph glyph-name="backslash" unicode="\" horiz-adv-x="905" 
d="M623 1340l86 -1526q1 -24 1 -28q0 -41 -28.5 -70.5t-68.5 -29.5q-68 0 -73 93l-86 1527q-1 22 -1 25q0 44 28 73.5t70 29.5q66 0 71 -75z" />
    <glyph glyph-name="bracketright" unicode="]" horiz-adv-x="822" 
d="M349 -27l467 1215h-84q-79 0 -113 23t-34 77q0 146 192 146h253q120 0 120 -91q0 -26 -10 -54l-18 -47l-534 -1375q-30 -78 -68 -109t-104 -31h-270h-44q-37 0 -62.5 26t-25.5 64q0 68 56 117q44 39 168 39h111z" />
    <glyph glyph-name="asciicircum" unicode="^" horiz-adv-x="1024" 
d="M278 693h-264l332 680h331l333 -680h-265l-233 479z" />
    <glyph glyph-name="underscore" unicode="_" horiz-adv-x="1024" 
d="M0 -99h1024v-227h-1024v227z" />
    <glyph glyph-name="grave" unicode="`" horiz-adv-x="1024" 
d="M668 1058l42 -96q12 -29 12 -54q0 -28 -20.5 -48t-48.5 -20q-32 0 -66 26l-119 88q-57 42 -57 86q0 34 23.5 56.5t58.5 22.5h74q74 0 101 -61z" />
    <glyph glyph-name="a" unicode="a" horiz-adv-x="957" 
d="M777 218h110q126 0 126 -88q0 -61 -45 -95.5t-124 -34.5h-128q-86 0 -117 67q-75 -67 -145 -67h-114q-110 0 -177.5 78.5t-67.5 205.5q0 192 132.5 343.5t299.5 151.5q128 0 187 -89q50 75 131 75q44 0 73.5 -28t29.5 -69q0 -28 -16 -67l-11 -27zM414 213h25q82 0 109 67
l70 173q14 34 14 57q0 27 -26.5 47t-63.5 20q-73 0 -142 -85t-69 -176q0 -103 83 -103z" />
    <glyph glyph-name="b" unicode="b" horiz-adv-x="889" 
d="M590 765q45 14 80 14q116 0 188 -86.5t72 -224.5q0 -267 -206 -416q-72 -52 -150 -52h-95q-99 0 -169 71q-42 -71 -132 -71q-43 0 -73 28t-30 68q0 30 16 69l11 27l419 1033l11 28q47 112 145 112q45 0 75.5 -27.5t30.5 -67.5q0 -31 -16 -69l-11 -28zM391 275
q50 -64 117 -64q48 0 81 27q46 37 80.5 110t34.5 131q0 45 -26 73.5t-68 28.5q-95 0 -152 -141z" />
    <glyph glyph-name="c" unicode="c" horiz-adv-x="779" 
d="M667 0h-290q-125 0 -203.5 88t-78.5 228q0 187 129 325t303 138q118 0 192 -66t74 -172q0 -74 -37 -121.5t-95 -47.5q-92 0 -92 86v22q1 11 1 21q0 70 -69 70q-65 0 -118.5 -69t-53.5 -154q0 -71 43.5 -100.5t147.5 -29.5h189q127 0 127 -89q0 -60 -45.5 -94.5
t-123.5 -34.5z" />
    <glyph glyph-name="d" unicode="d" horiz-adv-x="968" 
d="M781 218h114q127 0 127 -89q0 -61 -45 -95t-124 -34h-135q-78 0 -114 64q-64 -64 -137 -64h-127q-111 0 -177.5 76t-66.5 202q0 193 131.5 347t295.5 154q121 0 193 -87l223 547q57 140 159 140q43 0 73 -27.5t30 -67.5q0 -31 -15 -70l-12 -27zM415 213h38q69 0 91 55
l75 185q14 34 14 52q0 30 -25.5 51t-63.5 21q-78 0 -145.5 -87t-67.5 -188q0 -89 84 -89z" />
    <glyph glyph-name="e" unicode="e" horiz-adv-x="814" 
d="M334 293q0 -75 113 -75h297q126 0 126 -89q0 -61 -44.5 -95t-124.5 -34h-283q-158 0 -240.5 78t-82.5 228q0 193 130.5 333t310.5 140q131 0 210.5 -68.5t79.5 -180.5q0 -135 -110 -200q-61 -37 -182 -37h-200zM382 475h110q107 0 104 47q-3 53 -69 53q-92 0 -145 -100z
" />
    <glyph glyph-name="f" unicode="f" horiz-adv-x="688" 
d="M646 765h138q127 0 127 -89q0 -61 -44.5 -95t-124.5 -34h-184l-449 -1107q-56 -137 -156 -137q-44 0 -74 27t-30 67q0 29 26 95l429 1055h-68q-127 0 -127 87q0 62 44.5 96.5t124.5 34.5h114l127 313q64 156 153.5 221.5t239.5 65.5h114q128 0 128 -88q0 -63 -45 -98
t-125 -35h-30q-84 0 -132.5 -34t-81.5 -115z" />
    <glyph glyph-name="g" unicode="g" horiz-adv-x="892" 
d="M683 -28h120q127 0 127 -88q0 -61 -45 -95.5t-124 -34.5h-166l-42 -103q-153 -375 -447 -375q-154 0 -256.5 95t-102.5 238q0 93 49.5 174.5t135.5 129.5q106 59 285 59h215l31 78q-63 -38 -119 -38q-107 0 -173.5 74t-66.5 193q0 192 135 346t303 154q123 0 184 -80
q47 80 133 80q42 0 71.5 -27.5t29.5 -66.5q0 -31 -26 -95zM553 272l81 198q10 25 10 41q0 30 -26.5 50t-66.5 20q-72 0 -137.5 -82.5t-65.5 -174.5q0 -105 98 -105q85 0 107 53zM343 -246h-173q-90 0 -139.5 -38t-49.5 -107q0 -47 34 -80t84 -33q72 0 126 57t118 201z" />
    <glyph glyph-name="h" unicode="h" horiz-adv-x="1023" 
d="M575 722q105 57 173 57q96 0 157.5 -53.5t61.5 -136.5q0 -50 -24 -109l-105 -262h115q126 0 126 -89q0 -61 -44.5 -95t-124.5 -34h-201q-64 0 -107.5 36.5t-43.5 89.5q0 36 23 92l92 226q17 43 17 65q0 57 -76 57q-102 0 -172 -174l-112 -275q-53 -131 -157 -131
q-41 0 -70 26t-29 63q0 28 15 66l11 27l435 1073q57 138 156 138q41 0 70.5 -27.5t29.5 -66.5q0 -32 -26 -95z" />
    <glyph glyph-name="i" unicode="i" horiz-adv-x="555" 
d="M372 218h113q126 0 126 -89q0 -61 -44.5 -95t-124.5 -34h-159q-88 0 -138.5 36t-50.5 98q0 33 21 84l165 406l11 28q46 113 148 113q42 0 72.5 -28t30.5 -67q0 -32 -27 -98zM504 1084q58 0 98.5 -40.5t40.5 -98.5t-40.5 -98.5t-98.5 -40.5t-98.5 40.5t-40.5 98.5
t40.5 98.5t98.5 40.5z" />
    <glyph glyph-name="j" unicode="j" horiz-adv-x="601" 
d="M390 -41h110q126 0 126 -89q0 -60 -44.5 -94.5t-124.5 -34.5h-156l-71 -143l-29 -59q-138 -276 -396 -276q-155 0 -260 94.5t-105 235.5q0 83 41 162.5t108 126.5q109 77 337 77h208l227 560h-108q-127 0 -127 89q0 61 44.5 95t125.5 34h239q121 0 121 -101
q0 -39 -21 -90zM45 -259h-140q-229 0 -229 -148q0 -48 32 -78.5t83 -30.5q73 0 129.5 56.5t124.5 200.5zM638 1084q58 0 98.5 -40.5t40.5 -98.5t-40.5 -98.5t-98.5 -40.5t-98.5 40.5t-40.5 98.5t40.5 98.5t98.5 40.5z" />
    <glyph glyph-name="k" unicode="k" horiz-adv-x="881" 
d="M704 423l155 -243q29 -45 29 -74q0 -46 -38.5 -83t-86.5 -37q-42 0 -73 45l-12 18l-232 347l-112 -277q-54 -133 -158 -133q-43 0 -72.5 26.5t-29.5 64.5q0 29 16 67l11 27l428 1055l11 27q46 112 147 112q42 0 72 -28t30 -67q0 -30 -16 -69l-11 -27l-255 -628l225 167
q70 52 120 52q42 0 70 -27t28 -67q0 -67 -74 -122l-23 -17z" />
    <glyph glyph-name="l" unicode="l" horiz-adv-x="544" 
d="M362 218h105q127 0 127 -89q0 -61 -44.5 -95t-124.5 -34h-180q-74 0 -117 35t-43 94q0 31 29 103l404 994l11 27q46 112 147 112q42 0 71.5 -28t29.5 -67q0 -30 -15 -68l-11 -27z" />
    <glyph glyph-name="m" unicode="m" horiz-adv-x="1486" 
d="M1297 218h119q126 0 126 -89q0 -61 -44.5 -95t-123.5 -34h-203q-66 0 -107 35t-41 92q0 39 27 106l94 229q8 20 8 37q0 65 -66 65q-51 0 -101 -46t-80 -122l-112 -276q-55 -134 -160 -134q-41 0 -70 27t-29 64q0 29 15 68l11 27l113 279q15 37 15 58q0 22 -20 38.5
t-47 16.5q-108 0 -171 -156l-117 -287q-55 -135 -159 -135q-41 0 -70.5 26.5t-29.5 64.5q0 30 15 68l11 27l199 490q42 103 126 103q87 0 108 -82q68 58 110.5 77t104.5 19q134 0 201 -117q112 117 252 117q96 0 160.5 -55.5t64.5 -136.5q0 -51 -22 -105z" />
    <glyph glyph-name="n" unicode="n" horiz-adv-x="1025" 
d="M835 218h120q127 0 127 -89q0 -61 -45 -95t-124 -34h-209q-61 0 -102.5 37t-41.5 93q0 34 28 102l88 218q14 34 15 55q1 24 -19.5 41t-52.5 17q-103 0 -166 -155l-118 -290q-53 -132 -158 -132q-43 0 -73 26t-30 64q0 28 16 67l11 27l202 498q39 97 133 97q77 0 110 -68
q107 82 204 82q94 0 155 -54t61 -137q0 -46 -22 -101z" />
    <glyph glyph-name="o" unicode="o" horiz-adv-x="848" 
d="M557 779q145 0 238.5 -92t93.5 -234q0 -107 -49 -212.5t-127 -168.5q-52 -41 -107.5 -56.5t-155.5 -15.5q-163 0 -220 39q-134 92 -134 272q0 190 137 329t324 139zM533 566q-74 0 -135 -73t-61 -161q0 -116 130 -116q76 0 117 47q68 77 68 176q0 57 -33 92t-86 35z" />
    <glyph glyph-name="p" unicode="p" horiz-adv-x="894" 
d="M311 78l-261 -642q-54 -133 -158 -133q-40 0 -68.5 26.5t-28.5 63.5q0 31 25 94l482 1188q37 90 128 90q63 0 100 -60q70 74 171 74q105 0 169.5 -79.5t64.5 -209.5q0 -246 -153 -401q-50 -51 -103 -70t-148 -19q-102 0 -140.5 14t-79.5 64zM393 282q25 -44 47.5 -57
t71.5 -13q71 0 111 53q81 107 81 220q0 97 -92 97q-101 0 -145 -117q-5 -13 -8 -22z" />
    <glyph glyph-name="q" unicode="q" horiz-adv-x="844" 
d="M491 -478h110q127 0 127 -90q0 -61 -44.5 -94.5t-125.5 -33.5h-185q-68 0 -110 34t-42 89q0 40 28 109l206 507q-54 -43 -126 -43q-100 0 -166.5 76.5t-66.5 190.5q0 105 47.5 216t121.5 182q120 114 283 114q137 0 223.5 -78.5t86.5 -203.5q0 -70 -39 -165zM545 264
l69 171q11 28 11 55q0 30 -27.5 50.5t-67.5 20.5q-68 0 -129 -78t-61 -165q0 -98 104 -98q31 0 62.5 14t38.5 30z" />
    <glyph glyph-name="r" unicode="r" horiz-adv-x="836" 
d="M344 546l-34 -84q-46 -112 -120 -112q-45 0 -75 27t-30 67q0 23 22 78l113 279q41 101 116 101q74 0 91 -70l8 -31q6 -24 18 -30t59 -6h234q131 0 131 -92q0 -127 -166 -127l-11 -10q-159 -152 -159 -235t92 -83h126q127 0 127 -88q0 -62 -44.5 -96t-124.5 -34h-196
q-100 0 -163.5 69t-63.5 179q0 70 34 136t120 162h-104z" />
    <glyph glyph-name="s" unicode="s" horiz-adv-x="715" 
d="M427 492l-19 -46q-44 -99 -125 -99q-41 0 -73.5 28.5t-32.5 65.5q0 35 29 93l133 270q49 97 122 97q39 0 67 -25.5t28 -60.5q0 -9 -6 -39q-4 -22 -4 -39q0 -63 47 -129l57 -79q87 -121 87 -234q0 -126 -94 -210.5t-234 -84.5h-209q-127 0 -127 88q0 61 45 95.5t124 34.5
h116q139 0 139 101q0 37 -26 87z" />
    <glyph glyph-name="t" unicode="t" horiz-adv-x="616" 
d="M594 765h31q127 0 127 -89q0 -61 -45 -95t-124 -34h-73l-134 -329h112q127 0 127 -89q0 -61 -44.5 -95t-124.5 -34h-179q-76 0 -120.5 35t-44.5 95q0 37 18 82l19 44l118 291h-15q-112 0 -112 87q0 62 44.5 96.5t124.5 34.5h46l53 131l11 27q47 111 148 111
q41 0 70.5 -27.5t29.5 -66.5q0 -38 -26 -96z" />
    <glyph glyph-name="u" unicode="u" horiz-adv-x="985" 
d="M799 218h116q69 0 98 -20.5t29 -67.5q0 -61 -44.5 -95.5t-124.5 -34.5h-179q-84 0 -112 65q-55 -65 -138 -65h-146q-88 0 -146 55t-58 139q0 48 26 112l136 334q57 139 156 139q43 0 73 -27.5t30 -67.5q0 -30 -16 -69l-11 -27l-105 -257l-11 -30q-9 -26 -10 -39
q-2 -45 58 -45q124 0 165 100l125 308q56 140 158 140q42 0 72 -28t30 -67q0 -31 -26 -96z" />
    <glyph glyph-name="v" unicode="v" horiz-adv-x="687" 
d="M346 352l232 316l18 27q58 84 130 84q47 0 77 -29.5t30 -75.5q0 -50 -60 -128l-370 -479q-62 -81 -146 -81q-71 0 -112 49.5t-41 135.5q0 18 1 29l36 399q7 81 43.5 123.5t98.5 42.5q95 0 95 -96q0 -14 -4 -48z" />
    <glyph glyph-name="w" unicode="w" horiz-adv-x="1165" 
d="M824 372l235 306l19 24q59 77 130 77q45 0 74 -29.5t29 -74.5q0 -47 -61 -124l-375 -472q-74 -93 -153 -93q-65 0 -110 49t-45 120q0 18 3 37l33 180l-204 -293q-64 -93 -142 -93q-67 0 -110 52t-43 134q0 12 1 20l28 419q6 81 42.5 124.5t99.5 43.5q94 0 94 -103
q0 -17 -2 -38l-28 -280l223 319q71 102 165 102q58 0 92 -33t34 -89q0 -23 -1 -34z" />
    <glyph glyph-name="x" unicode="x" horiz-adv-x="699" 
d="M459 566l113 128q75 85 140 85q45 0 75 -29.5t30 -73.5q0 -61 -79 -140l-171 -169l83 -194l9 -20q11 -25 11 -49q0 -45 -39.5 -81.5t-88.5 -36.5q-59 0 -93 72l-62 136l-117 -124l-21 -22q-59 -62 -120 -62q-45 0 -74.5 29.5t-29.5 73.5q0 55 76 133l178 183l-77 179
q-19 45 -19 70q0 48 39.5 86.5t88.5 38.5q60 0 94 -83z" />
    <glyph glyph-name="y" unicode="y" horiz-adv-x="878" 
d="M665 -41h116q127 0 127 -89q0 -61 -44.5 -95t-124.5 -34h-162q-29 -86 -105 -228q-132 -250 -384 -250q-153 0 -257 96t-104 238q0 99 56.5 184.5t148.5 128.5q106 49 313 49h163l29 72q-74 -31 -136 -31q-107 0 -173.5 54.5t-66.5 141.5q0 53 43 159l109 269l11 28
q48 113 149 113q44 0 73.5 -28t29.5 -71q0 -29 -26 -94l-98 -239q-23 -58 -24 -75q-3 -49 62 -49q46 0 94 27t61 61l134 327l10 28q47 113 149 113q44 0 73.5 -28.5t29.5 -70.5q0 -29 -15 -67l-12 -27zM338 -259h-140q-230 0 -230 -144q0 -51 31.5 -82t84.5 -31
q73 0 129.5 57t124.5 200z" />
    <glyph glyph-name="z" unicode="z" horiz-adv-x="799" 
d="M467 218h252q126 0 126 -89q0 -61 -44.5 -95t-124.5 -34h-466q-62 0 -98.5 31t-36.5 84q0 51 67 116l327 315l-111 -4h-25q-109 0 -109 90q0 56 43 94.5t105 38.5h25h311q139 0 139 -118q0 -61 -63 -123z" />
    <glyph glyph-name="braceleft" unicode="{" horiz-adv-x="887" 
d="M553 608q60 -50 60 -114q0 -54 -34 -143l-89 -232l-10 -27q-18 -46 -19 -71q-2 -42 86 -47q69 -4 97 -26.5t28 -73.5q0 -68 -47.5 -107.5t-130.5 -39.5h-41l-34 1l-72 2q-204 0 -204 141q0 70 39 172l101 264q28 72 28 112q0 37 -49 68q-42 25 -54 41.5t-12 48.5
q0 122 138 152q68 15 107.5 54.5t72.5 125.5l81 209q120 313 394 313l45 2l34 1h45q120 0 120 -99q0 -148 -199 -148q-88 0 -120.5 -25t-69.5 -120l-68 -177q-39 -102 -86.5 -157t-136.5 -100z" />
    <glyph glyph-name="bar" unicode="|" horiz-adv-x="1024" 
d="M386 1365h253v-1706h-253v1706z" />
    <glyph glyph-name="braceright" unicode="}" horiz-adv-x="887" 
d="M589 553q-60 50 -60 115q0 53 34 142l89 232l10 27q17 46 18 71q2 42 -86 47q-68 4 -96 26.5t-28 73.5q0 68 47.5 107.5t130.5 39.5h41l34 -1l72 -2q204 0 204 -141q0 -70 -39 -172l-101 -264q-28 -72 -28 -112q0 -37 49 -68q42 -25 54 -41.5t12 -48.5q0 -121 -138 -152
q-69 -16 -108 -55t-72 -125l-81 -209q-120 -313 -394 -313l-45 -2l-34 -1h-45q-120 0 -120 99q0 148 199 148q88 0 120.5 25t69.5 120l68 177q39 102 86.5 157t136.5 100z" />
    <glyph glyph-name="asciitilde" unicode="~" horiz-adv-x="1365" 
d="M324 1152l-139 92q10 22 15 34q62 138 125.5 191.5t167.5 53.5q68 0 213 -54q133 -50 183 -50q48 0 79 22.5t69 85.5l143 -84q-70 -147 -142.5 -207.5t-179.5 -60.5q-55 0 -205 54q-138 50 -176 50q-51 0 -82 -25.5t-71 -101.5z" />
    <glyph glyph-name="Adieresis" unicode="&#xc4;" horiz-adv-x="2138" 
d="M1613 512h-277l-331 -573q-234 -407 -555 -407q-197 0 -330.5 141.5t-133.5 350.5q0 170 103 327.5t281 261.5q133 76 295 107t431 31h74l79 145q165 303 403 404q153 65 400 65q63 0 99 -28t36 -78q0 -23 -12 -54l-9 -23l-172 -431h76h26q112 0 112 -97
q0 -59 -46 -100.5t-112 -41.5h-27h-126l-111 -273h163h26q112 0 112 -96q0 -60 -46 -101.5t-112 -41.5h-27h-214q-86 0 -140.5 44.5t-54.5 115.5q0 55 41 156zM1711 751l144 355q-106 -7 -178.5 -67.5t-165.5 -219.5l-41 -68h241zM1033 512h-85q-286 0 -454 -106
q-107 -68 -170.5 -170t-63.5 -206q0 -95 61 -162.5t148 -67.5q151 0 267 200zM2119 1710q57 0 96.5 -39.5t39.5 -95.5q0 -57 -39.5 -96.5t-96.5 -39.5q-56 0 -95.5 39.5t-39.5 96.5q0 56 39.5 95.5t95.5 39.5zM1711 1710q56 0 95.5 -39.5t39.5 -95.5q0 -57 -39.5 -96.5
t-95.5 -39.5q-57 0 -96.5 39.5t-39.5 96.5q0 56 39.5 95.5t96.5 39.5z" />
    <glyph glyph-name="Aring" unicode="&#xc5;" horiz-adv-x="2138" 
d="M1613 512h-277l-331 -573q-234 -407 -555 -407q-197 0 -330.5 141.5t-133.5 350.5q0 170 103 327.5t281 261.5q133 76 295 107t431 31h74l79 145q165 303 403 404q153 65 400 65q63 0 99 -28t36 -78q0 -23 -12 -54l-9 -23l-172 -431h76h26q112 0 112 -97
q0 -59 -46 -100.5t-112 -41.5h-27h-126l-111 -273h163h26q112 0 112 -96q0 -60 -46 -101.5t-112 -41.5h-27h-214q-86 0 -140.5 44.5t-54.5 115.5q0 55 41 156zM1711 751l144 355q-106 -7 -178.5 -67.5t-165.5 -219.5l-41 -68h241zM1033 512h-85q-286 0 -454 -106
q-107 -68 -170.5 -170t-63.5 -206q0 -95 61 -162.5t148 -67.5q151 0 267 200zM2066 1791q73 0 125 -52t52 -125q0 -74 -52 -126t-125 -52q-74 0 -126 52t-52 126q0 73 52 125t126 52zM2065 1677q-27 0 -46.5 -19.5t-19.5 -46.5q0 -28 19.5 -47.5t46.5 -19.5q28 0 47.5 19.5
t19.5 47.5q0 27 -19.5 46.5t-47.5 19.5z" />
    <glyph glyph-name="Ccedilla" unicode="&#xc7;" horiz-adv-x="1180" 
d="M885 -273q-6 -19 -19 -40l-30 -48q19 5 35 5q68 0 118.5 -57t50.5 -134q0 -96 -62.5 -157t-161.5 -61h-121q-83 0 -83 53q0 42 29.5 65.5t80.5 23.5h74q86 0 86 72q0 68 -64 68q-29 0 -56 -18q-31 -21 -60 -21q-55 0 -55 54q0 25 18 58l76 137h-57q-145 0 -232 40
q-121 56 -190 172.5t-69 265.5q0 200 122 478h-56h-26q-112 0 -112 96q0 60 46 101.5t112 41.5h27h145q90 150 242 289q194 175 419 175q148 0 245 -91t97 -232q0 -201 -187 -308q-127 -72 -404 -72h-261q-135 -240 -135 -445q0 -146 66.5 -209t221.5 -63h556q138 0 138 -94
q0 -68 -48.5 -106.5t-136.5 -38.5h-379zM751 922h194q249 0 249 133q0 42 -32.5 68.5t-82.5 26.5q-77 0 -166 -62t-162 -166z" />
    <glyph glyph-name="Eacute" unicode="&#xc9;" horiz-adv-x="1605" 
d="M945 751l202 489q33 81 66 103t123 22h516q138 0 138 -94q0 -62 -45.5 -103.5t-112.5 -41.5h-27h-426l-152 -375h125h26q112 0 112 -97q0 -59 -46 -100.5t-112 -41.5h-27h-175l-222 -546h691h26q112 0 112 -94q0 -62 -45.5 -103.5t-112.5 -41.5h-27h-741l-13 -28
q-70 -156 -109.5 -219t-103.5 -122q-167 -153 -384 -153q-177 0 -291.5 105t-114.5 267q0 101 49 189t133 137q109 63 295 63h354l222 546h-9h-24q-112 0 -112 98q0 59 46 100t112 41h27h57zM529 -273h-264q-196 0 -196 -139q0 -57 43.5 -95.5t107.5 -38.5q90 0 172.5 73
t136.5 200zM1739 1575l-123 -97q-44 -35 -76 -35q-27 0 -48 20.5t-21 47.5q0 11 4 21l8 20l38 100q24 66 93 66h58q101 0 101 -79q0 -37 -34 -64z" />
    <glyph glyph-name="Ntilde" unicode="&#xd1;" horiz-adv-x="2035" 
d="M2140 1126l-404 -996l-19 -47q-43 -97 -141 -97q-78 0 -111 43t-42 157l-46 603l-209 -516q-126 -310 -191.5 -421.5t-170.5 -193.5q-152 -118 -349 -118q-210 0 -340.5 132t-130.5 343q0 282 206 493q110 113 276.5 183t325.5 70q84 0 133 -34.5t49 -93.5q0 -60 -39 -90
t-129 -38q-199 -19 -321 -92q-101 -61 -160.5 -159t-59.5 -205q0 -114 58.5 -179.5t161.5 -65.5q119 0 209.5 104t196.5 365l396 975q53 131 161 131q125 0 136 -149l52 -666l271 666l16 40q39 94 137 94l41 1h205q139 0 139 -94q0 -69 -49 -107t-136 -38h-122zM1572 1595
l40 50q44 57 109 57q36 0 87 -34l31 -21q14 -9 24 -9q11 0 24 13l24 24q21 21 51 21q38 0 65 -23.5t27 -56.5q0 -39 -29 -73l-58 -65q-39 -45 -93 -45q-47 0 -98 42q-29 24 -39 24q-13 0 -33 -19q-41 -40 -87 -40q-33 0 -55.5 23t-22.5 57q0 33 33 75z" />
    <glyph glyph-name="Odieresis" unicode="&#xd6;" horiz-adv-x="1350" 
d="M310 683h-50q-139 0 -139 95q0 68 48.5 106t136.5 38h140l28 38q311 425 625 425q156 0 255 -90t99 -232q0 -200 -188 -308q-125 -72 -375 -72h-300q-148 -280 -148 -476q0 -110 58 -176t154 -66q133 0 264 156t194 391l16 60q33 123 132 123q53 0 86.5 -39t33.5 -101
q0 -196 -168 -463q-234 -373 -564 -373q-205 0 -335.5 137.5t-130.5 353.5q0 204 128 473zM746 922h195q248 0 248 135q0 40 -32.5 66.5t-82.5 26.5q-77 0 -165 -61t-163 -167zM1383 1710q57 0 96.5 -39.5t39.5 -95.5q0 -57 -39.5 -96.5t-96.5 -39.5q-56 0 -95.5 39.5
t-39.5 96.5q0 56 39.5 95.5t95.5 39.5zM976 1710q56 0 95.5 -39.5t39.5 -95.5q0 -57 -39.5 -96.5t-95.5 -39.5q-57 0 -96.5 39.5t-39.5 96.5q0 56 39.5 95.5t96.5 39.5z" />
    <glyph glyph-name="Udieresis" unicode="&#xdc;" horiz-adv-x="1748" 
d="M1822 1126l-319 -785q-81 -198 -192.5 -288.5t-275.5 -90.5q-159 0 -267.5 95.5t-108.5 234.5q0 103 65 263l107 264q61 150 61 203q0 50 -42 84.5t-102 34.5q-98 0 -179 -86.5t-81 -190.5q0 -62 28 -97t98 -62q74 -29 74 -94q0 -56 -43 -93.5t-107 -37.5
q-127 0 -216.5 105.5t-89.5 255.5q0 218 163.5 381t382.5 163q166 0 275.5 -97.5t109.5 -245.5q0 -94 -53 -223l-152 -375q-33 -81 -33 -129q0 -50 33.5 -81.5t87.5 -31.5q69 0 114.5 47t94.5 169l329 809q35 88 72 113t129 25h216q138 0 138 -94q0 -70 -48 -107.5
t-136 -37.5h-133zM1584 1710q56 0 95.5 -39.5t39.5 -95.5q0 -57 -39.5 -96.5t-95.5 -39.5q-57 0 -96.5 39.5t-39.5 96.5q0 56 39.5 95.5t96.5 39.5zM1174 1710q57 0 96.5 -39.5t39.5 -95.5q0 -57 -39.5 -96.5t-96.5 -39.5q-56 0 -95.5 39.5t-39.5 96.5q0 56 39.5 95.5
t95.5 39.5z" />
    <glyph glyph-name="aacute" unicode="&#xe1;" horiz-adv-x="957" 
d="M777 218h110q126 0 126 -88q0 -61 -45 -95.5t-124 -34.5h-128q-86 0 -117 67q-75 -67 -145 -67h-114q-110 0 -177.5 78.5t-67.5 205.5q0 192 132.5 343.5t299.5 151.5q128 0 187 -89q50 75 131 75q44 0 73.5 -28t29.5 -69q0 -28 -16 -67l-11 -27zM414 213h25q82 0 109 67
l70 173q14 34 14 57q0 27 -26.5 47t-63.5 20q-73 0 -142 -85t-69 -176q0 -103 83 -103zM812 973l-123 -97q-44 -35 -76 -35q-27 0 -48 20.5t-21 47.5q0 11 4 21l8 20l38 100q25 66 93 66h58q101 0 101 -79q0 -37 -34 -64z" />
    <glyph glyph-name="agrave" unicode="&#xe0;" horiz-adv-x="957" 
d="M777 218h110q126 0 126 -88q0 -61 -45 -95.5t-124 -34.5h-128q-86 0 -117 67q-75 -67 -145 -67h-114q-110 0 -177.5 78.5t-67.5 205.5q0 192 132.5 343.5t299.5 151.5q128 0 187 -89q50 75 131 75q44 0 73.5 -28t29.5 -69q0 -28 -16 -67l-11 -27zM414 213h25q82 0 109 67
l70 173q14 34 14 57q0 27 -26.5 47t-63.5 20q-73 0 -142 -85t-69 -176q0 -103 83 -103zM634 1058l42 -96q12 -29 12 -54q0 -28 -20.5 -48t-48.5 -20q-32 0 -66 26l-119 88q-57 42 -57 86q0 34 23.5 56.5t58.5 22.5h74q74 0 101 -61z" />
    <glyph glyph-name="acircumflex" unicode="&#xe2;" horiz-adv-x="957" 
d="M777 218h110q126 0 126 -88q0 -61 -45 -95.5t-124 -34.5h-128q-86 0 -117 67q-75 -67 -145 -67h-114q-110 0 -177.5 78.5t-67.5 205.5q0 192 132.5 343.5t299.5 151.5q128 0 187 -89q50 75 131 75q44 0 73.5 -28t29.5 -69q0 -28 -16 -67l-11 -27zM414 213h25q82 0 109 67
l70 173q14 34 14 57q0 27 -26.5 47t-63.5 20q-73 0 -142 -85t-69 -176q0 -103 83 -103zM671 942l-119 -65q-54 -30 -87 -30q-30 0 -53.5 26t-23.5 59q0 57 85 102l117 63q58 31 99 31q25 0 53 -23q10 -8 21 -17l81 -67q51 -42 51 -91q0 -35 -24.5 -58.5t-60.5 -23.5
q-33 0 -80 42z" />
    <glyph glyph-name="adieresis" unicode="&#xe4;" horiz-adv-x="957" 
d="M777 218h110q126 0 126 -88q0 -61 -45 -95.5t-124 -34.5h-128q-86 0 -117 67q-75 -67 -145 -67h-114q-110 0 -177.5 78.5t-67.5 205.5q0 192 132.5 343.5t299.5 151.5q128 0 187 -89q50 75 131 75q44 0 73.5 -28t29.5 -69q0 -28 -16 -67l-11 -27zM414 213h25q82 0 109 67
l70 173q14 34 14 57q0 27 -26.5 47t-63.5 20q-73 0 -142 -85t-69 -176q0 -103 83 -103zM860 1123q56 0 95.5 -39.5t39.5 -95.5q0 -57 -39.5 -96.5t-95.5 -39.5q-57 0 -96.5 39.5t-39.5 96.5q0 56 39.5 95.5t96.5 39.5zM478 1123q57 0 96.5 -39.5t39.5 -95.5
q0 -57 -39.5 -96.5t-96.5 -39.5q-56 0 -95.5 39.5t-39.5 96.5q0 56 39.5 95.5t95.5 39.5z" />
    <glyph glyph-name="atilde" unicode="&#xe3;" horiz-adv-x="957" 
d="M777 218h110q126 0 126 -88q0 -61 -45 -95.5t-124 -34.5h-128q-86 0 -117 67q-75 -67 -145 -67h-114q-110 0 -177.5 78.5t-67.5 205.5q0 192 132.5 343.5t299.5 151.5q128 0 187 -89q50 75 131 75q44 0 73.5 -28t29.5 -69q0 -28 -16 -67l-11 -27zM414 213h25q82 0 109 67
l70 173q14 34 14 57q0 27 -26.5 47t-63.5 20q-73 0 -142 -85t-69 -176q0 -103 83 -103zM433 1008l40 50q45 57 109 57q36 0 87 -34l32 -21q13 -9 23 -9q12 0 25 13l23 24q21 21 51 21q39 0 66.5 -24.5t25.5 -58.5q-2 -39 -29 -70l-58 -65q-39 -45 -93 -45q-47 0 -98 42
q-29 24 -39 24q-13 0 -33 -19q-41 -40 -87 -40q-33 0 -55.5 23t-22.5 57q0 33 33 75z" />
    <glyph glyph-name="aring" unicode="&#xe5;" horiz-adv-x="957" 
d="M777 218h110q126 0 126 -88q0 -61 -45 -95.5t-124 -34.5h-128q-86 0 -117 67q-75 -67 -145 -67h-114q-110 0 -177.5 78.5t-67.5 205.5q0 192 132.5 343.5t299.5 151.5q128 0 187 -89q50 75 131 75q44 0 73.5 -28t29.5 -69q0 -28 -16 -67l-11 -27zM414 213h25q82 0 109 67
l70 173q14 34 14 57q0 27 -26.5 47t-63.5 20q-73 0 -142 -85t-69 -176q0 -103 83 -103zM656 1190q73 0 125 -52t52 -125q0 -74 -52 -126t-125 -52q-74 0 -126 52t-52 126q0 73 52 125t126 52zM655 1076q-27 0 -46.5 -19.5t-19.5 -46.5q0 -28 19.5 -47.5t46.5 -19.5
q28 0 47.5 19.5t19.5 47.5q0 27 -19.5 46.5t-47.5 19.5z" />
    <glyph glyph-name="ccedilla" unicode="&#xe7;" horiz-adv-x="779" 
d="M548 0q-6 -19 -20 -40l-30 -48q19 5 36 5q67 0 117.5 -57t50.5 -134q0 -97 -62.5 -157.5t-161.5 -60.5h-121q-82 0 -82 53q0 42 29 65.5t80 23.5h75q85 0 85 73q0 67 -64 67q-29 0 -56 -18q-31 -21 -60 -21q-55 0 -55 54q0 23 19 58l75 137h-26q-125 0 -203.5 88
t-78.5 228q0 187 129 325t303 138q118 0 192 -66t74 -172q0 -74 -37 -121.5t-95 -47.5q-92 0 -92 86v22q1 11 1 21q0 70 -69 70q-65 0 -118.5 -69t-53.5 -154q0 -71 43.5 -100.5t147.5 -29.5h189q127 0 127 -89q0 -60 -45.5 -94.5t-123.5 -34.5h-119z" />
    <glyph glyph-name="eacute" unicode="&#xe9;" horiz-adv-x="814" 
d="M334 293q0 -75 113 -75h297q126 0 126 -89q0 -61 -44.5 -95t-124.5 -34h-283q-158 0 -240.5 78t-82.5 228q0 193 130.5 333t310.5 140q131 0 210.5 -68.5t79.5 -180.5q0 -135 -110 -200q-61 -37 -182 -37h-200zM382 475h110q107 0 104 47q-3 53 -69 53q-92 0 -145 -100z
M741 973l-123 -97q-44 -35 -76 -35q-27 0 -48 20.5t-21 47.5q0 11 4 21l8 20l38 100q25 66 93 66h58q101 0 101 -79q0 -37 -34 -64z" />
    <glyph glyph-name="egrave" unicode="&#xe8;" horiz-adv-x="814" 
d="M334 293q0 -75 113 -75h297q126 0 126 -89q0 -61 -44.5 -95t-124.5 -34h-283q-158 0 -240.5 78t-82.5 228q0 193 130.5 333t310.5 140q131 0 210.5 -68.5t79.5 -180.5q0 -135 -110 -200q-61 -37 -182 -37h-200zM382 475h110q107 0 104 47q-3 53 -69 53q-92 0 -145 -100z
M563 1058l42 -96q12 -29 12 -54q0 -28 -20.5 -48t-48.5 -20q-32 0 -66 26l-119 88q-57 42 -57 86q0 34 23.5 56.5t58.5 22.5h74q74 0 101 -61z" />
    <glyph glyph-name="ecircumflex" unicode="&#xea;" horiz-adv-x="814" 
d="M334 293q0 -75 113 -75h297q126 0 126 -89q0 -61 -44.5 -95t-124.5 -34h-283q-158 0 -240.5 78t-82.5 228q0 193 130.5 333t310.5 140q131 0 210.5 -68.5t79.5 -180.5q0 -135 -110 -200q-61 -37 -182 -37h-200zM382 475h110q107 0 104 47q-3 53 -69 53q-92 0 -145 -100z
M600 942l-119 -65q-54 -30 -87 -30q-30 0 -53.5 26t-23.5 59q0 57 85 102l117 63q58 31 99 31q25 0 53 -23q10 -8 21 -17l81 -67q51 -42 51 -91q0 -35 -24.5 -58.5t-60.5 -23.5q-33 0 -80 42z" />
    <glyph glyph-name="edieresis" unicode="&#xeb;" horiz-adv-x="814" 
d="M334 293q0 -75 113 -75h297q126 0 126 -89q0 -61 -44.5 -95t-124.5 -34h-283q-158 0 -240.5 78t-82.5 228q0 193 130.5 333t310.5 140q131 0 210.5 -68.5t79.5 -180.5q0 -135 -110 -200q-61 -37 -182 -37h-200zM382 475h110q107 0 104 47q-3 53 -69 53q-92 0 -145 -100z
M789 1123q56 0 95.5 -39.5t39.5 -95.5q0 -57 -39.5 -96.5t-95.5 -39.5q-57 0 -96.5 39.5t-39.5 96.5q0 56 39.5 95.5t96.5 39.5zM407 1123q57 0 96.5 -39.5t39.5 -95.5q0 -57 -39.5 -96.5t-96.5 -39.5q-56 0 -95.5 39.5t-39.5 96.5q0 56 39.5 95.5t95.5 39.5z" />
    <glyph glyph-name="iacute" unicode="&#xed;" horiz-adv-x="555" 
d="M372 218h113q126 0 126 -89q0 -61 -44.5 -95t-124.5 -34h-159q-88 0 -138.5 36t-50.5 98q0 33 21 84l165 406l11 28q46 113 148 113q42 0 72.5 -28t30.5 -67q0 -32 -27 -98zM666 973l-123 -97q-44 -35 -76 -35q-27 0 -48 20.5t-21 47.5q0 11 4 21l8 20l38 100
q25 66 93 66h58q101 0 101 -79q0 -37 -34 -64z" />
    <glyph glyph-name="igrave" unicode="&#xec;" horiz-adv-x="555" 
d="M372 218h113q126 0 126 -89q0 -61 -44.5 -95t-124.5 -34h-159q-88 0 -138.5 36t-50.5 98q0 33 21 84l165 406l11 28q46 113 148 113q42 0 72.5 -28t30.5 -67q0 -32 -27 -98zM488 1058l42 -96q12 -29 12 -54q0 -28 -20.5 -48t-48.5 -20q-32 0 -66 26l-119 88
q-57 42 -57 86q0 34 23.5 56.5t58.5 22.5h74q74 0 101 -61z" />
    <glyph glyph-name="icircumflex" unicode="&#xee;" horiz-adv-x="555" 
d="M511 942l-119 -65q-54 -30 -87 -30q-30 0 -53.5 26t-23.5 59q0 57 85 102l117 63q58 31 99 31q25 0 53 -23q10 -8 21 -17l81 -67q51 -42 51 -91q0 -35 -24.5 -58.5t-60.5 -23.5q-33 0 -80 42zM372 218h113q126 0 126 -89q0 -61 -44.5 -95t-124.5 -34h-159
q-88 0 -138.5 36t-50.5 98q0 33 21 84l165 406l11 28q46 113 148 113q42 0 72.5 -28t30.5 -67q0 -32 -27 -98z" />
    <glyph glyph-name="idieresis" unicode="&#xef;" horiz-adv-x="555" 
d="M372 218h113q126 0 126 -89q0 -61 -44.5 -95t-124.5 -34h-159q-88 0 -138.5 36t-50.5 98q0 33 21 84l165 406l11 28q46 113 148 113q42 0 72.5 -28t30.5 -67q0 -32 -27 -98zM629 1123q51 0 86.5 -39.5t35.5 -95.5q0 -57 -35.5 -96.5t-86.5 -39.5t-86.5 39.5t-35.5 96.5
q0 56 35.5 95.5t86.5 39.5zM327 1123q51 0 86.5 -39.5t35.5 -95.5q0 -57 -35.5 -96.5t-86.5 -39.5q-50 0 -86 39.5t-36 96.5q0 56 36 95.5t86 39.5z" />
    <glyph glyph-name="ntilde" unicode="&#xf1;" horiz-adv-x="1025" 
d="M835 218h120q127 0 127 -89q0 -61 -45 -95t-124 -34h-209q-61 0 -102.5 37t-41.5 93q0 34 28 102l88 218q14 34 15 55q1 24 -19.5 41t-52.5 17q-103 0 -166 -155l-118 -290q-53 -132 -158 -132q-43 0 -73 26t-30 64q0 28 16 67l11 27l202 498q39 97 133 97q77 0 110 -68
q107 82 204 82q94 0 155 -54t61 -137q0 -46 -22 -101zM466 1008l40 50q45 57 109 57q36 0 87 -34l32 -21q13 -9 23 -9q12 0 25 13l23 24q21 21 51 21q39 0 66.5 -24.5t25.5 -58.5q-2 -39 -29 -70l-58 -65q-39 -45 -93 -45q-47 0 -98 42q-29 24 -39 24q-13 0 -33 -19
q-41 -40 -87 -40q-33 0 -55.5 23t-22.5 57q0 33 33 75z" />
    <glyph glyph-name="oacute" unicode="&#xf3;" horiz-adv-x="848" 
d="M557 779q145 0 238.5 -92t93.5 -234q0 -107 -49 -212.5t-127 -168.5q-52 -41 -107.5 -56.5t-155.5 -15.5q-163 0 -220 39q-134 92 -134 272q0 190 137 329t324 139zM533 566q-74 0 -135 -73t-61 -161q0 -116 130 -116q76 0 117 47q68 77 68 176q0 57 -33 92t-86 35z
M758 973l-123 -97q-44 -35 -76 -35q-27 0 -48 20.5t-21 47.5q0 11 4 21l8 20l38 100q25 66 93 66h58q101 0 101 -79q0 -37 -34 -64z" />
    <glyph glyph-name="ograve" unicode="&#xf2;" horiz-adv-x="848" 
d="M557 779q145 0 238.5 -92t93.5 -234q0 -107 -49 -212.5t-127 -168.5q-52 -41 -107.5 -56.5t-155.5 -15.5q-163 0 -220 39q-134 92 -134 272q0 190 137 329t324 139zM533 566q-74 0 -135 -73t-61 -161q0 -116 130 -116q76 0 117 47q68 77 68 176q0 57 -33 92t-86 35z
M580 1058l42 -96q12 -29 12 -54q0 -28 -20.5 -48t-48.5 -20q-32 0 -66 26l-119 88q-57 42 -57 86q0 34 23.5 56.5t58.5 22.5h74q74 0 101 -61z" />
    <glyph glyph-name="ocircumflex" unicode="&#xf4;" horiz-adv-x="848" 
d="M557 779q145 0 238.5 -92t93.5 -234q0 -107 -49 -212.5t-127 -168.5q-52 -41 -107.5 -56.5t-155.5 -15.5q-163 0 -220 39q-134 92 -134 272q0 190 137 329t324 139zM533 566q-74 0 -135 -73t-61 -161q0 -116 130 -116q76 0 117 47q68 77 68 176q0 57 -33 92t-86 35z
M617 942l-119 -65q-54 -30 -87 -30q-30 0 -53.5 26t-23.5 59q0 57 85 102l117 63q58 31 99 31q25 0 53 -23q10 -8 21 -17l81 -67q51 -42 51 -91q0 -35 -24.5 -58.5t-60.5 -23.5q-33 0 -80 42z" />
    <glyph glyph-name="odieresis" unicode="&#xf6;" horiz-adv-x="848" 
d="M557 779q145 0 238.5 -92t93.5 -234q0 -107 -49 -212.5t-127 -168.5q-52 -41 -107.5 -56.5t-155.5 -15.5q-163 0 -220 39q-134 92 -134 272q0 190 137 329t324 139zM533 566q-74 0 -135 -73t-61 -161q0 -116 130 -116q76 0 117 47q68 77 68 176q0 57 -33 92t-86 35z
M806 1123q56 0 95.5 -39.5t39.5 -95.5q0 -57 -39.5 -96.5t-95.5 -39.5q-57 0 -96.5 39.5t-39.5 96.5q0 56 39.5 95.5t96.5 39.5zM424 1123q57 0 96.5 -39.5t39.5 -95.5q0 -57 -39.5 -96.5t-96.5 -39.5q-56 0 -95.5 39.5t-39.5 96.5q0 56 39.5 95.5t95.5 39.5z" />
    <glyph glyph-name="otilde" unicode="&#xf5;" horiz-adv-x="848" 
d="M557 779q145 0 238.5 -92t93.5 -234q0 -107 -49 -212.5t-127 -168.5q-52 -41 -107.5 -56.5t-155.5 -15.5q-163 0 -220 39q-134 92 -134 272q0 190 137 329t324 139zM533 566q-74 0 -135 -73t-61 -161q0 -116 130 -116q76 0 117 47q68 77 68 176q0 57 -33 92t-86 35z
M378 1008l40 50q45 57 109 57q36 0 87 -34l32 -21q13 -9 23 -9q12 0 25 13l23 24q21 21 51 21q39 0 66.5 -24.5t25.5 -58.5q-2 -39 -29 -70l-58 -65q-39 -45 -93 -45q-47 0 -98 42q-29 24 -39 24q-13 0 -33 -19q-41 -40 -87 -40q-33 0 -55.5 23t-22.5 57q0 33 33 75z" />
    <glyph glyph-name="uacute" unicode="&#xfa;" horiz-adv-x="985" 
d="M799 218h116q69 0 98 -20.5t29 -67.5q0 -61 -44.5 -95.5t-124.5 -34.5h-179q-84 0 -112 65q-55 -65 -138 -65h-146q-88 0 -146 55t-58 139q0 48 26 112l136 334q57 139 156 139q43 0 73 -27.5t30 -67.5q0 -30 -16 -69l-11 -27l-105 -257l-11 -30q-9 -26 -10 -39
q-2 -45 58 -45q124 0 165 100l125 308q56 140 158 140q42 0 72 -28t30 -67q0 -31 -26 -96zM826 973l-123 -97q-44 -35 -76 -35q-27 0 -48 20.5t-21 47.5q0 11 4 21l8 20l38 100q25 66 93 66h58q101 0 101 -79q0 -37 -34 -64z" />
    <glyph glyph-name="ugrave" unicode="&#xf9;" horiz-adv-x="985" 
d="M799 218h116q69 0 98 -20.5t29 -67.5q0 -61 -44.5 -95.5t-124.5 -34.5h-179q-84 0 -112 65q-55 -65 -138 -65h-146q-88 0 -146 55t-58 139q0 48 26 112l136 334q57 139 156 139q43 0 73 -27.5t30 -67.5q0 -30 -16 -69l-11 -27l-105 -257l-11 -30q-9 -26 -10 -39
q-2 -45 58 -45q124 0 165 100l125 308q56 140 158 140q42 0 72 -28t30 -67q0 -31 -26 -96zM649 1058l42 -96q12 -29 12 -54q0 -28 -20.5 -48t-48.5 -20q-32 0 -66 26l-119 88q-57 42 -57 86q0 34 23.5 56.5t58.5 22.5h74q74 0 101 -61z" />
    <glyph glyph-name="ucircumflex" unicode="&#xfb;" horiz-adv-x="985" 
d="M799 218h116q69 0 98 -20.5t29 -67.5q0 -61 -44.5 -95.5t-124.5 -34.5h-179q-84 0 -112 65q-55 -65 -138 -65h-146q-88 0 -146 55t-58 139q0 48 26 112l136 334q57 139 156 139q43 0 73 -27.5t30 -67.5q0 -30 -16 -69l-11 -27l-105 -257l-11 -30q-9 -26 -10 -39
q-2 -45 58 -45q124 0 165 100l125 308q56 140 158 140q42 0 72 -28t30 -67q0 -31 -26 -96zM685 942l-119 -65q-54 -30 -87 -30q-30 0 -53.5 26t-23.5 59q0 57 85 102l117 63q58 31 99 31q25 0 53 -23q10 -8 21 -17l81 -67q51 -42 51 -91q0 -35 -24.5 -58.5t-60.5 -23.5
q-33 0 -80 42z" />
    <glyph glyph-name="udieresis" unicode="&#xfc;" horiz-adv-x="985" 
d="M799 218h116q69 0 98 -20.5t29 -67.5q0 -61 -44.5 -95.5t-124.5 -34.5h-179q-84 0 -112 65q-55 -65 -138 -65h-146q-88 0 -146 55t-58 139q0 48 26 112l136 334q57 139 156 139q43 0 73 -27.5t30 -67.5q0 -30 -16 -69l-11 -27l-105 -257l-11 -30q-9 -26 -10 -39
q-2 -45 58 -45q124 0 165 100l125 308q56 140 158 140q42 0 72 -28t30 -67q0 -31 -26 -96zM874 1123q56 0 95.5 -39.5t39.5 -95.5q0 -57 -39.5 -96.5t-95.5 -39.5q-57 0 -96.5 39.5t-39.5 96.5q0 56 39.5 95.5t96.5 39.5zM492 1123q57 0 96.5 -39.5t39.5 -95.5
q0 -57 -39.5 -96.5t-96.5 -39.5q-56 0 -95.5 39.5t-39.5 96.5q0 56 39.5 95.5t95.5 39.5z" />
    <glyph glyph-name="dagger" unicode="&#x2020;" horiz-adv-x="1044" 
d="M986 1077h192q101 0 101 -96q0 -135 -156 -135h-231l-401 -992q-39 -97 -76.5 -133t-99.5 -36q-106 0 -106 99q0 32 13 64l404 998h-173q-41 0 -70.5 28.5t-29.5 68.5q0 65 44.5 99.5t128.5 34.5h187l88 219q55 137 156 137q50 0 81 -30.5t31 -78.5q0 -36 -14 -73z" />
    <glyph glyph-name="degree" unicode="&#xb0;" horiz-adv-x="735" 
d="M600 1379q129 0 220.5 -89.5t91.5 -215.5q0 -128 -91.5 -218.5t-220.5 -90.5q-130 0 -221.5 90.5t-91.5 218.5q0 126 91.5 215.5t221.5 89.5zM600 1231q-67 0 -114 -46.5t-47 -111.5q0 -66 47 -113t114 -47t114 47t47 113q0 65 -47.5 111.5t-113.5 46.5z" />
    <glyph glyph-name="cent" unicode="&#xa2;" 
d="M822 967q107 -55 107 -200q0 -73 -38 -118t-99 -45q-89 0 -89 90q0 12 1 21q1 15 1 21q0 66 -71 66q-63 0 -116 -69t-53 -151q0 -54 28 -87.5t72 -33.5q27 0 71 18q37 15 57 15q38 0 63 -30t25 -75q0 -146 -189 -156q-18 -118 -122 -118q-46 0 -75.5 28t-29.5 71
q0 20 9 53q-143 106 -143 284q0 166 99 291t262 163q30 104 126 104q47 0 77 -29t30 -75q0 -12 -3 -38z" />
    <glyph glyph-name="sterling" unicode="&#xa3;" 
d="M622 647h130q130 0 130 -92q0 -62 -46 -97t-128 -35h-136q-41 -117 -124 -205h294q127 0 127 -89q0 -61 -45 -95t-124 -34h-441q-104 0 -140 21t-36 81q0 52 64 109q124 110 166 212h-14q-105 0 -105 90q0 63 46 98.5t128 35.5h15l1 20q4 60 4 81l2 81q0 183 102.5 298
t267.5 115q151 0 243.5 -85.5t92.5 -225.5q0 -107 -48.5 -177.5t-122.5 -70.5q-46 0 -79.5 31.5t-33.5 74.5q0 27 19 79q14 38 14 58q0 38 -23.5 62.5t-60.5 24.5q-62 0 -97.5 -51.5t-35.5 -140.5q0 -72 -5 -152z" />
    <glyph glyph-name="section" unicode="&#xa7;" horiz-adv-x="1161" 
d="M696 166q27 -85 27 -147q0 -119 -91.5 -205.5t-216.5 -86.5h-265q-132 0 -132 92q0 66 46 102t130 36h203q40 0 65 21t25 55q0 24 -12 51l-180 415l-14 32q-38 84 -38 160q0 110 85 189.5t202 79.5h69q-41 92 -41 163q0 116 83 196t203 80h232q75 0 106.5 -22t31.5 -73
q0 -64 -48 -101t-130 -37h-130l-25 -1q-81 0 -81 -56q0 -21 17 -59l165 -372q56 -125 56 -220q0 -118 -92 -205t-217 -87h-33zM598 396h113q40 0 65.5 21t25.5 55q0 22 -13 51l-88 204h-109l-25 -1q-82 0 -82 -55q0 -20 18 -60z" />
    <glyph glyph-name="bullet" unicode="&#x2022;" horiz-adv-x="1365" 
d="M685 978q118 0 201 -83t83 -201t-83 -201t-201 -83t-201 83t-83 201t83 201t201 83z" />
    <glyph glyph-name="paragraph" unicode="&#xb6;" 
d="M1137 1160l-551 -1363q-45 -112 -127 -112q-34 0 -58 22.5t-24 53.5q0 26 21 78l534 1321h-82l-551 -1363q-45 -112 -127 -112q-34 0 -58 22t-24 54q0 24 13 56l8 22l355 877q-219 19 -219 271q0 206 146 327q101 85 317 85h522q138 0 138 -96q0 -68 -48.5 -105.5
t-135.5 -37.5h-49z" />
    <glyph glyph-name="germandbls" unicode="&#xdf;" horiz-adv-x="1010" 
d="M949 718q99 -90 99 -226q0 -113 -51.5 -223t-135.5 -177q-133 -106 -282 -106q-81 0 -136.5 39t-55.5 95q0 42 31 71.5t75 29.5q8 0 22 -1l17 -2q12 -1 16 -1q30 -3 41 -3q87 0 153 88t66 204q0 59 -15.5 89t-62.5 62q-64 43 -64 90q0 45 26 69t91 37q82 18 129 70.5
t47 127.5q0 105 -105 105q-100 0 -156 -137l-368 -906l-10 -28q-45 -112 -144 -112q-44 0 -73 28t-29 70q0 28 15 66l11 27l381 936q111 272 369 272q154 0 249.5 -86t95.5 -223q0 -120 -66 -212.5t-180 -132.5z" />
    <glyph glyph-name="registered" unicode="&#xae;" horiz-adv-x="1493" 
d="M1023 687l94 -223q17 -40 55 -40h8q71 0 71 -55q0 -75 -95 -75h-21q-95 0 -132 90l-126 303l-131 -324q-31 -75 -89 -75q-26 0 -44.5 16.5t-18.5 40.5q0 17 9 38l5 13l223 551h-34q-74 0 -74 56q0 75 96 75h155q206 0 206 -173q0 -75 -44.5 -136t-112.5 -82zM920 792
q119 7 119 100q0 55 -56 55zM1038 1379q256 0 422 -163t166 -414q0 -189 -86.5 -376t-226.5 -299q-92 -73 -190.5 -100t-274.5 -27q-181 0 -254.5 13t-136.5 57q-109 75 -173 204t-64 276q0 140 55 284.5t152 258.5q243 286 611 286zM1016 1259q-299 0 -496 -236
q-168 -201 -168 -447q0 -122 51.5 -229t140.5 -169q52 -36 111.5 -47t206.5 -11q143 0 223 22.5t155 82.5q114 93 184 246.5t70 310.5q0 207 -135 342t-343 135z" />
    <glyph glyph-name="copyright" unicode="&#xa9;" horiz-adv-x="1493" 
d="M815 732q-59 -105 -59 -198q0 -64 28.5 -90.5t95.5 -26.5h196q74 0 74 -53q0 -78 -96 -78h-207q-111 0 -174.5 62.5t-63.5 170.5q0 95 52 213h-12h-12q-62 0 -62 54q0 33 24 55t59 22h13h62q61 100 145.5 158.5t168.5 58.5q73 0 121 -45.5t48 -114.5q0 -188 -285 -188
h-116zM897 863h72q106 0 106 53q0 35 -44 35q-54 0 -134 -88zM1038 1379q256 0 422 -163t166 -414q0 -189 -86.5 -376t-226.5 -299q-92 -73 -190.5 -100t-274.5 -27q-181 0 -254.5 13t-136.5 57q-109 75 -173 204t-64 276q0 140 55 284.5t152 258.5q243 286 611 286z
M1016 1259q-299 0 -496 -236q-168 -201 -168 -447q0 -122 51.5 -229t140.5 -169q52 -36 111.5 -47t206.5 -11q143 0 223 22.5t155 82.5q114 93 184 246.5t70 310.5q0 207 -135 342t-343 135z" />
    <glyph glyph-name="trademark" unicode="&#x2122;" horiz-adv-x="1664" 
d="M1078 1218l-191 -471q-71 -175 -109 -238.5t-99 -110.5q-89 -68 -205 -68q-122 0 -199 75.5t-77 196.5q0 172 139 298.5t329 126.5q102 0 102 -75q0 -72 -103 -82q-138 -13 -215 -78.5t-77 -168.5q0 -131 121 -131q65 0 113.5 56.5t106.5 198.5l191 471h-104
q-84 0 -84 59q0 41 30.5 64.5t84.5 23.5h374h15q69 0 69 -59q0 -41 -31 -64.5t-84 -23.5h-97zM1704 735h86q84 0 84 -57q0 -42 -30.5 -66t-84.5 -24h-108q-129 0 -129 100q0 30 24 86l131 308l-85 -91q-42 -45 -82 -45q-50 0 -65 65l-12 50l-160 -395q-38 -92 -106 -92
q-30 0 -50.5 18t-20.5 45q0 20 10 45l8 18l242 594q32 79 89 79q61 0 87 -94l34 -120l160 156q60 58 112 58q37 0 62 -21.5t25 -53.5q0 -19 -9 -42l-13 -31z" />
    <glyph glyph-name="acute" unicode="&#xb4;" horiz-adv-x="1024" 
d="M846 973l-123 -97q-44 -35 -76 -35q-27 0 -48 20.5t-21 47.5q0 11 4 21l8 20l38 100q25 66 93 66h58q101 0 101 -79q0 -37 -34 -64z" />
    <glyph glyph-name="dieresis" unicode="&#xa8;" horiz-adv-x="1024" 
d="M894 1123q56 0 95.5 -39.5t39.5 -95.5q0 -57 -39.5 -96.5t-95.5 -39.5q-57 0 -96.5 39.5t-39.5 96.5q0 56 39.5 95.5t96.5 39.5zM512 1123q57 0 96.5 -39.5t39.5 -95.5q0 -57 -39.5 -96.5t-96.5 -39.5q-56 0 -95.5 39.5t-39.5 96.5q0 56 39.5 95.5t95.5 39.5z" />
    <glyph glyph-name="notequal" unicode="&#x2260;" 
d="M938 881h87q127 0 127 -83q0 -57 -45 -89.5t-124 -32.5h-173l-78 -123h161q126 0 126 -83q0 -57 -44.5 -89.5t-123.5 -32.5h-248l-34 -54q-58 -92 -134 -92q-46 0 -77 26t-31 63q0 20 19 57h-88q-126 0 -126 83q0 57 45 89.5t123 32.5h174l78 123h-161q-127 0 -127 83
q0 57 45 89.5t124 32.5h248l34 54q58 92 135 92q45 0 76 -26t31 -64q0 -20 -19 -56z" />
    <glyph glyph-name="AE" unicode="&#xc6;" horiz-adv-x="2507" 
d="M2239 1127l-149 -372h124q138 0 138 -103q0 -62 -50.5 -100t-132.5 -38h-177l-223 -545h692q137 0 137 -95q0 -69 -49 -108t-136 -39h-701l-38 1q-91 0 -144.5 44.5t-53.5 119.5q0 50 22 105l20 49l191 470h-276l-331 -572q-236 -408 -558 -408q-193 0 -327.5 143.5
t-134.5 348.5q0 166 104 325t281 263q133 78 290.5 108t433.5 30h74l79 147q116 213 278 332q180 132 515 132h60h514q74 0 107 -22.5t33 -74.5q0 -60 -45.5 -100.5t-113.5 -40.5h-29h-424zM1806 754l144 355q-110 -10 -179 -67.5t-163 -217.5l-41 -70h239zM1127 516h-83
q-124 0 -252 -30.5t-202 -76.5q-107 -68 -169.5 -168.5t-62.5 -204.5q0 -97 61.5 -164.5t149.5 -67.5q103 0 197 109q49 58 68 90z" />
    <glyph glyph-name="Oslash" unicode="&#xd8;" horiz-adv-x="1152" 
d="M1295 1087q26 -70 26 -178q0 -373 -223 -674q-98 -131 -230 -205.5t-268 -74.5q-197 0 -301 125q-52 -39 -89 -39q-43 0 -72 29.5t-29 73.5q0 70 90 147q-14 97 -14 162q0 163 67.5 353t168.5 313q98 119 226.5 188.5t251.5 69.5q158 0 281 -105q56 49 97 49t70.5 -31
t29.5 -72q0 -55 -82 -131zM869 1132q-144 0 -260 -177q-68 -104 -113 -251.5t-45 -266.5q0 -105 45 -168.5t120 -63.5q88 0 173.5 65.5t149.5 182.5q50 93 83 215.5t33 219.5q0 117 -48.5 180.5t-137.5 63.5z" />
    <glyph glyph-name="infinity" unicode="&#x221e;" horiz-adv-x="1365" 
d="M690 532q-148 -167 -327 -167q-144 0 -236 94t-92 242q0 141 94 234t237 93q169 0 312 -166q138 166 323 166q145 0 237.5 -93t92.5 -239t-93.5 -239t-240.5 -93q-171 0 -307 168zM808 696q79 -118 157 -118q49 0 83 34t34 84q0 49 -34.5 83.5t-83.5 34.5
q-79 0 -156 -118zM559 696q-78 118 -158 118q-49 0 -83 -34t-34 -83t35 -83.5t84 -34.5q79 0 156 117z" />
    <glyph glyph-name="plusminus" unicode="&#xb1;" 
d="M621 853l73 178q48 116 139 116q43 0 71.5 -24.5t28.5 -60.5q0 -24 -21 -74l-55 -135h157q126 0 126 -83q0 -57 -44.5 -89.5t-123.5 -32.5h-199l-73 -178q-48 -116 -139 -116q-43 0 -72.5 25t-27.5 60q1 27 21 74l55 135h-158q-126 0 -126 83q0 57 45 89.5t124 32.5h199z
M193 287h593q126 0 126 -83q0 -57 -44.5 -89.5t-123.5 -32.5h-593q-126 0 -126 83q0 57 45 89.5t123 32.5z" />
    <glyph glyph-name="lessequal" unicode="&#x2264;" horiz-adv-x="1024" 
d="M955 1356v-238l-620 -286l620 -286v-238l-887 414v212zM955 250v-236h-887v236h887z" />
    <glyph glyph-name="greaterequal" unicode="&#x2265;" horiz-adv-x="1024" 
d="M68 308v238l620 287l-620 285v238l887 -423v-212zM68 14v236h887v-236h-887z" />
    <glyph glyph-name="yen" unicode="&#xa5;" 
d="M1015 886q86 -11 86 -85q0 -61 -45.5 -96.5t-125.5 -35.5h-86l-86 -109h10q125 0 125 -86q0 -62 -45.5 -97.5t-125.5 -35.5h-92l-91 -222q-56 -133 -158 -133q-42 0 -72 26t-30 64q0 30 15 68l11 27l69 170h-22q-125 0 -125 86q0 63 45.5 98t125.5 35h57v109h-45
q-125 0 -125 86q0 61 45 96.5t123 35.5v176l-1 19l20 79q43 68 119 68q96 0 96 -118l-1 -26v-269l231 316l18 26q58 84 130 84q48 0 77.5 -29.5t29.5 -76.5q0 -50 -60 -126z" />
    <glyph glyph-name="mu" unicode="&#xb5;" horiz-adv-x="985" 
d="M228 0l-40 -160q-16 -60 -61 -100t-99 -40q-42 0 -72.5 28t-30.5 67q0 31 27 97l304 748q56 139 155 139q43 0 73 -27.5t30 -67.5q0 -32 -26 -96l-105 -257l-12 -30q-9 -25 -10 -39q-2 -45 58 -45q125 0 165 100l125 308q57 140 159 140q42 0 72 -28t30 -67
q0 -30 -16 -69l-11 -27l-144 -356h116q68 0 97 -20.5t29 -67.5q0 -61 -44.5 -95.5t-123.5 -34.5h-179q-85 0 -112 65q-55 -65 -138 -65h-216z" />
    <glyph glyph-name="partialdiff" unicode="&#x2202;" horiz-adv-x="1024" 
d="M133 1143l33 219q215 -25 357 -85t250 -172q214 -220 214 -565q0 -253 -131 -406t-348 -153q-196 0 -334 137t-138 332q0 184 122.5 310t301.5 126q153 0 255 -100q-142 311 -582 357zM511 701q-94 0 -156.5 -74t-62.5 -186q0 -114 63 -192.5t155 -78.5q93 0 156 77.5
t63 192.5q0 113 -62 187t-156 74z" />
    <glyph glyph-name="summation" unicode="&#x2211;" horiz-adv-x="1365" 
d="M1264 1536v-509h-226l-27 273h-682l511 -752l-511 -824h702l15 271h238v-507h-1240v261l500 799l-500 727v261h1220z" />
    <glyph glyph-name="product" unicode="&#x220f;" horiz-adv-x="1494" 
d="M81 1536h1331v-236h-171v-1576h171v-236h-586v236h162v1576h-484v-1576h162v-236h-585v236h170v1576h-170v236z" />
    <glyph glyph-name="pi" unicode="&#x3c0;" horiz-adv-x="1345" 
d="M231 0v756h-156v227h1194v-227h-154v-756h-253v756h-378v-756h-253z" />
    <glyph glyph-name="integral" unicode="&#x222b;" horiz-adv-x="1024" 
d="M109 -491l46 225q70 -20 112 -20q69 0 93.5 37.5t24.5 143.5v88v1008q0 276 28 352q70 193 319 193q71 0 182 -21l-46 -225q-68 19 -112 19q-117 0 -117 -142l-1 -123v-133v-878q0 -198 -8 -268t-36 -122q-86 -155 -304 -155q-86 0 -181 21z" />
    <glyph glyph-name="ordfeminine" unicode="&#xaa;" horiz-adv-x="765" 
d="M768 845h68h17q73 0 73 -66q0 -48 -34 -75.5t-93 -27.5h-88q-44 0 -60 19l-14 15q-1 2 -7 8q-46 -42 -97 -42h-81q-72 0 -118 56.5t-46 145.5q0 140 96 252.5t215 112.5q86 0 124 -57q35 47 91 47q73 0 73 -72q0 -23 -19 -70zM515 841h26q39 0 52 33l54 131l4 11
q6 13 6 26q0 17 -16.5 30.5t-37.5 13.5q-49 0 -94 -58t-45 -122q0 -65 51 -65zM266 574h445q102 0 102 -76q0 -77 -102 -77h-445h-17q-38 0 -61.5 21.5t-23.5 55.5q0 76 85 76h17z" />
    <glyph glyph-name="ordmasculine" unicode="&#xba;" horiz-adv-x="737" 
d="M698 1242q103 0 167.5 -64t64.5 -165q0 -79 -35.5 -157.5t-93.5 -125.5q-64 -54 -199 -54q-99 0 -139 29q-89 64 -89 189q0 139 97.5 243.5t226.5 104.5zM679 1077q-48 0 -87 -50t-39 -111q0 -73 81 -73q52 0 86 43.5t34 109.5q0 81 -75 81zM252 574h445q102 0 102 -76
q0 -77 -102 -77h-445h-17q-38 0 -61.5 21.5t-23.5 55.5q0 76 85 76h17z" />
    <glyph glyph-name="Omega" unicode="&#x2126;" horiz-adv-x="1365" 
d="M59 0v227h289q-153 96 -221 217.5t-68 299.5q0 285 177 469.5t449 184.5q271 0 446.5 -184.5t175.5 -469.5q0 -178 -68 -300t-219 -217h287v-227h-549v202q152 87 221 210t69 309q0 195 -103 322.5t-260 127.5q-159 0 -263 -128t-104 -322q0 -356 293 -519v-202h-552z
" />
    <glyph glyph-name="ae" unicode="&#xe6;" horiz-adv-x="1277" 
d="M803 296q8 -78 106 -78h298q127 0 127 -89q0 -61 -44.5 -95t-124.5 -34h-315q-116 0 -201 76q-116 -90 -272 -90q-122 0 -202 69.5t-80 175.5q0 120 80 184t231 64h187q-10 82 -104 82h-119q-118 0 -118 82q0 57 42 89.5t116 32.5h144q120 0 203 -83q114 97 257 97
q125 0 202 -70t77 -183q0 -106 -73 -168t-197 -62h-220zM855 479h119q90 0 90 43q0 53 -69 53q-94 0 -140 -96zM561 296h-122q-111 0 -111 -55t80 -55t155 66q-2 36 -2 44z" />
    <glyph glyph-name="oslash" unicode="&#xf8;" horiz-adv-x="853" 
d="M864 601q35 -74 35 -155q0 -202 -151 -349q-55 -54 -124 -75.5t-190 -21.5q-107 0 -161 20q-59 -58 -113 -58q-39 0 -69 30.5t-30 70.5q0 50 66 113q-24 77 -24 143q0 148 105 282q138 178 356 178q77 0 150 -31q57 50 101 50q36 0 67.5 -32t31.5 -68q0 -37 -50 -97z
M538 566q-72 0 -133 -73.5t-61 -160.5q0 -116 130 -116q76 0 117 47q68 77 68 180q0 54 -33.5 88.5t-87.5 34.5z" />
    <glyph glyph-name="questiondown" unicode="&#xbf;" horiz-adv-x="848" 
d="M579 779q57 0 98 -41t41 -98q0 -58 -41 -99t-98 -41q-58 0 -99 41t-41 99q0 57 41 98t99 41zM466 447q47 0 78 -31.5t31 -77.5q0 -138 -231 -347q-95 -85 -118.5 -116.5t-23.5 -69.5q0 -45 35 -77t83 -32q56 0 97 37.5t41 87.5q0 19 -18 79q-11 35 -11 60q0 44 30.5 74.5
t73.5 30.5q72 0 119 -63.5t47 -159.5q0 -162 -113 -267.5t-288 -105.5q-149 0 -249 92t-100 228q0 93 43 165.5t148 158.5q172 140 190 181l40 88q29 65 96 65z" />
    <glyph glyph-name="exclamdown" unicode="&#xa1;" horiz-adv-x="593" 
d="M495 779q57 0 98 -41t41 -98q0 -58 -41 -99t-98 -41q-58 0 -99 41t-41 99q0 57 41 98t99 41zM44 -304l219 593q31 83 61.5 117.5t72.5 34.5q39 0 66.5 -27.5t27.5 -67.5q0 -27 -11 -66l-189 -683q-35 -128 -141 -128q-55 0 -93 36t-38 88q0 34 25 103z" />
    <glyph glyph-name="logicalnot" unicode="&#xac;" horiz-adv-x="1024" 
d="M702 0v310h-634v236h887v-546h-253z" />
    <glyph glyph-name="radical" unicode="&#x221a;" horiz-adv-x="1365" 
d="M1365 1702v-236h-369l-350 -1466h-333l-122 561h-191v236h399l41 -190q22 -99 31 -299h21q22 285 98 610l186 784h589z" />
    <glyph glyph-name="florin" unicode="&#x192;" 
d="M767 765h138q126 0 126 -89q0 -61 -44.5 -95t-124.5 -34h-184l-278 -683q-56 -136 -155 -136q-45 0 -75 27t-30 67q0 28 16 67l11 27l257 631h-68q-127 0 -127 87q0 62 44.5 96.5t124.5 34.5h114l128 313q63 156 153 221.5t240 65.5h114q128 0 128 -88q0 -63 -45 -98
t-126 -35h-30q-83 0 -131.5 -34t-82.5 -115z" />
    <glyph glyph-name="approxequal" unicode="&#x2248;" horiz-adv-x="1024" 
d="M153 713l-139 91q66 158 133 218.5t175 60.5q67 0 213 -55q133 -50 183 -50q48 0 79.5 23t68.5 86l143 -84q-71 -149 -143 -209t-180 -60q-55 0 -204 55q-136 50 -177 50q-51 0 -82 -26t-70 -100zM153 305l-139 91q66 158 133 219t174 61q69 0 214 -55q132 -50 183 -50
q48 0 79.5 23t68.5 85l143 -84q-71 -148 -143 -208t-180 -60q-54 0 -204 55q-138 50 -176 50q-51 0 -82.5 -26t-70.5 -101z" />
    <glyph glyph-name="Delta" unicode="&#x2206;" horiz-adv-x="1365" 
d="M36 0l505 1365h274l514 -1365h-1293zM397 236h566l-283 822z" />
    <glyph glyph-name="guillemotleft" unicode="&#xab;" horiz-adv-x="893" 
d="M405 427l54 -143q15 -41 15 -65q0 -41 -32 -74t-71 -33q-51 0 -73 58l-7 18l-54 144l-19 48q-13 34 -13 58q0 37 42 96l85 117q58 80 112 80q34 0 58.5 -25t24.5 -60q0 -43 -44 -107zM704 427l54 -143q15 -41 15 -65q0 -41 -32 -74t-71 -33q-51 0 -73 58l-7 18l-54 144
l-19 48q-13 34 -13 58q0 37 42 96l85 117q58 80 112 80q34 0 58.5 -25t24.5 -60q0 -43 -44 -107z" />
    <glyph glyph-name="guillemotright" unicode="&#xbb;" horiz-adv-x="893" 
d="M327 416l-53 143q-16 42 -16 65q0 41 32 74t72 33q50 0 72 -58l7 -18l55 -144l18 -48q13 -34 13 -58q0 -38 -42 -96l-84 -117q-58 -80 -112 -80q-35 0 -59.5 25t-24.5 60q0 42 30 87l15 20zM626 416l-53 143q-16 42 -16 65q0 41 32 74t72 33q50 0 72 -58l7 -18l55 -144
l18 -48q13 -34 13 -58q0 -38 -42 -96l-84 -117q-58 -80 -112 -80q-35 0 -59.5 25t-24.5 60q0 42 30 87l15 20z" />
    <glyph glyph-name="ellipsis" unicode="&#x2026;" horiz-adv-x="1532" 
d="M290 252q57 0 98 -41t41 -98q0 -58 -41 -99t-98 -41q-58 0 -99 41t-41 99q0 57 41 98t99 41zM800 252q58 0 99 -41t41 -98q0 -58 -41 -99t-99 -41q-57 0 -98 41t-41 99q0 57 41 98t98 41zM1311 252q57 0 98 -41t41 -98q0 -58 -41 -99t-98 -41q-58 0 -99 41t-41 99
q0 57 41 98t99 41z" />
    <glyph glyph-name="Agrave" unicode="&#xc0;" horiz-adv-x="2138" 
d="M1613 512h-277l-331 -573q-234 -407 -555 -407q-197 0 -330.5 141.5t-133.5 350.5q0 170 103 327.5t281 261.5q133 76 295 107t431 31h74l79 145q165 303 403 404q153 65 400 65q63 0 99 -28t36 -78q0 -23 -12 -54l-9 -23l-172 -431h76h26q112 0 112 -97
q0 -59 -46 -100.5t-112 -41.5h-27h-126l-111 -273h163h26q112 0 112 -96q0 -60 -46 -101.5t-112 -41.5h-27h-214q-86 0 -140.5 44.5t-54.5 115.5q0 55 41 156zM1711 751l144 355q-106 -7 -178.5 -67.5t-165.5 -219.5l-41 -68h241zM1033 512h-85q-286 0 -454 -106
q-107 -68 -170.5 -170t-63.5 -206q0 -95 61 -162.5t148 -67.5q151 0 267 200zM2030 1659l42 -96q13 -30 13 -54q0 -28 -20.5 -48t-48.5 -20q-32 0 -67 26l-119 88q-57 43 -57 86q0 34 23.5 56.5t58.5 22.5h74q75 0 101 -61z" />
    <glyph glyph-name="Atilde" unicode="&#xc3;" horiz-adv-x="2138" 
d="M1613 512h-277l-331 -573q-234 -407 -555 -407q-197 0 -330.5 141.5t-133.5 350.5q0 170 103 327.5t281 261.5q133 76 295 107t431 31h74l79 145q165 303 403 404q153 65 400 65q63 0 99 -28t36 -78q0 -23 -12 -54l-9 -23l-172 -431h76h26q112 0 112 -97
q0 -59 -46 -100.5t-112 -41.5h-27h-126l-111 -273h163h26q112 0 112 -96q0 -60 -46 -101.5t-112 -41.5h-27h-214q-86 0 -140.5 44.5t-54.5 115.5q0 55 41 156zM1711 751l144 355q-106 -7 -178.5 -67.5t-165.5 -219.5l-41 -68h241zM1033 512h-85q-286 0 -454 -106
q-107 -68 -170.5 -170t-63.5 -206q0 -95 61 -162.5t148 -67.5q151 0 267 200zM1788 1595l39 50q45 57 109 57q36 0 87 -34l32 -21q13 -9 23 -9q12 0 25 13l23 24q21 21 51 21q38 0 65 -23.5t27 -56.5q0 -40 -29 -73l-57 -65q-40 -45 -94 -45q-47 0 -98 42q-29 24 -39 24
q-13 0 -33 -19q-41 -40 -87 -40q-33 0 -55.5 23t-22.5 57q0 33 34 75z" />
    <glyph glyph-name="Otilde" unicode="&#xd5;" horiz-adv-x="1350" 
d="M310 683h-50q-139 0 -139 95q0 68 48.5 106t136.5 38h140l28 38q311 425 625 425q156 0 255 -90t99 -232q0 -200 -188 -308q-125 -72 -375 -72h-300q-148 -280 -148 -476q0 -110 58 -176t154 -66q133 0 264 156t194 391l16 60q33 123 132 123q53 0 86.5 -39t33.5 -101
q0 -196 -168 -463q-234 -373 -564 -373q-205 0 -335.5 137.5t-130.5 353.5q0 204 128 473zM746 922h195q248 0 248 135q0 40 -32.5 66.5t-82.5 26.5q-77 0 -165 -61t-163 -167zM916 1595l40 50q44 57 109 57q36 0 87 -34l32 -21q13 -9 23 -9q12 0 25 13l23 24q21 21 51 21
q38 0 65 -23.5t27 -56.5q0 -39 -29 -73l-58 -65q-39 -45 -93 -45q-47 0 -98 42q-29 24 -39 24q-13 0 -33 -19q-41 -40 -87 -40q-33 0 -55.5 23t-22.5 57q0 33 33 75z" />
    <glyph glyph-name="OE" unicode="&#x152;" horiz-adv-x="1993" 
d="M1731 1130l-158 -378h129l26 -1q113 0 113 -90q0 -144 -188 -144h-173l-221 -548h688q144 0 144 -100q0 -68 -49 -105t-138 -37h-831l-58 1q-84 0 -84 66q0 7 2 24q-66 -55 -125.5 -75t-154.5 -20q-205 0 -320.5 110.5t-115.5 307.5q0 205 96 450t253 444
q279 352 563 352q128 0 218 -56t122 -154l24 68q27 78 62 99t135 21h500h35q114 0 114 -85q0 -68 -57 -118q-36 -32 -129 -32h-422zM1106 1154q-135 0 -310 -213q-129 -157 -217.5 -372t-88.5 -370q0 -102 54.5 -167t139.5 -65q102 0 214 98.5t212 276.5q170 303 170 551
q0 120 -47 190.5t-127 70.5z" />
    <glyph glyph-name="oe" unicode="&#x153;" horiz-adv-x="1314" 
d="M846 293q8 -75 101 -75h296q127 0 127 -87q0 -61 -44.5 -96t-123.5 -35h-284q-147 0 -231 74q-64 -73 -209 -73l-59 -1l-136 13q-79 22 -133.5 107.5t-54.5 189.5q0 189 135.5 329t318.5 140q160 0 239 -103q80 103 245 103q134 0 212.5 -67.5t78.5 -183.5
q0 -134 -109 -199q-60 -36 -183 -36h-186zM532 566q-74 0 -135 -73.5t-61 -162.5q0 -114 128 -114q78 0 119 47q68 77 68 180q0 53 -34 88t-85 35zM892 474h99q106 0 103 48q-3 51 -63 51q-46 0 -84.5 -27.5t-54.5 -71.5z" />
    <glyph glyph-name="endash" unicode="&#x2013;" 
d="M244 512h673h19q95 0 95 -85q0 -86 -95 -86h-19h-673h-19q-42 0 -68.5 23.5t-26.5 62.5q0 38 26 61.5t69 23.5h19z" />
    <glyph glyph-name="emdash" unicode="&#x2014;" horiz-adv-x="1176" 
d="M191 512h948h19q95 0 95 -85q0 -86 -95 -86h-19h-948h-19q-42 0 -68.5 23.5t-26.5 62.5q0 38 26 61.5t69 23.5h19z" />
    <glyph glyph-name="quotedblleft" unicode="&#x201c;" horiz-adv-x="750" 
d="M600 1217q31 -50 31 -86q0 -51 -36.5 -86t-88.5 -35q-53 0 -88.5 35.5t-35.5 89.5q0 85 117 182q91 75 131 75q20 0 36 -13.5t15 -29.5q-1 -20 -23 -51l-18 -26zM914 1217q31 -50 31 -86q0 -50 -36.5 -85.5t-88.5 -35.5q-53 0 -88.5 35.5t-35.5 89.5q0 85 117 182
q91 75 131 75q20 0 36 -13.5t15 -29.5q-1 -20 -23 -51l-18 -26z" />
    <glyph glyph-name="quotedblright" unicode="&#x201d;" horiz-adv-x="750" 
d="M464 1186q-31 48 -31 85q0 51 36.5 86t88.5 35q53 0 88.5 -35.5t35.5 -89.5q0 -85 -118 -182q-90 -75 -130 -75q-20 0 -36 13.5t-15 29.5q1 21 23 52l19 26zM778 1186q-31 48 -31 85q0 51 36.5 86t88.5 35q53 0 88.5 -35.5t35.5 -89.5q0 -85 -117 -182q-91 -75 -131 -75
q-20 0 -36 13.5t-15 29.5q1 21 23 52l19 26z" />
    <glyph glyph-name="quoteleft" unicode="&#x2018;" horiz-adv-x="436" 
d="M600 1217q31 -50 31 -86q0 -51 -36.5 -86t-88.5 -35q-53 0 -88.5 35.5t-35.5 89.5q0 85 117 182q91 75 131 75q20 0 36 -13.5t15 -29.5q-1 -20 -23 -51l-18 -26z" />
    <glyph glyph-name="quoteright" unicode="&#x2019;" horiz-adv-x="436" 
d="M464 1186q-31 48 -31 85q0 51 36.5 86t88.5 35q53 0 88.5 -35.5t35.5 -89.5q0 -85 -118 -182q-90 -75 -130 -75q-20 0 -36 13.5t-15 29.5q1 21 23 52l19 26z" />
    <glyph glyph-name="divide" unicode="&#xf7;" 
d="M366 717h593q126 0 126 -83q0 -57 -44.5 -89.5t-123.5 -32.5h-593q-126 0 -126 83q0 57 45 89.5t123 32.5zM554 408q52 0 88.5 -36.5t36.5 -89.5q0 -52 -36.5 -88.5t-88.5 -36.5q-53 0 -89.5 36.5t-36.5 88.5q0 53 36.5 89.5t89.5 36.5zM721 1072q52 0 89 -37t37 -89
t-36.5 -88.5t-89.5 -36.5q-52 0 -88.5 36.5t-36.5 88.5t37 89t88 37z" />
    <glyph glyph-name="lozenge" unicode="&#x25ca;" horiz-adv-x="1365" 
d="M683 1419l532 -736l-532 -736l-532 736zM683 1237l-404 -554l404 -555l403 555z" />
    <glyph glyph-name="ydieresis" unicode="&#xff;" horiz-adv-x="878" 
d="M665 -41h116q127 0 127 -89q0 -61 -44.5 -95t-124.5 -34h-162q-29 -86 -105 -228q-132 -250 -384 -250q-153 0 -257 96t-104 238q0 99 56.5 184.5t148.5 128.5q106 49 313 49h163l29 72q-74 -31 -136 -31q-107 0 -173.5 54.5t-66.5 141.5q0 53 43 159l109 269l11 28
q48 113 149 113q44 0 73.5 -28t29.5 -71q0 -29 -26 -94l-98 -239q-23 -58 -24 -75q-3 -49 62 -49q46 0 94 27t61 61l134 327l10 28q47 113 149 113q44 0 73.5 -28.5t29.5 -70.5q0 -29 -15 -67l-12 -27zM338 -259h-140q-230 0 -230 -144q0 -51 31.5 -82t84.5 -31
q73 0 129.5 57t124.5 200zM821 1123q56 0 95.5 -39.5t39.5 -95.5q0 -57 -39.5 -96.5t-95.5 -39.5q-57 0 -96.5 39.5t-39.5 96.5q0 56 39.5 95.5t96.5 39.5zM439 1123q57 0 96.5 -39.5t39.5 -95.5q0 -57 -39.5 -96.5t-96.5 -39.5q-56 0 -95.5 39.5t-39.5 96.5q0 56 39.5 95.5
t95.5 39.5z" />
    <glyph glyph-name="Ydieresis" unicode="&#x178;" horiz-adv-x="1839" 
d="M1853 1126l-360 -887h135q138 0 138 -98q0 -66 -48.5 -103.5t-135.5 -37.5h-187l-73 -184q-122 -305 -254 -430.5t-329 -125.5q-186 0 -310 124t-124 309q0 140 73.5 257t207.5 192q171 95 473 95l159 2l34 83q-53 -26 -117 -26q-142 0 -235.5 87t-93.5 219q0 69 46 200
l22 59l21 59q23 63 23 105q0 48 -42 82t-101 34q-96 0 -175.5 -88t-79.5 -193q0 -60 27 -94.5t96 -60.5q72 -28 72 -92q0 -57 -43 -95t-107 -38q-127 0 -216.5 106t-89.5 256q0 218 164.5 380.5t384.5 162.5q165 0 273 -99t108 -250q0 -72 -25 -140l-39 -106
q-37 -99 -37 -141q0 -47 35 -80t84 -33q73 0 123 51t102 178l193 476q28 69 68.5 96.5t115.5 27.5h236q138 0 138 -94q0 -69 -48.5 -107t-136.5 -38h-145zM1121 0q-210 0 -322 -40q-105 -37 -164.5 -106.5t-59.5 -153.5q0 -78 51.5 -132t125.5 -54q91 0 164.5 81t146.5 262z
M1630 1710q56 0 95.5 -39.5t39.5 -95.5q0 -57 -39.5 -96.5t-95.5 -39.5q-57 0 -96.5 39.5t-39.5 96.5q0 56 39.5 95.5t96.5 39.5zM1220 1710q57 0 96.5 -39.5t39.5 -95.5q0 -57 -39.5 -96.5t-96.5 -39.5q-56 0 -95.5 39.5t-39.5 96.5q0 56 39.5 95.5t95.5 39.5z" />
    <glyph glyph-name="fraction" unicode="&#x2215;" horiz-adv-x="365" 
d="M-14 43l587 1186q25 50 79 50q53 0 53 -41q0 -13 -13 -38l-587 -1186q-24 -49 -79 -49q-53 0 -53 40q0 12 13 38z" />
    <glyph glyph-name="Euro" unicode="&#x20ac;" 
d="M1193 937q0 -88 -42 -160q-50 -86 -132 -86q-41 0 -72.5 29t-31.5 70q0 22 14.5 70t14.5 69q0 101 -85 101q-100 0 -201 -149h72q127 0 127 -83q0 -122 -169 -122h-137q-20 -49 -35 -100l-7 -23h129q126 0 126 -83q0 -122 -168 -122h-120q2 -73 34 -103q28 -27 151 -27
h189q127 0 127 -89q0 -129 -169 -129h-290q-125 0 -194 74q-92 100 -91 258v16h-30q-106 0 -106 83q0 58 44.5 90t103.5 32h14q14 59 36 123q-126 0 -126 83q0 43 65 90q44 32 124 32h28q76 137 177 229q146 133 319 133q128 0 210 -71q101 -88 101 -235z" />
    <glyph glyph-name="guilsinglleft" unicode="&#x2039;" horiz-adv-x="594" 
d="M405 427l54 -143q15 -41 15 -65q0 -41 -32 -74t-71 -33q-51 0 -73 58l-7 18l-54 144l-19 48q-13 34 -13 58q0 37 42 96l85 117q58 80 112 80q34 0 58.5 -25t24.5 -60q0 -43 -44 -107z" />
    <glyph glyph-name="guilsinglright" unicode="&#x203a;" horiz-adv-x="594" 
d="M327 416l-53 143q-16 42 -16 65q0 41 32 74t72 33q50 0 72 -58l7 -18l55 -144l18 -48q13 -34 13 -58q0 -38 -42 -96l-84 -117q-58 -80 -112 -80q-35 0 -59.5 25t-24.5 60q0 42 30 87l15 20z" />
    <glyph glyph-name="fi" unicode="&#xf001;" horiz-adv-x="1223" 
d="M646 765h138q127 0 127 -89q0 -61 -44.5 -95t-124.5 -34h-184l-449 -1107q-56 -137 -156 -137q-44 0 -74 27t-30 67q0 29 26 95l429 1055h-68q-127 0 -127 87q0 62 44.5 96.5t124.5 34.5h114l127 313q64 156 153.5 221.5t239.5 65.5h114q128 0 128 -88q0 -63 -45 -98
t-125 -35h-30q-84 0 -132.5 -34t-81.5 -115zM1040 218h112q127 0 127 -89q0 -61 -44.5 -95t-124.5 -34h-159q-88 0 -138.5 36t-50.5 98q0 34 20 84l165 406l11 28q47 113 149 113q43 0 73 -28t30 -67q0 -31 -16 -71l-11 -27zM1172 1084q58 0 98.5 -40.5t40.5 -98.5
t-40.5 -98.5t-98.5 -40.5t-98.5 40.5t-40.5 98.5t40.5 98.5t98.5 40.5z" />
    <glyph glyph-name="fl" unicode="&#xf002;" horiz-adv-x="1219" 
d="M646 765h138q127 0 127 -89q0 -61 -44.5 -95t-124.5 -34h-184l-449 -1107q-56 -137 -156 -137q-44 0 -74 27t-30 67q0 29 26 95l429 1055h-68q-127 0 -127 87q0 62 44.5 96.5t124.5 34.5h114l127 313q64 156 153.5 221.5t239.5 65.5h114q128 0 128 -88q0 -63 -45 -98
t-125 -35h-30q-84 0 -132.5 -34t-81.5 -115zM1037 218h105q127 0 127 -89q0 -61 -44.5 -95t-124.5 -34h-180q-74 0 -117 35t-43 94q0 31 29 103l404 994l11 27q47 112 148 112q41 0 70.5 -28t29.5 -67q0 -30 -15 -68l-11 -27z" />
    <glyph glyph-name="daggerdbl" unicode="&#x2021;" horiz-adv-x="1044" 
d="M696 342h192q102 0 102 -99q0 -61 -42 -96.5t-115 -35.5h-237l-103 -256q-38 -95 -76 -132t-96 -37q-110 0 -110 97q0 35 16 76l102 252h-159q-47 0 -77 27.5t-30 69.5q0 134 173 134h186l204 504h-173q-42 0 -71 28.5t-29 70.5q0 64 45 98t128 34h187l88 219
q55 137 156 137q48 0 80 -30t32 -75q0 -40 -21 -93l-63 -158h193q102 0 102 -99q0 -61 -42 -96.5t-115 -35.5h-230z" />
    <glyph glyph-name="periodcentered" unicode="&#x2219;" horiz-adv-x="511" 
d="M399 522q57 0 98 -41t41 -98q0 -58 -41 -99t-98 -41q-58 0 -99 41t-41 99q0 57 41 98t99 41z" />
    <glyph glyph-name="quotesinglbase" unicode="&#x201a;" horiz-adv-x="436" 
d="M184 4q-31 49 -31 85q0 51 36.5 86t88.5 35q53 0 88.5 -35.5t35.5 -89.5q0 -85 -118 -182q-90 -75 -130 -75q-20 0 -36 13.5t-15 29.5q1 21 23 51l19 27z" />
    <glyph glyph-name="quotedblbase" unicode="&#x201e;" horiz-adv-x="797" 
d="M184 4q-31 49 -31 85q0 51 36.5 86t88.5 35q53 0 88.5 -35.5t35.5 -89.5q0 -85 -118 -182q-90 -75 -130 -75q-20 0 -36 13.5t-15 29.5q1 21 23 51l19 27zM498 4q-31 49 -31 85q0 51 36.5 86t88.5 35q53 0 88.5 -35.5t35.5 -89.5q0 -85 -117 -182q-91 -75 -131 -75
q-20 0 -36 13.5t-15 29.5q1 21 23 51l19 27z" />
    <glyph glyph-name="perthousand" unicode="&#x2030;" horiz-adv-x="1989" 
d="M525 58l577 1165l5 10q23 46 67 46q54 0 54 -49q0 -17 -9 -35l-6 -11l-576 -1164q-28 -57 -72 -57q-54 0 -54 50q0 17 14 45zM1233 644q90 0 142 -54.5t52 -147.5q0 -108 -50 -219.5t-124 -170.5q-79 -62 -189 -62q-91 0 -144.5 52t-53.5 139q0 162 112 315
q109 148 255 148zM1221 504q-54 3 -122 -107t-68 -202q0 -60 48 -60q59 0 111 81q76 119 76 229q0 56 -45 59zM1834 644q90 0 142 -54.5t52 -147.5q0 -109 -50 -220t-125 -170q-78 -62 -189 -62q-91 0 -144.5 51.5t-53.5 139.5q0 162 112 315q109 148 256 148zM1822 504
q-55 3 -123 -107t-68 -202q0 -60 48 -60q60 0 112 81q76 119 76 229q0 56 -45 59zM685 1292q90 0 142 -54.5t52 -147.5q0 -109 -50 -220t-125 -170q-78 -62 -189 -62q-91 0 -144.5 51.5t-53.5 140.5q0 162 112 314q110 148 256 148zM673 1152q-55 3 -123 -107t-68 -202
q0 -60 48 -60q60 0 112 81q76 119 76 229q0 56 -45 59z" />
    <glyph glyph-name="Acircumflex" unicode="&#xc2;" horiz-adv-x="2138" 
d="M1613 512h-277l-331 -573q-234 -407 -555 -407q-197 0 -330.5 141.5t-133.5 350.5q0 170 103 327.5t281 261.5q133 76 295 107t431 31h74l79 145q165 303 403 404q153 65 400 65q63 0 99 -28t36 -78q0 -23 -12 -54l-9 -23l-172 -431h76h26q112 0 112 -97
q0 -59 -46 -100.5t-112 -41.5h-27h-126l-111 -273h163h26q112 0 112 -96q0 -60 -46 -101.5t-112 -41.5h-27h-214q-86 0 -140.5 44.5t-54.5 115.5q0 55 41 156zM1711 751l144 355q-106 -7 -178.5 -67.5t-165.5 -219.5l-41 -68h241zM1033 512h-85q-286 0 -454 -106
q-107 -68 -170.5 -170t-63.5 -206q0 -95 61 -162.5t148 -67.5q151 0 267 200zM1973 1529l-119 -65q-54 -30 -83 -30q-32 0 -56.5 24.5t-24.5 58.5q0 59 85 104l117 63q58 31 99 31q25 0 53 -23q11 -10 21 -17l81 -67q51 -42 51 -90q0 -36 -24.5 -59.5t-60.5 -23.5
q-33 0 -80 42z" />
    <glyph glyph-name="Ecircumflex" unicode="&#xca;" horiz-adv-x="1605" 
d="M945 751l202 489q33 81 66 103t123 22h516q138 0 138 -94q0 -62 -45.5 -103.5t-112.5 -41.5h-27h-426l-152 -375h125h26q112 0 112 -97q0 -59 -46 -100.5t-112 -41.5h-27h-175l-222 -546h691h26q112 0 112 -94q0 -62 -45.5 -103.5t-112.5 -41.5h-27h-741l-13 -28
q-70 -156 -109.5 -219t-103.5 -122q-167 -153 -384 -153q-177 0 -291.5 105t-114.5 267q0 101 49 189t133 137q109 63 295 63h354l222 546h-9h-24q-112 0 -112 98q0 59 46 100t112 41h27h57zM529 -273h-264q-196 0 -196 -139q0 -57 43.5 -95.5t107.5 -38.5q90 0 172.5 73
t136.5 200zM1639 1529l-119 -65q-54 -30 -83 -30q-32 0 -56.5 24.5t-24.5 58.5q0 59 85 104l117 63q58 31 99 31q25 0 53 -23q11 -10 20 -17l82 -67q50 -41 50 -90q0 -36 -24.5 -59.5t-60.5 -23.5q-32 0 -79 42z" />
    <glyph glyph-name="Aacute" unicode="&#xc1;" horiz-adv-x="2138" 
d="M1613 512h-277l-331 -573q-234 -407 -555 -407q-197 0 -330.5 141.5t-133.5 350.5q0 170 103 327.5t281 261.5q133 76 295 107t431 31h74l79 145q165 303 403 404q153 65 400 65q63 0 99 -28t36 -78q0 -23 -12 -54l-9 -23l-172 -431h76h26q112 0 112 -97
q0 -59 -46 -100.5t-112 -41.5h-27h-126l-111 -273h163h26q112 0 112 -96q0 -60 -46 -101.5t-112 -41.5h-27h-214q-86 0 -140.5 44.5t-54.5 115.5q0 55 41 156zM1711 751l144 355q-106 -7 -178.5 -67.5t-165.5 -219.5l-41 -68h241zM1033 512h-85q-286 0 -454 -106
q-107 -68 -170.5 -170t-63.5 -206q0 -95 61 -162.5t148 -67.5q151 0 267 200zM2168 1575l-122 -97q-44 -35 -76 -35q-27 0 -48 20.5t-21 47.5q0 11 4 21l8 20l37 100q25 66 94 66h57q101 0 101 -79q0 -38 -34 -64z" />
    <glyph glyph-name="Edieresis" unicode="&#xcb;" horiz-adv-x="1605" 
d="M945 751l202 489q33 81 66 103t123 22h516q138 0 138 -94q0 -62 -45.5 -103.5t-112.5 -41.5h-27h-426l-152 -375h125h26q112 0 112 -97q0 -59 -46 -100.5t-112 -41.5h-27h-175l-222 -546h691h26q112 0 112 -94q0 -62 -45.5 -103.5t-112.5 -41.5h-27h-741l-13 -28
q-70 -156 -109.5 -219t-103.5 -122q-167 -153 -384 -153q-177 0 -291.5 105t-114.5 267q0 101 49 189t133 137q109 63 295 63h354l222 546h-9h-24q-112 0 -112 98q0 59 46 100t112 41h27h57zM529 -273h-264q-196 0 -196 -139q0 -57 43.5 -95.5t107.5 -38.5q90 0 172.5 73
t136.5 200zM1826 1710q57 0 96.5 -39.5t39.5 -95.5q0 -57 -39.5 -96.5t-96.5 -39.5q-56 0 -95.5 39.5t-39.5 96.5q0 56 39.5 95.5t95.5 39.5zM1418 1710q56 0 95.5 -39.5t39.5 -95.5q0 -57 -39.5 -96.5t-95.5 -39.5q-57 0 -96.5 39.5t-39.5 96.5q0 56 39.5 95.5t96.5 39.5z
" />
    <glyph glyph-name="Egrave" unicode="&#xc8;" horiz-adv-x="1605" 
d="M945 751l202 489q33 81 66 103t123 22h516q138 0 138 -94q0 -62 -45.5 -103.5t-112.5 -41.5h-27h-426l-152 -375h125h26q112 0 112 -97q0 -59 -46 -100.5t-112 -41.5h-27h-175l-222 -546h691h26q112 0 112 -94q0 -62 -45.5 -103.5t-112.5 -41.5h-27h-741l-13 -28
q-70 -156 -109.5 -219t-103.5 -122q-167 -153 -384 -153q-177 0 -291.5 105t-114.5 267q0 101 49 189t133 137q109 63 295 63h354l222 546h-9h-24q-112 0 -112 98q0 59 46 100t112 41h27h57zM529 -273h-264q-196 0 -196 -139q0 -57 43.5 -95.5t107.5 -38.5q90 0 172.5 73
t136.5 200zM1628 1659l41 -96q13 -29 13 -54q0 -28 -20.5 -48t-48.5 -20q-32 0 -66 26l-119 88q-57 42 -57 86q0 34 23.5 56.5t58.5 22.5h74q74 0 101 -61z" />
    <glyph glyph-name="Iacute" unicode="&#xcd;" horiz-adv-x="1204" 
d="M886 239h168q138 0 138 -96q0 -68 -48.5 -105.5t-136.5 -37.5h-182q-110 0 -167 42.5t-57 123.5q0 57 41 159l201 494q61 150 61 206q0 45 -41 80.5t-94 35.5q-100 0 -181 -86.5t-81 -193.5q0 -62 27.5 -96t100.5 -63q65 -26 65 -89q0 -58 -43.5 -95.5t-108.5 -37.5
q-125 0 -214 106.5t-89 255.5q0 217 164 380t382 163q164 0 273.5 -96t109.5 -239q0 -103 -52 -231zM1019 1575l-123 -97q-44 -35 -76 -35q-27 0 -48 20.5t-21 47.5q0 11 4 21l8 20l38 100q25 66 93 66h58q101 0 101 -79q0 -37 -34 -64z" />
    <glyph glyph-name="Icircumflex" unicode="&#xce;" horiz-adv-x="1204" 
d="M886 239h168q138 0 138 -96q0 -68 -48.5 -105.5t-136.5 -37.5h-182q-110 0 -167 42.5t-57 123.5q0 57 41 159l201 494q61 150 61 206q0 45 -41 80.5t-94 35.5q-100 0 -181 -86.5t-81 -193.5q0 -62 27.5 -96t100.5 -63q65 -26 65 -89q0 -58 -43.5 -95.5t-108.5 -37.5
q-125 0 -214 106.5t-89 255.5q0 217 164 380t382 163q164 0 273.5 -96t109.5 -239q0 -103 -52 -231zM891 1529l-119 -65q-54 -30 -82 -30q-32 0 -56.5 24.5t-24.5 58.5q0 59 85 104l117 63q58 31 99 31q25 0 53 -23q11 -10 20 -17l81 -67q51 -42 51 -90q0 -36 -24.5 -59.5
t-60.5 -23.5q-32 0 -80 42z" />
    <glyph glyph-name="Idieresis" unicode="&#xcf;" horiz-adv-x="1204" 
d="M886 239h168q138 0 138 -96q0 -68 -48.5 -105.5t-136.5 -37.5h-182q-110 0 -167 42.5t-57 123.5q0 57 41 159l201 494q61 150 61 206q0 45 -41 80.5t-94 35.5q-100 0 -181 -86.5t-81 -193.5q0 -62 27.5 -96t100.5 -63q65 -26 65 -89q0 -58 -43.5 -95.5t-108.5 -37.5
q-125 0 -214 106.5t-89 255.5q0 217 164 380t382 163q164 0 273.5 -96t109.5 -239q0 -103 -52 -231zM1024 1710q57 0 96.5 -39.5t39.5 -95.5q0 -57 -39.5 -96.5t-96.5 -39.5q-56 0 -95.5 39.5t-39.5 96.5q0 56 39.5 95.5t95.5 39.5zM685 1710q56 0 95.5 -39.5t39.5 -95.5
q0 -57 -39.5 -96.5t-95.5 -39.5q-57 0 -96.5 39.5t-39.5 96.5q0 56 39.5 95.5t96.5 39.5z" />
    <glyph glyph-name="Igrave" unicode="&#xcc;" horiz-adv-x="1204" 
d="M886 239h168q138 0 138 -96q0 -68 -48.5 -105.5t-136.5 -37.5h-182q-110 0 -167 42.5t-57 123.5q0 57 41 159l201 494q61 150 61 206q0 45 -41 80.5t-94 35.5q-100 0 -181 -86.5t-81 -193.5q0 -62 27.5 -96t100.5 -63q65 -26 65 -89q0 -58 -43.5 -95.5t-108.5 -37.5
q-125 0 -214 106.5t-89 255.5q0 217 164 380t382 163q164 0 273.5 -96t109.5 -239q0 -103 -52 -231zM840 1659l41 -96q13 -29 13 -54q0 -28 -20.5 -48t-48.5 -20q-32 0 -67 26l-118 88q-57 42 -57 86q0 34 23.5 56.5t58.5 22.5h73q75 0 102 -61z" />
    <glyph glyph-name="Oacute" unicode="&#xd3;" horiz-adv-x="1350" 
d="M310 683h-50q-139 0 -139 95q0 68 48.5 106t136.5 38h140l28 38q311 425 625 425q156 0 255 -90t99 -232q0 -200 -188 -308q-125 -72 -375 -72h-300q-148 -280 -148 -476q0 -110 58 -176t154 -66q133 0 264 156t194 391l16 60q33 123 132 123q53 0 86.5 -39t33.5 -101
q0 -196 -168 -463q-234 -373 -564 -373q-205 0 -335.5 137.5t-130.5 353.5q0 204 128 473zM746 922h195q248 0 248 135q0 40 -32.5 66.5t-82.5 26.5q-77 0 -165 -61t-163 -167zM1297 1575l-122 -97q-44 -35 -76 -35q-28 0 -49 20.5t-21 47.5q0 11 4 21l9 20l37 100
q25 66 94 66h57q101 0 101 -79q0 -38 -34 -64z" />
    <glyph glyph-name="Ocircumflex" unicode="&#xd4;" horiz-adv-x="1350" 
d="M310 683h-50q-139 0 -139 95q0 68 48.5 106t136.5 38h140l28 38q311 425 625 425q156 0 255 -90t99 -232q0 -200 -188 -308q-125 -72 -375 -72h-300q-148 -280 -148 -476q0 -110 58 -176t154 -66q133 0 264 156t194 391l16 60q33 123 132 123q53 0 86.5 -39t33.5 -101
q0 -196 -168 -463q-234 -373 -564 -373q-205 0 -335.5 137.5t-130.5 353.5q0 204 128 473zM746 922h195q248 0 248 135q0 40 -32.5 66.5t-82.5 26.5q-77 0 -165 -61t-163 -167zM1170 1529l-119 -65q-54 -30 -83 -30q-32 0 -56.5 24.5t-24.5 58.5q0 59 85 104l117 63
q58 31 99 31q25 0 53 -23q11 -10 21 -17l81 -67q51 -42 51 -90q0 -36 -24.5 -59.5t-60.5 -23.5q-33 0 -80 42z" />
    <glyph glyph-name="Ograve" unicode="&#xd2;" horiz-adv-x="1350" 
d="M310 683h-50q-139 0 -139 95q0 68 48.5 106t136.5 38h140l28 38q311 425 625 425q156 0 255 -90t99 -232q0 -200 -188 -308q-125 -72 -375 -72h-300q-148 -280 -148 -476q0 -110 58 -176t154 -66q133 0 264 156t194 391l16 60q33 123 132 123q53 0 86.5 -39t33.5 -101
q0 -196 -168 -463q-234 -373 -564 -373q-205 0 -335.5 137.5t-130.5 353.5q0 204 128 473zM746 922h195q248 0 248 135q0 40 -32.5 66.5t-82.5 26.5q-77 0 -165 -61t-163 -167zM1159 1659l42 -96q12 -28 12 -54q0 -28 -20.5 -48t-47.5 -20q-32 0 -67 26l-119 88
q-57 42 -57 86q0 34 23.5 56.5t58.5 22.5h74q74 0 101 -61z" />
    <glyph glyph-name="Uacute" unicode="&#xda;" horiz-adv-x="1748" 
d="M1822 1126l-319 -785q-81 -198 -192.5 -288.5t-275.5 -90.5q-159 0 -267.5 95.5t-108.5 234.5q0 103 65 263l107 264q61 150 61 203q0 50 -42 84.5t-102 34.5q-98 0 -179 -86.5t-81 -190.5q0 -62 28 -97t98 -62q74 -29 74 -94q0 -56 -43 -93.5t-107 -37.5
q-127 0 -216.5 105.5t-89.5 255.5q0 218 163.5 381t382.5 163q166 0 275.5 -97.5t109.5 -245.5q0 -94 -53 -223l-152 -375q-33 -81 -33 -129q0 -50 33.5 -81.5t87.5 -31.5q69 0 114.5 47t94.5 169l329 809q35 88 72 113t129 25h216q138 0 138 -94q0 -70 -48 -107.5
t-136 -37.5h-133zM1564 1575l-122 -97q-44 -35 -76 -35q-28 0 -49 20.5t-21 47.5q0 11 4 21l9 20l37 100q25 66 94 66h57q101 0 101 -79q0 -38 -34 -64z" />
    <glyph glyph-name="Ucircumflex" unicode="&#xdb;" horiz-adv-x="1748" 
d="M1822 1126l-319 -785q-81 -198 -192.5 -288.5t-275.5 -90.5q-159 0 -267.5 95.5t-108.5 234.5q0 103 65 263l107 264q61 150 61 203q0 50 -42 84.5t-102 34.5q-98 0 -179 -86.5t-81 -190.5q0 -62 28 -97t98 -62q74 -29 74 -94q0 -56 -43 -93.5t-107 -37.5
q-127 0 -216.5 105.5t-89.5 255.5q0 218 163.5 381t382.5 163q166 0 275.5 -97.5t109.5 -245.5q0 -94 -53 -223l-152 -375q-33 -81 -33 -129q0 -50 33.5 -81.5t87.5 -31.5q69 0 114.5 47t94.5 169l329 809q35 88 72 113t129 25h216q138 0 138 -94q0 -70 -48 -107.5
t-136 -37.5h-133zM1437 1529l-119 -65q-54 -30 -83 -30q-32 0 -56.5 24.5t-24.5 58.5q0 59 85 104l117 63q58 31 99 31q26 0 53 -23q11 -10 21 -17l81 -67q51 -42 51 -90q0 -36 -24.5 -59.5t-60.5 -23.5q-33 0 -80 42z" />
    <glyph glyph-name="Ugrave" unicode="&#xd9;" horiz-adv-x="1748" 
d="M1822 1126l-319 -785q-81 -198 -192.5 -288.5t-275.5 -90.5q-159 0 -267.5 95.5t-108.5 234.5q0 103 65 263l107 264q61 150 61 203q0 50 -42 84.5t-102 34.5q-98 0 -179 -86.5t-81 -190.5q0 -62 28 -97t98 -62q74 -29 74 -94q0 -56 -43 -93.5t-107 -37.5
q-127 0 -216.5 105.5t-89.5 255.5q0 218 163.5 381t382.5 163q166 0 275.5 -97.5t109.5 -245.5q0 -94 -53 -223l-152 -375q-33 -81 -33 -129q0 -50 33.5 -81.5t87.5 -31.5q69 0 114.5 47t94.5 169l329 809q35 88 72 113t129 25h216q138 0 138 -94q0 -70 -48 -107.5
t-136 -37.5h-133zM1426 1659l42 -96q12 -28 12 -54q0 -28 -20.5 -48t-47.5 -20q-32 0 -67 26l-119 88q-57 42 -57 86q0 34 23.5 56.5t58.5 22.5h74q74 0 101 -61z" />
    <glyph glyph-name="dotlessi" unicode="&#x131;" horiz-adv-x="555" 
d="M372 218h113q126 0 126 -89q0 -61 -44.5 -95t-124.5 -34h-159q-88 0 -138.5 36t-50.5 98q0 33 21 84l165 406l11 28q46 113 148 113q42 0 72.5 -28t30.5 -67q0 -32 -27 -98z" />
    <glyph glyph-name="circumflex" unicode="&#x2c6;" horiz-adv-x="1024" 
d="M705 942l-119 -65q-54 -30 -87 -30q-30 0 -53.5 26t-23.5 59q0 57 85 102l117 63q58 31 99 31q25 0 53 -23q10 -8 21 -17l81 -67q51 -42 51 -91q0 -35 -24.5 -58.5t-60.5 -23.5q-33 0 -80 42z" />
    <glyph glyph-name="tilde" unicode="&#x2dc;" horiz-adv-x="1024" 
d="M466 1008l40 50q45 57 109 57q36 0 87 -34l32 -21q13 -9 23 -9q12 0 25 13l23 24q21 21 51 21q39 0 66.5 -24.5t25.5 -58.5q-2 -39 -29 -70l-58 -65q-39 -45 -93 -45q-47 0 -98 42q-29 24 -39 24q-13 0 -33 -19q-41 -40 -87 -40q-33 0 -55.5 23t-22.5 57q0 33 33 75z" />
    <glyph glyph-name="macron" unicode="&#x2c9;" horiz-adv-x="778" 
d="M428 1066h277h19q95 0 95 -85q0 -39 -26 -62.5t-69 -23.5h-19h-277h-19q-42 0 -68.5 23.5t-26.5 61.5q0 39 26 62.5t69 23.5h19z" />
    <glyph glyph-name="breve" unicode="&#x2d8;" horiz-adv-x="1024" 
d="M515 1149q28 0 44 -12t45 -54q36 -53 86 -53q49 0 85 53q30 42 45.5 54t43.5 12q34 0 57.5 -24t23.5 -58q0 -89 -76.5 -154.5t-179.5 -65.5q-102 0 -178.5 66t-76.5 154q0 34 23.5 58t57.5 24z" />
    <glyph glyph-name="dotaccent" unicode="&#x2d9;" horiz-adv-x="1024" 
d="M703 1123q57 0 96.5 -39.5t39.5 -95.5q0 -57 -39.5 -96.5t-96.5 -39.5q-56 0 -95.5 39.5t-39.5 96.5q0 56 39.5 95.5t95.5 39.5z" />
    <glyph glyph-name="ring" unicode="&#x2da;" horiz-adv-x="1024" 
d="M690 1190q73 0 125 -52t52 -125q0 -74 -52 -126t-125 -52q-74 0 -126 52t-52 126q0 73 52 125t126 52zM689 1076q-27 0 -46.5 -19.5t-19.5 -46.5q0 -28 19.5 -47.5t46.5 -19.5q28 0 47.5 19.5t19.5 47.5q0 27 -19.5 46.5t-47.5 19.5z" />
    <glyph glyph-name="cedilla" unicode="&#xb8;" horiz-adv-x="1024" 
d="M621 -88q18 5 35 5q68 0 118 -57t50 -134q0 -96 -62.5 -157t-161.5 -61h-121q-82 0 -82 53q0 89 109 89h75q85 0 85 73q0 67 -63 67q-30 0 -56 -18q-31 -21 -60 -21q-55 0 -55 54q0 25 18 57l85 155q31 56 80 56q58 0 58 -54q0 -24 -22 -59z" />
    <glyph glyph-name="hungarumlaut" unicode="&#x2dd;" horiz-adv-x="1024" 
d="M722 979l-126 -99q-43 -34 -74 -34q-25 0 -44.5 19t-19.5 43q0 10 3 19l9 21l39 102q24 64 89 64h59q97 0 97 -74q0 -35 -32 -61zM1050 979l-125 -99q-43 -34 -74 -34q-25 0 -44.5 19t-19.5 43q0 11 3 19l9 21l39 102q23 64 89 64h59q97 0 97 -74q0 -35 -33 -61z" />
    <glyph glyph-name="ogonek" unicode="&#x2db;" horiz-adv-x="1024" 
d="M806 0l-13 -12q-118 -106 -118 -162q0 -64 70 -64h88q93 0 93 -60q0 -43 -32.5 -66.5t-89.5 -23.5h-138q-71 0 -116 49t-45 127q0 90 109 212h192z" />
    <glyph glyph-name="caron" unicode="&#x2c7;" horiz-adv-x="1024" 
d="M688 1032l119 65q54 30 87 30q30 0 53.5 -26t23.5 -59q0 -57 -86 -103l-116 -62q-59 -31 -100 -31q-25 0 -53 23q-11 10 -20 17l-81 67q-51 42 -51 90q0 36 24.5 59.5t60.5 23.5q32 0 80 -42z" />
    <glyph glyph-name="Scaron" unicode="&#x160;" horiz-adv-x="1367" 
d="M971 683l92 -116l53 -64q154 -190 154 -402q0 -206 -136 -361q-186 -213 -487 -213q-233 0 -382 143.5t-149 367.5q0 274 232 457q123 97 227 97q54 0 88 -31t34 -80q0 -66 -78 -114l-80 -49q-69 -43 -115 -120t-46 -152q0 -119 80.5 -196.5t204.5 -77.5q137 0 238 102.5
t101 241.5q0 88 -41 160t-177 223q-95 105 -136 184h-270q-138 0 -138 95q0 69 48.5 106.5t136.5 37.5h171q20 198 181 327.5t386 129.5q169 0 275.5 -93t106.5 -241q0 -197 -169 -302q-96 -60 -305 -60h-100zM851 922h240q203 0 203 118q0 46 -41.5 74t-110.5 28
q-108 0 -196.5 -67t-94.5 -153zM1201 1619l119 65q51 29 82 30q32 1 57 -24.5t25 -58.5q0 -59 -85 -104l-117 -63q-59 -31 -99 -31q-26 0 -54 23q-8 8 -20 17l-81 67q-51 42 -51 90q0 36 24.5 59.5t60.5 23.5q33 0 80 -42z" />
    <glyph glyph-name="scaron" unicode="&#x161;" horiz-adv-x="715" 
d="M427 492l-19 -46q-44 -99 -125 -99q-41 0 -73.5 28.5t-32.5 65.5q0 35 29 93l133 270q49 97 122 97q39 0 67 -25.5t28 -60.5q0 -9 -6 -39q-4 -22 -4 -39q0 -63 47 -129l57 -79q87 -121 87 -234q0 -126 -94 -210.5t-234 -84.5h-209q-127 0 -127 88q0 61 45 95.5t124 34.5
h116q139 0 139 101q0 37 -26 87zM507 1141l119 65q54 30 87 30q30 0 53.5 -26t23.5 -59q0 -57 -86 -103l-116 -62q-59 -31 -100 -31q-25 0 -53 23q-11 10 -20 17l-81 67q-51 42 -51 90q0 36 24.5 59.5t60.5 23.5q32 0 80 -42z" />
    <glyph glyph-name="brokenbar" unicode="&#xa6;" horiz-adv-x="1024" 
d="M386 1365h253v-706h-253v706zM386 314h253v-655h-253v655z" />
    <glyph glyph-name="Eth" unicode="&#xd0;" horiz-adv-x="1871" 
d="M849 512h-8h-27q-112 0 -112 94q0 62 45.5 103.5t112.5 41.5h27h59l152 375h-99h-27q-112 0 -112 94q0 61 45.5 103t112.5 42h27h293q294 0 451 -140t157 -403q0 -250 -118.5 -497.5t-311.5 -401.5q-133 -106 -280.5 -151t-362.5 -45h-62l-12 -28q-70 -156 -110 -219
t-104 -122q-167 -153 -385 -153q-176 0 -290.5 105t-114.5 267q0 101 49 189t133 137q109 63 295 63h355zM1130 512l-222 -546h40q310 0 519 275q101 132 159.5 286t58.5 285q0 146 -82 230t-223 84l-153 -375h123h27q112 0 112 -95q0 -61 -45.5 -102.5t-112.5 -41.5h-27
h-174zM530 -273h-265q-196 0 -196 -139q0 -57 43 -96t105 -39q92 0 175 72.5t138 201.5z" />
    <glyph glyph-name="eth" unicode="&#xf0;" horiz-adv-x="848" 
d="M598 776l-43 184l-101 -25q-26 -6 -47 -6q-43 0 -70 24t-27 63q0 71 105 96l102 24l-18 73q-10 38 -10 55q0 46 33.5 80.5t78.5 34.5q81 0 107 -111l20 -86l111 25q33 7 50 7q86 0 86 -82q0 -77 -98 -99l-107 -25l102 -445q17 -72 17 -126q0 -95 -50.5 -200t-125.5 -165
q-89 -72 -263 -72q-163 0 -220 39q-134 92 -134 272q0 188 136 328t318 140q21 0 48 -3zM533 566q-74 0 -135 -73t-61 -161q0 -116 130 -116q76 0 117 47q68 77 68 176q0 57 -33 92t-86 35z" />
    <glyph glyph-name="Yacute" unicode="&#xdd;" horiz-adv-x="1839" 
d="M1853 1126l-360 -887h135q138 0 138 -98q0 -66 -48.5 -103.5t-135.5 -37.5h-187l-73 -184q-122 -305 -254 -430.5t-329 -125.5q-186 0 -310 124t-124 309q0 140 73.5 257t207.5 192q171 95 473 95l159 2l34 83q-53 -26 -117 -26q-142 0 -235.5 87t-93.5 219q0 69 46 200
l22 59l21 59q23 63 23 105q0 48 -42 82t-101 34q-96 0 -175.5 -88t-79.5 -193q0 -60 27 -94.5t96 -60.5q72 -28 72 -92q0 -57 -43 -95t-107 -38q-127 0 -216.5 106t-89.5 256q0 218 164.5 380.5t384.5 162.5q165 0 273 -99t108 -250q0 -72 -25 -140l-39 -106
q-37 -99 -37 -141q0 -47 35 -80t84 -33q73 0 123 51t102 178l193 476q28 69 68.5 96.5t115.5 27.5h236q138 0 138 -94q0 -69 -48.5 -107t-136.5 -38h-145zM1121 0q-210 0 -322 -40q-105 -37 -164.5 -106.5t-59.5 -153.5q0 -78 51.5 -132t125.5 -54q91 0 164.5 81t146.5 262z
M1610 1575l-123 -97q-44 -35 -76 -35q-27 0 -48 20.5t-21 47.5q0 11 4 21l8 20l38 100q25 66 93 66h58q101 0 101 -79q0 -37 -34 -64z" />
    <glyph glyph-name="yacute" unicode="&#xfd;" horiz-adv-x="878" 
d="M665 -41h116q127 0 127 -89q0 -61 -44.5 -95t-124.5 -34h-162q-29 -86 -105 -228q-132 -250 -384 -250q-153 0 -257 96t-104 238q0 99 56.5 184.5t148.5 128.5q106 49 313 49h163l29 72q-74 -31 -136 -31q-107 0 -173.5 54.5t-66.5 141.5q0 53 43 159l109 269l11 28
q48 113 149 113q44 0 73.5 -28t29.5 -71q0 -29 -26 -94l-98 -239q-23 -58 -24 -75q-3 -49 62 -49q46 0 94 27t61 61l134 327l10 28q47 113 149 113q44 0 73.5 -28.5t29.5 -70.5q0 -29 -15 -67l-12 -27zM338 -259h-140q-230 0 -230 -144q0 -51 31.5 -82t84.5 -31
q73 0 129.5 57t124.5 200zM773 973l-123 -97q-44 -35 -76 -35q-27 0 -48 20.5t-21 47.5q0 11 4 21l8 20l38 100q25 66 93 66h58q101 0 101 -79q0 -37 -34 -64z" />
    <glyph glyph-name="Thorn" unicode="&#xde;" horiz-adv-x="1668" 
d="M1163 266l-20 -48q-106 -258 -174.5 -371t-165.5 -189q-150 -118 -348 -118q-209 0 -339 132t-130 343q0 283 206 493q110 113 278.5 183t330.5 70q78 0 126.5 -36t48.5 -94q0 -59 -39 -88.5t-128 -38.5q-198 -18 -321 -91q-102 -61 -161 -159.5t-59 -207.5
q0 -111 57.5 -176.5t154.5 -65.5q122 0 212 103.5t195 365.5l387 957q60 149 170 149q49 0 82 -29.5t33 -72.5q0 -33 -16 -73l-12 -29l-93 -228q321 -18 321 -295q0 -183 -142 -301q-102 -85 -317 -85h-137zM1259 505h82q159 0 159 130q0 74 -91 74h-66z" />
    <glyph glyph-name="thorn" unicode="&#xfe;" horiz-adv-x="894" 
d="M566 705q66 74 153 74q96 0 156 -80.5t60 -208.5q0 -246 -153 -401q-50 -51 -103 -70t-148 -19q-102 0 -140.5 14t-79.5 64l-261 -642q-54 -133 -158 -133q-40 0 -68.5 26.5t-28.5 63.5q0 31 25 94l712 1752q56 140 159 140q41 0 69 -27t28 -66q0 -32 -16 -72l-11 -27z
M393 282q25 -44 47.5 -57t71.5 -13q71 0 111 53q81 107 81 220q0 97 -92 97q-101 0 -145 -117q-5 -13 -8 -22z" />
    <glyph glyph-name="multiply" unicode="&#xd7;" 
d="M767 596l107 -180l7 -12q10 -16 10 -34q0 -39 -31.5 -71.5t-69.5 -32.5q-55 0 -80 41l-104 175l-267 -190q-37 -26 -65 -26q-35 0 -63 29t-28 65q0 40 36 65l296 210l-106 178q-17 29 -17 49q0 38 32.5 69.5t71.5 31.5q52 0 75 -39l104 -175l264 187q38 27 66 27
q34 0 62 -29.5t28 -64.5q0 -40 -32 -63z" />
    <glyph glyph-name="onesuperior" unicode="&#xb9;" horiz-adv-x="617" 
d="M591 1085h-35q-84 0 -84 58q0 41 30 64t83 23h122q79 0 79 -62q0 -17 -10 -41l-225 -555q-36 -89 -105 -89q-67 0 -67 63q0 18 9 40l7 16z" />
    <glyph glyph-name="twosuperior" unicode="&#xb2;" horiz-adv-x="617" 
d="M503 635h169q83 0 83 -57q0 -41 -30 -64t-83 -23h-303q-87 0 -87 72q0 36 32 69l337 339q26 26 26 54q0 27 -22 46.5t-51 19.5q-68 0 -68 -62q0 -21 14 -47q13 -24 13 -43q0 -33 -22.5 -54.5t-57.5 -21.5q-47 0 -80 44t-33 106q0 96 71 160.5t175 64.5q100 0 165 -57.5
t65 -146.5q0 -87 -66 -153z" />
    <glyph glyph-name="threesuperior" unicode="&#xb3;" horiz-adv-x="617" 
d="M693 944q94 -61 94 -168q0 -126 -84 -211.5t-208 -85.5q-102 0 -167 54.5t-65 140.5q0 65 33 110t81 45q28 0 48.5 -18.5t20.5 -44.5q0 -15 -5 -32l-4 -14q-7 -25 -7 -36q0 -60 70 -60q47 0 83.5 44.5t36.5 101.5q0 68 -73 92q-55 17 -55 61q0 28 21 52l13 13l91 99h-128
q-83 0 -83 57q0 36 28.5 61t69.5 25h15h236q102 0 102 -75q0 -37 -26 -64z" />
    <glyph glyph-name="onehalf" unicode="&#xbd;" horiz-adv-x="1599" 
d="M591 1085h-35q-84 0 -84 58q0 41 30 64t83 23h122q79 0 79 -62q0 -17 -10 -41l-225 -555q-36 -89 -105 -89q-67 0 -67 63q0 18 9 40l7 16zM602 43l587 1186q25 50 79 50q55 0 53 -41q-1 -15 -12 -38l-587 -1186q-25 -49 -80 -49q-53 0 -53 40q0 11 13 38zM1286 144h169
q83 0 83 -57q0 -41 -30 -64t-83 -23h-302q-88 0 -88 72q0 35 33 69l337 339q25 26 25 54q0 27 -21.5 46.5t-50.5 19.5q-68 0 -68 -62q0 -20 13 -47q13 -25 13 -43q0 -33 -22.5 -54.5t-56.5 -21.5q-47 0 -80 44t-33 106q0 96 70.5 160.5t175.5 64.5q99 0 164 -57.5t65 -146.5
q0 -87 -66 -153z" />
    <glyph glyph-name="onequarter" unicode="&#xbc;" horiz-adv-x="1599" 
d="M591 1085h-35q-84 0 -84 58q0 41 30 64t83 23h122q79 0 79 -62q0 -17 -10 -41l-225 -555q-36 -89 -105 -89q-67 0 -67 63q0 18 9 40l7 16zM602 43l587 1186q25 50 79 50q55 0 53 -41q-1 -15 -12 -38l-587 -1186q-25 -49 -80 -49q-53 0 -53 40q0 11 13 38zM1502 296h27
q83 0 83 -57q0 -41 -30 -64t-83 -23h-56l-28 -71q-37 -89 -106 -89q-68 0 -68 63q0 18 9 41l7 16l16 40h-119q-118 0 -118 94q0 43 30 76l23 24l300 315q82 86 149 86q42 0 70.5 -26t28.5 -64q0 -28 -18 -73zM1332 296l103 232l-212 -232h109z" />
    <glyph glyph-name="threequarters" unicode="&#xbe;" horiz-adv-x="1599" 
d="M693 944q94 -61 94 -168q0 -126 -84 -211.5t-208 -85.5q-102 0 -167 54.5t-65 140.5q0 65 33 110t81 45q28 0 48.5 -18.5t20.5 -44.5q0 -15 -5 -32l-4 -14q-7 -25 -7 -36q0 -60 70 -60q47 0 83.5 44.5t36.5 101.5q0 68 -73 92q-55 17 -55 61q0 28 21 52l13 13l91 99h-128
q-83 0 -83 57q0 36 28.5 61t69.5 25h15h236q102 0 102 -75q0 -37 -26 -64zM603 43l587 1186q25 50 79 50q53 0 53 -41q0 -13 -12 -38l-587 -1186q-25 -49 -80 -49q-53 0 -53 40q0 12 13 38zM1502 296h28q83 0 83 -57q0 -41 -30 -64t-83 -23h-56l-29 -71q-36 -89 -105 -89
q-68 0 -68 63q0 18 9 41l7 16l16 40h-119q-54 0 -86 25.5t-32 68.5q0 44 30 76l23 24l300 315q82 86 149 86q42 0 70.5 -26t28.5 -64q0 -27 -19 -73zM1333 296l103 232l-212 -232h109z" />
    <glyph glyph-name="glyph240" horiz-adv-x="2138" 
d="M2119 1710q57 0 96.5 -39.5t39.5 -95.5q0 -57 -39.5 -96.5t-96.5 -39.5q-56 0 -95.5 39.5t-39.5 96.5q0 56 39.5 95.5t95.5 39.5zM1711 1710q56 0 95.5 -39.5t39.5 -95.5q0 -57 -39.5 -96.5t-95.5 -39.5q-57 0 -96.5 39.5t-39.5 96.5q0 56 39.5 95.5t96.5 39.5z" />
    <glyph glyph-name="glyph241" horiz-adv-x="2138" 
d="M2168 1575l-122 -97q-44 -35 -76 -35q-27 0 -48 20.5t-21 47.5q0 11 4 21l8 20l37 100q25 66 94 66h57q101 0 101 -79q0 -38 -34 -64z" />
    <glyph glyph-name="glyph242" horiz-adv-x="2138" 
d="M2030 1659l42 -96q13 -30 13 -54q0 -28 -20.5 -48t-48.5 -20q-32 0 -67 26l-119 88q-57 43 -57 86q0 34 23.5 56.5t58.5 22.5h74q75 0 101 -61z" />
    <glyph glyph-name="glyph243" horiz-adv-x="2138" 
d="M1973 1529l-119 -65q-54 -30 -83 -30q-32 0 -56.5 24.5t-24.5 58.5q0 59 85 104l117 63q58 31 99 31q25 0 53 -23q11 -10 21 -17l81 -67q51 -42 51 -90q0 -36 -24.5 -59.5t-60.5 -23.5q-33 0 -80 42z" />
    <glyph glyph-name="glyph244" horiz-adv-x="2138" 
d="M1788 1595l39 50q45 57 109 57q36 0 87 -34l32 -21q13 -9 23 -9q12 0 25 13l23 24q21 21 51 21q38 0 65 -23.5t27 -56.5q0 -40 -29 -73l-57 -65q-40 -45 -94 -45q-47 0 -98 42q-29 24 -39 24q-13 0 -33 -19q-41 -40 -87 -40q-33 0 -55.5 23t-22.5 57q0 33 34 75z" />
    <glyph glyph-name="glyph245" horiz-adv-x="2138" 
d="M2066 1791q73 0 125 -52t52 -125q0 -74 -52 -126t-125 -52q-74 0 -126 52t-52 126q0 73 52 125t126 52zM2065 1677q-27 0 -46.5 -19.5t-19.5 -46.5q0 -28 19.5 -47.5t46.5 -19.5q28 0 47.5 19.5t19.5 47.5q0 27 -19.5 46.5t-47.5 19.5z" />
    <glyph glyph-name="glyph246" horiz-adv-x="1605" 
d="M1826 1710q57 0 96.5 -39.5t39.5 -95.5q0 -57 -39.5 -96.5t-96.5 -39.5q-56 0 -95.5 39.5t-39.5 96.5q0 56 39.5 95.5t95.5 39.5zM1418 1710q56 0 95.5 -39.5t39.5 -95.5q0 -57 -39.5 -96.5t-95.5 -39.5q-57 0 -96.5 39.5t-39.5 96.5q0 56 39.5 95.5t96.5 39.5z" />
    <glyph glyph-name="glyph247" horiz-adv-x="1605" 
d="M1739 1575l-123 -97q-44 -35 -76 -35q-27 0 -48 20.5t-21 47.5q0 11 4 21l8 20l38 100q24 66 93 66h58q101 0 101 -79q0 -37 -34 -64z" />
    <glyph glyph-name="glyph248" horiz-adv-x="1605" 
d="M1628 1659l41 -96q13 -29 13 -54q0 -28 -20.5 -48t-48.5 -20q-32 0 -66 26l-119 88q-57 42 -57 86q0 34 23.5 56.5t58.5 22.5h74q74 0 101 -61z" />
    <glyph glyph-name="glyph249" horiz-adv-x="1605" 
d="M1639 1529l-119 -65q-54 -30 -83 -30q-32 0 -56.5 24.5t-24.5 58.5q0 59 85 104l117 63q58 31 99 31q25 0 53 -23q11 -10 20 -17l82 -67q50 -41 50 -90q0 -36 -24.5 -59.5t-60.5 -23.5q-32 0 -79 42z" />
    <glyph glyph-name="glyph250" horiz-adv-x="1204" 
d="M1024 1710q57 0 96.5 -39.5t39.5 -95.5q0 -57 -39.5 -96.5t-96.5 -39.5q-56 0 -95.5 39.5t-39.5 96.5q0 56 39.5 95.5t95.5 39.5zM685 1710q56 0 95.5 -39.5t39.5 -95.5q0 -57 -39.5 -96.5t-95.5 -39.5q-57 0 -96.5 39.5t-39.5 96.5q0 56 39.5 95.5t96.5 39.5z" />
    <glyph glyph-name="glyph251" horiz-adv-x="1204" 
d="M1019 1575l-123 -97q-44 -35 -76 -35q-27 0 -48 20.5t-21 47.5q0 11 4 21l8 20l38 100q25 66 93 66h58q101 0 101 -79q0 -37 -34 -64z" />
    <glyph glyph-name="glyph252" horiz-adv-x="1204" 
d="M840 1659l41 -96q13 -29 13 -54q0 -28 -20.5 -48t-48.5 -20q-32 0 -67 26l-118 88q-57 42 -57 86q0 34 23.5 56.5t58.5 22.5h73q75 0 102 -61z" />
    <glyph glyph-name="glyph253" horiz-adv-x="1204" 
d="M891 1529l-119 -65q-54 -30 -82 -30q-32 0 -56.5 24.5t-24.5 58.5q0 59 85 104l117 63q58 31 99 31q25 0 53 -23q11 -10 20 -17l81 -67q51 -42 51 -90q0 -36 -24.5 -59.5t-60.5 -23.5q-32 0 -80 42z" />
    <glyph glyph-name="glyph254" horiz-adv-x="2035" 
d="M1572 1595l40 50q44 57 109 57q36 0 87 -34l31 -21q14 -9 24 -9q11 0 24 13l24 24q21 21 51 21q38 0 65 -23.5t27 -56.5q0 -39 -29 -73l-58 -65q-39 -45 -93 -45q-47 0 -98 42q-29 24 -39 24q-13 0 -33 -19q-41 -40 -87 -40q-33 0 -55.5 23t-22.5 57q0 33 33 75z" />
    <glyph glyph-name="glyph255" horiz-adv-x="1350" 
d="M1383 1710q57 0 96.5 -39.5t39.5 -95.5q0 -57 -39.5 -96.5t-96.5 -39.5q-56 0 -95.5 39.5t-39.5 96.5q0 56 39.5 95.5t95.5 39.5zM976 1710q56 0 95.5 -39.5t39.5 -95.5q0 -57 -39.5 -96.5t-95.5 -39.5q-57 0 -96.5 39.5t-39.5 96.5q0 56 39.5 95.5t96.5 39.5z" />
    <glyph glyph-name="glyph256" horiz-adv-x="1350" 
d="M1297 1575l-122 -97q-44 -35 -76 -35q-28 0 -49 20.5t-21 47.5q0 11 4 21l9 20l37 100q25 66 94 66h57q101 0 101 -79q0 -38 -34 -64z" />
    <glyph glyph-name="glyph257" horiz-adv-x="1350" 
d="M1159 1659l42 -96q12 -28 12 -54q0 -28 -20.5 -48t-47.5 -20q-32 0 -67 26l-119 88q-57 42 -57 86q0 34 23.5 56.5t58.5 22.5h74q74 0 101 -61z" />
    <glyph glyph-name="glyph258" horiz-adv-x="1350" 
d="M1170 1529l-119 -65q-54 -30 -83 -30q-32 0 -56.5 24.5t-24.5 58.5q0 59 85 104l117 63q58 31 99 31q25 0 53 -23q11 -10 21 -17l81 -67q51 -42 51 -90q0 -36 -24.5 -59.5t-60.5 -23.5q-33 0 -80 42z" />
    <glyph glyph-name="glyph259" horiz-adv-x="1350" 
d="M916 1595l40 50q44 57 109 57q36 0 87 -34l32 -21q13 -9 23 -9q12 0 25 13l23 24q21 21 51 21q38 0 65 -23.5t27 -56.5q0 -39 -29 -73l-58 -65q-39 -45 -93 -45q-47 0 -98 42q-29 24 -39 24q-13 0 -33 -19q-41 -40 -87 -40q-33 0 -55.5 23t-22.5 57q0 33 33 75z" />
    <glyph glyph-name="glyph260" horiz-adv-x="1367" 
d="M1201 1619l119 65q51 29 82 30q32 1 57 -24.5t25 -58.5q0 -59 -85 -104l-117 -63q-59 -31 -99 -31q-26 0 -54 23q-8 8 -20 17l-81 67q-51 42 -51 90q0 36 24.5 59.5t60.5 23.5q33 0 80 -42z" />
    <glyph glyph-name="glyph261" horiz-adv-x="1748" 
d="M1584 1710q56 0 95.5 -39.5t39.5 -95.5q0 -57 -39.5 -96.5t-95.5 -39.5q-57 0 -96.5 39.5t-39.5 96.5q0 56 39.5 95.5t96.5 39.5zM1174 1710q57 0 96.5 -39.5t39.5 -95.5q0 -57 -39.5 -96.5t-96.5 -39.5q-56 0 -95.5 39.5t-39.5 96.5q0 56 39.5 95.5t95.5 39.5z" />
    <glyph glyph-name="glyph262" horiz-adv-x="1748" 
d="M1564 1575l-122 -97q-44 -35 -76 -35q-28 0 -49 20.5t-21 47.5q0 11 4 21l9 20l37 100q25 66 94 66h57q101 0 101 -79q0 -38 -34 -64z" />
    <glyph glyph-name="glyph263" horiz-adv-x="1748" 
d="M1426 1659l42 -96q12 -28 12 -54q0 -28 -20.5 -48t-47.5 -20q-32 0 -67 26l-119 88q-57 42 -57 86q0 34 23.5 56.5t58.5 22.5h74q74 0 101 -61z" />
    <glyph glyph-name="glyph264" horiz-adv-x="1748" 
d="M1437 1529l-119 -65q-54 -30 -83 -30q-32 0 -56.5 24.5t-24.5 58.5q0 59 85 104l117 63q58 31 99 31q26 0 53 -23q11 -10 21 -17l81 -67q51 -42 51 -90q0 -36 -24.5 -59.5t-60.5 -23.5q-33 0 -80 42z" />
    <glyph glyph-name="glyph265" horiz-adv-x="1839" 
d="M1610 1575l-123 -97q-44 -35 -76 -35q-27 0 -48 20.5t-21 47.5q0 11 4 21l8 20l38 100q25 66 93 66h58q101 0 101 -79q0 -37 -34 -64z" />
    <glyph glyph-name="glyph266" horiz-adv-x="1839" 
d="M1630 1710q56 0 95.5 -39.5t39.5 -95.5q0 -57 -39.5 -96.5t-95.5 -39.5q-57 0 -96.5 39.5t-39.5 96.5q0 56 39.5 95.5t96.5 39.5zM1220 1710q57 0 96.5 -39.5t39.5 -95.5q0 -57 -39.5 -96.5t-96.5 -39.5q-56 0 -95.5 39.5t-39.5 96.5q0 56 39.5 95.5t95.5 39.5z" />
    <glyph glyph-name="glyph267" horiz-adv-x="555" 
d="M629 1123q51 0 86.5 -39.5t35.5 -95.5q0 -57 -35.5 -96.5t-86.5 -39.5t-86.5 39.5t-35.5 96.5q0 56 35.5 95.5t86.5 39.5zM327 1123q51 0 86.5 -39.5t35.5 -95.5q0 -57 -35.5 -96.5t-86.5 -39.5q-50 0 -86 39.5t-36 96.5q0 56 36 95.5t86 39.5z" />
    <glyph glyph-name="glyph268" horiz-adv-x="555" 
d="M372 218h113q126 0 126 -89q0 -61 -44.5 -95t-124.5 -34h-159q-88 0 -138.5 36t-50.5 98q0 33 21 84l165 406l11 28q46 113 148 113q42 0 72.5 -28t30.5 -67q0 -32 -27 -98z" />
    <glyph glyph-name="currency" unicode="&#xa4;" horiz-adv-x="860" 
d="M805 917l76 54l11 8q16 11 37 11q35 0 64 -26.5t29 -58.5q0 -40 -30 -61l-82 -59q21 -58 21 -121q0 -89 -49 -194l49 -57l9 -10q15 -17 15 -41q0 -39 -25 -67.5t-60 -28.5q-34 0 -57 26l-35 41q-53 -41 -101 -55t-141 -14q-97 0 -133 7t-72 33l-64 -46l-11 -7
q-16 -11 -37 -11q-36 0 -64.5 26t-28.5 58q0 41 32 64l75 53q-17 54 -17 103q0 104 59 210l-54 63l-9 9q-15 18 -15 42q0 39 25.5 67.5t59.5 28.5t55 -24l50 -57q111 82 238 82q96 0 180 -48zM608 777q-67 0 -123 -66t-56 -145q0 -111 123 -111q70 0 107 42q63 71 63 160
q0 54 -31.5 87t-82.5 33z" />
  </font>
</defs>
</svg>
